<svg width="180" height="180" viewBox="0 0 180 180" fill="none" xmlns="http://www.w3.org/2000/svg">
<rect width="180" height="180" rx="24" fill="#E9E9E9"/>
<path d="M72.9105 44.0215C73.8352 63.2478 74.5887 82.4826 75.4792 101.709C75.6847 106.19 76.07 110.705 75.856 115.195C75.6676 119.098 74.8113 123.428 72.3453 126.432C68.2096 131.459 60.041 132.626 53.8417 131.744C45.7415 130.595 38.7288 124.888 33.6684 118.72C27.803 111.57 24.7633 102.741 24.3609 93.6274C24.1725 89.297 24.4807 84.9667 25.7138 80.7958C26.7926 77.1536 28.4966 73.6205 30.6115 70.4483C35.4322 63.2311 43.4896 58.6573 51.6754 55.9803C56.5646 54.3774 61.6165 53.3283 66.6855 52.4556C71.4377 51.6331 76.344 51.8345 81.1391 52.2541C89.6245 53.001 98.1186 55.0991 105.773 58.7832C113.035 62.2827 119.422 67.2341 124.491 73.4359C129.517 79.5789 133.071 87.6522 133.576 95.5492C133.859 99.9634 133.251 104.378 131.598 108.507C129.997 112.51 127.214 116.009 124.063 118.955C117.256 125.333 108.394 129.369 99.3773 131.753C90.1297 134.195 79.966 135.202 70.4873 133.465C66.0176 132.642 61.6507 131.249 57.6349 129.151C53.7989 127.146 50.0827 124.586 47.591 121.028C45.2963 117.755 44.0119 113.785 45.0223 109.841C45.947 106.258 48.4815 103.354 51.7182 101.541C55.871 99.2249 60.863 98.6039 65.5381 98.2095C70.864 97.7647 76.1985 97.4626 81.5329 97.2108C101.766 96.2457 122.025 96.615 142.216 98.2682C147.439 98.6962 152.645 99.1998 157.859 99.762C159.007 99.8879 160 98.713 160 97.664C160 96.4304 159.015 95.6919 157.859 95.566C136.35 93.2497 114.747 92.0748 93.1095 92.5952C87.6209 92.7294 82.1323 92.956 76.6437 93.2665C71.0781 93.5854 65.4439 93.8036 59.9296 94.6512C55.0319 95.3981 50.1769 96.9255 46.3666 100.14C42.9673 103.01 40.8266 107.088 40.4328 111.469C39.5508 121.238 47.8393 128.908 55.9481 133.02C64.9901 137.602 75.171 138.97 85.2319 138.274C95.8324 137.543 106.441 134.866 115.809 129.881C124.32 125.358 132.112 118.611 135.717 109.614C139.296 100.694 138.174 90.7825 134.509 82.0882C131.067 73.9226 125.322 66.932 118.232 61.4939C111.399 56.2572 103.41 52.6234 95.0446 50.4247C90.4294 49.2078 85.7029 48.4441 80.9421 48.0329C78.4333 47.8147 75.9159 47.714 73.3985 47.7056C72.1398 47.7056 70.864 47.7056 69.6053 47.7811C68.1754 47.8651 66.7454 48.184 65.3326 48.4273C55.2973 50.1729 45.0565 52.7325 36.631 58.607C29.1901 63.8017 23.9499 71.3379 21.4753 79.9566C20.1738 84.5051 19.8313 89.2887 20.071 93.9883C20.3194 98.99 21.2184 103.992 23.008 108.691C26.4416 117.696 32.8207 125.669 40.9722 131.023C44.44 133.297 48.2589 135.085 52.4032 135.739C56.4276 136.377 60.5462 136.285 64.5192 135.378C68.2096 134.531 71.8915 132.886 74.5887 130.209C77.851 126.969 79.2981 122.488 79.8632 118.074C80.4626 113.408 80.0687 108.683 79.8461 104.008C79.6149 99.0907 79.3923 94.1813 79.1782 89.2635C78.7244 78.9495 78.2877 68.6356 77.8254 58.3133C77.6113 53.5465 77.3972 48.7798 77.166 44.0131C77.0633 41.336 72.782 41.3192 72.9105 44.0215Z" fill="black"/>
</svg>
