<svg width="1305" height="161" viewBox="0 0 1305 161" fill="none" xmlns="http://www.w3.org/2000/svg">
<path d="M155.27 66.9219C158.395 67.2734 161.109 67.5469 163.414 67.7422C165.758 67.8984 167.672 67.9766 169.156 67.9766C178.766 67.9766 186.383 66.2773 192.008 62.8789C197.672 59.4805 200.504 54.9492 200.504 49.2852C200.504 43.3086 197.691 38.9141 192.066 36.1016C186.48 33.2891 177.691 31.8828 165.699 31.8828C164.41 31.8828 162.574 31.9414 160.191 32.0586C157.809 32.1367 156.148 32.1953 155.211 32.2344L155.27 66.9219ZM155.27 70.1445L155.211 80.6914C155.211 90.9648 155.777 97.6055 156.91 100.613C158.043 103.621 160.211 105.555 163.414 106.414L163.355 107.352C160.699 107.234 158.18 107.137 155.797 107.059C153.453 107.02 151.305 107 149.352 107C147.359 107 145.328 107.02 143.258 107.059C141.227 107.137 139.156 107.234 137.047 107.352L136.988 106.414C140.035 105.594 142.105 103.875 143.199 101.258C144.332 98.6406 144.898 92.8398 144.898 83.8555V79.9883V38.8555C144.898 36.2773 144.332 34.2461 143.199 32.7617C142.105 31.2773 140.484 30.3789 138.336 30.0664V29.1289C140.797 29.168 143.316 29.207 145.895 29.2461C148.512 29.2461 152.066 29.2461 156.559 29.2461H168.57C184.469 29.2461 195.855 30.8477 202.73 34.0508C209.645 37.2539 213.102 42.4102 213.102 49.5195C213.102 56.082 209.488 61.2773 202.262 65.1055C195.074 68.8945 185.113 70.7891 172.379 70.7891C170.23 70.75 167.809 70.6914 165.113 70.6133C162.457 70.5352 159.176 70.3789 155.27 70.1445ZM278.199 81.2188L280.016 83.6211C277.594 91.9023 273.746 98.1523 268.473 102.371C263.238 106.59 256.637 108.699 248.668 108.699C239.02 108.699 231.109 105.594 224.938 99.3828C218.766 93.1719 215.68 85.2227 215.68 75.5352C215.68 65.9648 218.727 58.1328 224.82 52.0391C230.914 45.9453 238.785 42.8984 248.434 42.8984C256.949 42.8984 263.902 45.1055 269.293 49.5195C274.723 53.9336 277.887 59.9688 278.785 67.625H227.047C226.969 68.7969 226.91 69.9492 226.871 71.082C226.832 72.1758 226.812 73.5039 226.812 75.0664C226.812 84.2852 229.059 91.6094 233.551 97.0391C238.043 102.469 244.039 105.184 251.539 105.184C258.023 105.184 263.512 103.152 268.004 99.0898C272.535 95.0273 275.934 89.0703 278.199 81.2188ZM227.457 65.1055H267.008C266.773 58.9727 264.977 54.1094 261.617 50.5156C258.297 46.8828 253.941 45.0664 248.551 45.0664C243.121 45.0664 238.57 46.8047 234.898 50.2812C231.227 53.7578 228.746 58.6992 227.457 65.1055ZM285.582 107.352V106.414C288.512 105.555 290.523 103.836 291.617 101.258C292.711 98.6797 293.258 93.1133 293.258 84.5586V79.5195V63.582C293.258 57.0977 292.789 53.1523 291.852 51.7461C290.953 50.3398 289.195 49.5977 286.578 49.5195L286.52 48.582C288.629 48.1133 290.914 47.5469 293.375 46.8828C295.836 46.2188 298.629 45.3789 301.754 44.3633L301.52 62.5859C304.137 56.5703 307.301 52 311.012 48.875C314.723 45.7109 318.844 44.1289 323.375 44.1289C324 44.1289 324.488 44.1484 324.84 44.1875C325.191 44.1875 325.504 44.207 325.777 44.2461L321.207 57.4297H320.621C319.84 56.4141 318.961 55.6719 317.984 55.2031C317.008 54.6953 315.914 54.4414 314.703 54.4414C310.758 54.4414 307.73 56.2969 305.621 60.0078C303.551 63.6797 302.516 69.0312 302.516 76.0625V83.0938C302.516 92.625 303.043 98.6797 304.098 101.258C305.152 103.797 307.184 105.516 310.191 106.414L310.133 107.352C308.023 107.234 305.934 107.137 303.863 107.059C301.832 107.02 299.82 107 297.828 107C296.148 107 294.293 107.02 292.262 107.059C290.23 107.137 288.004 107.234 285.582 107.352ZM328.941 103.016L333.043 89.4805H333.629C334.215 94.5195 336.715 98.5625 341.129 101.609C345.582 104.656 351.168 106.18 357.887 106.18C363.629 106.18 368.238 104.773 371.715 101.961C375.191 99.1484 376.93 95.4766 376.93 90.9453C376.93 87.1562 375.816 84.3828 373.59 82.625C371.363 80.8672 366.012 79.4414 357.535 78.3477C349.02 77.2148 342.828 75.2812 338.961 72.5469C335.094 69.7734 333.16 65.9844 333.16 61.1797C333.16 55.9062 335.758 51.5312 340.953 48.0547C346.188 44.5391 352.906 42.7812 361.109 42.7812C365.602 42.7812 369.801 43.1328 373.707 43.8359C377.652 44.5 381.207 45.4766 384.371 46.7656L381.031 58.3086H380.211C379 53.8945 376.852 50.5742 373.766 48.3477C370.719 46.082 366.773 44.9492 361.93 44.9492C356.617 44.9492 352.242 46.2969 348.805 48.9922C345.406 51.6875 343.707 55.0664 343.707 59.1289C343.707 62.4102 344.898 64.8516 347.281 66.4531C349.703 68.0547 355.035 69.3242 363.277 70.2617C372.652 71.3164 379.156 73.0938 382.789 75.5938C386.422 78.0547 388.238 81.7266 388.238 86.6094C388.238 93.2891 385.387 98.6406 379.684 102.664C373.98 106.688 366.227 108.699 356.422 108.699C351.344 108.699 346.52 108.23 341.949 107.293C337.418 106.355 333.082 104.93 328.941 103.016ZM409.156 75.1836C409.156 84.9492 411.188 92.5273 415.25 97.918C419.312 103.27 425.016 105.945 432.359 105.945C439.703 105.945 445.348 103.309 449.293 98.0352C453.277 92.7227 455.27 85.1445 455.27 75.3008C455.27 65.6523 453.238 58.1719 449.176 52.8594C445.152 47.5078 439.508 44.832 432.242 44.832C424.977 44.832 419.312 47.5078 415.25 52.8594C411.188 58.1719 409.156 65.6133 409.156 75.1836ZM398.023 75.0664C398.023 65.6133 401.207 57.8984 407.574 51.9219C413.98 45.9062 422.242 42.8984 432.359 42.8984C442.477 42.8984 450.68 45.9258 456.969 51.9805C463.258 58.0352 466.402 65.9258 466.402 75.6523C466.402 85.457 463.258 93.3867 456.969 99.4414C450.68 105.457 442.34 108.465 431.949 108.465C421.91 108.465 413.746 105.379 407.457 99.207C401.168 93.0352 398.023 84.9883 398.023 75.0664ZM473.082 107.352V106.414C475.973 105.516 477.945 103.758 479 101.141C480.094 98.4844 480.641 92.6445 480.641 83.6211V79.5195V62.4688C480.641 57 480.172 53.5625 479.234 52.1562C478.336 50.75 476.656 49.9492 474.195 49.7539L474.137 48.9336C476.793 48.2695 479.332 47.5664 481.754 46.8242C484.176 46.082 486.52 45.3008 488.785 44.4805V62.4688C490.426 56.0234 493.414 51.1602 497.75 47.8789C502.086 44.5586 507.691 42.8984 514.566 42.8984C519.137 42.8984 523.238 43.8164 526.871 45.6523C530.504 47.4492 533.336 49.9688 535.367 53.2109C536.734 55.4766 537.711 58.3477 538.297 61.8242C538.883 65.2617 539.176 70.3594 539.176 77.1172V81.9219C539.176 92.2344 539.703 98.6797 540.758 101.258C541.812 103.836 543.805 105.555 546.734 106.414V107.352C544.43 107.234 542.262 107.137 540.23 107.059C538.199 107.02 536.285 107 534.488 107C533.277 107 531.676 107.02 529.684 107.059C527.691 107.137 525.309 107.234 522.535 107.352V106.414C525.387 105.555 527.359 103.836 528.453 101.258C529.547 98.6797 530.094 93.1133 530.094 84.5586V79.5195V77.1172C530.094 66.4531 528.629 58.6797 525.699 53.7969C522.77 48.875 518.141 46.4141 511.812 46.4141C504.547 46.4141 499.039 49.0117 495.289 54.207C491.578 59.3633 489.723 67 489.723 77.1172V82.9766C489.723 92.625 490.23 98.7188 491.246 101.258C492.301 103.797 494.273 105.516 497.164 106.414V107.352C495.016 107.234 492.926 107.137 490.895 107.059C488.902 107.02 486.93 107 484.977 107C483.648 107 481.988 107.02 479.996 107.059C478.043 107.137 475.738 107.234 473.082 107.352ZM618.219 107.234C618.141 107.234 618.023 107.234 617.867 107.234C613.609 107.078 610.523 107 608.609 107H605.387C604.371 105.203 603.492 103.348 602.75 101.434C602.047 99.5195 601.48 97.5273 601.051 95.457C598.707 99.7539 595.504 103.016 591.441 105.242C587.379 107.469 582.594 108.582 577.086 108.582C569.547 108.582 563.57 106.805 559.156 103.25C554.781 99.6953 552.594 94.9102 552.594 88.8945C552.594 82.2148 556.48 77.1562 564.254 73.7188C572.027 70.2422 583.414 68.5039 598.414 68.5039L601.402 68.4453C601.207 60.4375 599.508 54.5391 596.305 50.75C593.102 46.9609 588.199 45.0664 581.598 45.0664C575.504 45.0664 570.582 46.4727 566.832 49.2852C563.082 52.0586 560.738 56.0625 559.801 61.2969H559.156L555.465 49.0508C559.371 46.9414 563.57 45.3789 568.062 44.3633C572.594 43.3086 577.398 42.7812 582.477 42.7812C587.477 42.7812 591.91 43.4258 595.777 44.7148C599.684 46.0039 602.809 47.8398 605.152 50.2227C607.105 52.2539 608.492 54.6953 609.312 57.5469C610.133 60.3594 610.543 64.9688 610.543 71.375V79.9883C610.543 89.9102 611.09 96.6094 612.184 100.086C613.316 103.562 615.328 105.672 618.219 106.414V107.234ZM601.402 71.0234C600.816 70.9844 600.152 70.9648 599.41 70.9648C598.707 70.9258 597.652 70.9062 596.246 70.9062C585.777 70.9062 577.691 72.5469 571.988 75.8281C566.324 79.0703 563.492 83.6992 563.492 89.7148C563.492 94.4023 565.016 98.1523 568.062 100.965C571.109 103.777 575.152 105.184 580.191 105.184C586.793 105.184 591.969 103.094 595.719 98.9141C599.508 94.6953 601.402 88.875 601.402 81.4531V74.9492V71.0234ZM621.207 107.352V106.414C624.215 105.477 626.285 103.562 627.418 100.672C628.551 97.7812 629.117 91.4141 629.117 81.5703V77.3516V37.625C629.117 32.1563 628.648 28.6992 627.711 27.2539C626.812 25.8086 625.035 25.0273 622.379 24.9102V23.9727C624.957 23.6602 627.574 23.1523 630.23 22.4492C632.926 21.707 635.797 20.7305 638.844 19.5195C638.648 22.0977 638.512 25.0859 638.434 28.4844C638.355 31.8828 638.316 35.9844 638.316 40.7891V80.9844C638.316 91.2969 638.863 97.8789 639.957 100.73C641.09 103.543 643.199 105.438 646.285 106.414L646.227 107.352C644.195 107.234 642.105 107.137 639.957 107.059C637.809 107.02 635.641 107 633.453 107C630.719 107 628.434 107.02 626.598 107.059C624.762 107.137 622.965 107.234 621.207 107.352ZM707.926 66.9219C711.051 67.2734 713.766 67.5469 716.07 67.7422C718.414 67.8984 720.328 67.9766 721.812 67.9766C731.422 67.9766 739.039 66.2773 744.664 62.8789C750.328 59.4805 753.16 54.9492 753.16 49.2852C753.16 43.3086 750.348 38.9141 744.723 36.1016C739.137 33.2891 730.348 31.8828 718.355 31.8828C717.066 31.8828 715.23 31.9414 712.848 32.0586C710.465 32.1367 708.805 32.1953 707.867 32.2344L707.926 66.9219ZM707.926 70.1445L707.867 80.6914C707.867 90.9648 708.434 97.6055 709.566 100.613C710.699 103.621 712.867 105.555 716.07 106.414L716.012 107.352C713.355 107.234 710.836 107.137 708.453 107.059C706.109 107.02 703.961 107 702.008 107C700.016 107 697.984 107.02 695.914 107.059C693.883 107.137 691.812 107.234 689.703 107.352L689.645 106.414C692.691 105.594 694.762 103.875 695.855 101.258C696.988 98.6406 697.555 92.8398 697.555 83.8555V79.9883V38.8555C697.555 36.2773 696.988 34.2461 695.855 32.7617C694.762 31.2773 693.141 30.3789 690.992 30.0664V29.1289C693.453 29.168 695.973 29.207 698.551 29.2461C701.168 29.2461 704.723 29.2461 709.215 29.2461H721.227C737.125 29.2461 748.512 30.8477 755.387 34.0508C762.301 37.2539 765.758 42.4102 765.758 49.5195C765.758 56.082 762.145 61.2773 754.918 65.1055C747.73 68.8945 737.77 70.7891 725.035 70.7891C722.887 70.75 720.465 70.6914 717.77 70.6133C715.113 70.5352 711.832 70.3789 707.926 70.1445ZM779.469 75.1836C779.469 84.9492 781.5 92.5273 785.562 97.918C789.625 103.27 795.328 105.945 802.672 105.945C810.016 105.945 815.66 103.309 819.605 98.0352C823.59 92.7227 825.582 85.1445 825.582 75.3008C825.582 65.6523 823.551 58.1719 819.488 52.8594C815.465 47.5078 809.82 44.832 802.555 44.832C795.289 44.832 789.625 47.5078 785.562 52.8594C781.5 58.1719 779.469 65.6133 779.469 75.1836ZM768.336 75.0664C768.336 65.6133 771.52 57.8984 777.887 51.9219C784.293 45.9062 792.555 42.8984 802.672 42.8984C812.789 42.8984 820.992 45.9258 827.281 51.9805C833.57 58.0352 836.715 65.9258 836.715 75.6523C836.715 85.457 833.57 93.3867 827.281 99.4414C820.992 105.457 812.652 108.465 802.262 108.465C792.223 108.465 784.059 105.379 777.77 99.207C771.48 93.0352 768.336 84.9883 768.336 75.0664ZM843.512 107.352V106.414C846.441 105.555 848.453 103.836 849.547 101.258C850.641 98.6797 851.188 93.1133 851.188 84.5586V79.5195V63.582C851.188 57.0977 850.719 53.1523 849.781 51.7461C848.883 50.3398 847.125 49.5977 844.508 49.5195L844.449 48.582C846.559 48.1133 848.844 47.5469 851.305 46.8828C853.766 46.2188 856.559 45.3789 859.684 44.3633L859.449 62.5859C862.066 56.5703 865.23 52 868.941 48.875C872.652 45.7109 876.773 44.1289 881.305 44.1289C881.93 44.1289 882.418 44.1484 882.77 44.1875C883.121 44.1875 883.434 44.207 883.707 44.2461L879.137 57.4297H878.551C877.77 56.4141 876.891 55.6719 875.914 55.2031C874.938 54.6953 873.844 54.4414 872.633 54.4414C868.688 54.4414 865.66 56.2969 863.551 60.0078C861.48 63.6797 860.445 69.0312 860.445 76.0625V83.0938C860.445 92.625 860.973 98.6797 862.027 101.258C863.082 103.797 865.113 105.516 868.121 106.414L868.062 107.352C865.953 107.234 863.863 107.137 861.793 107.059C859.762 107.02 857.75 107 855.758 107C854.078 107 852.223 107.02 850.191 107.059C848.16 107.137 845.934 107.234 843.512 107.352ZM886.168 50.8672L886.871 49.0508C890.738 47.918 894.039 45.8867 896.773 42.957C899.547 39.9883 902.281 35.418 904.977 29.2461H905.914C905.758 31.5508 905.621 34.1875 905.504 37.1562C905.387 40.0859 905.309 43.3672 905.27 47H918.219V47.8203L916.988 50.8672H905.094L905.387 78.6992C905.465 89.6367 906.129 96.8047 907.379 100.203C908.668 103.562 911.031 105.633 914.469 106.414V107.234C912.047 107.195 909.234 107.137 906.031 107.059C902.867 107.02 901.012 107 900.465 107C898.785 105.945 897.613 104.52 896.949 102.723C896.324 100.926 896.012 97.3125 896.012 91.8828V85.2617C896.012 85.1836 896.012 84.9492 896.012 84.5586C896.09 83.1523 896.129 81.9219 896.129 80.8672L896.598 50.8672H886.168ZM932.223 50.9844H922.379V50.2227L923.785 47H932.223V45.1836C932.223 37.2148 934.391 30.9648 938.727 26.4336C943.102 21.9023 949.117 19.6367 956.773 19.6367C957.555 19.6367 958.414 19.6758 959.352 19.7539C960.328 19.793 961.344 19.8711 962.398 19.9883L958.59 31.1797H957.887C956.871 28.5625 955.699 26.5703 954.371 25.2031C953.043 23.7969 951.617 23.0938 950.094 23.0938C947.164 23.0938 944.977 24.207 943.531 26.4336C942.125 28.6211 941.422 31.9609 941.422 36.4531V47H954.254V47.8203L952.965 50.9844H941.422V80.9844C941.422 91.4922 941.949 98.1328 943.004 100.906C944.059 103.68 946.051 105.516 948.98 106.414V107.352C947.418 107.234 945.719 107.137 943.883 107.059C942.086 107.02 939.508 107 936.148 107C933.297 107 931.031 107.02 929.352 107.059C927.672 107.137 926.07 107.234 924.547 107.352L924.488 106.414C927.418 105.477 929.43 103.621 930.523 100.848C931.656 98.0742 932.223 92.3711 932.223 83.7383V77.3516V50.9844ZM971.891 75.1836C971.891 84.9492 973.922 92.5273 977.984 97.918C982.047 103.27 987.75 105.945 995.094 105.945C1002.44 105.945 1008.08 103.309 1012.03 98.0352C1016.01 92.7227 1018 85.1445 1018 75.3008C1018 65.6523 1015.97 58.1719 1011.91 52.8594C1007.89 47.5078 1002.24 44.832 994.977 44.832C987.711 44.832 982.047 47.5078 977.984 52.8594C973.922 58.1719 971.891 65.6133 971.891 75.1836ZM960.758 75.0664C960.758 65.6133 963.941 57.8984 970.309 51.9219C976.715 45.9062 984.977 42.8984 995.094 42.8984C1005.21 42.8984 1013.41 45.9258 1019.7 51.9805C1025.99 58.0352 1029.14 65.9258 1029.14 75.6523C1029.14 85.457 1025.99 93.3867 1019.7 99.4414C1013.41 105.457 1005.07 108.465 994.684 108.465C984.645 108.465 976.48 105.379 970.191 99.207C963.902 93.0352 960.758 84.9883 960.758 75.0664ZM1035.46 107.352V106.414C1038.47 105.477 1040.54 103.562 1041.68 100.672C1042.81 97.7812 1043.38 91.4141 1043.38 81.5703V77.3516V37.625C1043.38 32.1563 1042.91 28.6992 1041.97 27.2539C1041.07 25.8086 1039.29 25.0273 1036.64 24.9102V23.9727C1039.21 23.6602 1041.83 23.1523 1044.49 22.4492C1047.18 21.707 1050.05 20.7305 1053.1 19.5195C1052.91 22.0977 1052.77 25.0859 1052.69 28.4844C1052.61 31.8828 1052.57 35.9844 1052.57 40.7891V80.9844C1052.57 91.2969 1053.12 97.8789 1054.21 100.73C1055.35 103.543 1057.46 105.438 1060.54 106.414L1060.48 107.352C1058.45 107.234 1056.36 107.137 1054.21 107.059C1052.07 107.02 1049.9 107 1047.71 107C1044.98 107 1042.69 107.02 1040.86 107.059C1039.02 107.137 1037.22 107.234 1035.46 107.352ZM1064.53 107.352V106.414C1067.5 105.516 1069.53 103.641 1070.62 100.789C1071.75 97.8984 1072.32 91.9609 1072.32 82.9766V73.543V60.8281C1072.32 56.1016 1071.85 53.0742 1070.91 51.7461C1070.02 50.3789 1068.3 49.6367 1065.76 49.5195L1065.7 48.582C1067.89 48.3086 1070.23 47.8398 1072.73 47.1758C1075.27 46.4727 1078.38 45.457 1082.05 44.1289C1081.89 47.3711 1081.77 50.6133 1081.7 53.8555C1081.62 57.0977 1081.58 60.3398 1081.58 63.582V71.0234V80.1055C1081.58 90.8086 1082.12 97.6445 1083.22 100.613C1084.31 103.582 1086.4 105.516 1089.49 106.414V107.352C1087.85 107.234 1086.11 107.137 1084.27 107.059C1082.44 107.02 1079.94 107 1076.77 107C1074.35 107 1072.18 107.02 1070.27 107.059C1068.39 107.137 1066.48 107.234 1064.53 107.352ZM1070.74 29.3633C1070.74 27.7227 1071.29 26.3555 1072.38 25.2617C1073.47 24.168 1074.86 23.6211 1076.54 23.6211C1078.18 23.6211 1079.57 24.1875 1080.7 25.3203C1081.83 26.4141 1082.4 27.7617 1082.4 29.3633C1082.4 30.9648 1081.83 32.3125 1080.7 33.4062C1079.57 34.4609 1078.18 34.9883 1076.54 34.9883C1074.78 34.9883 1073.38 34.4805 1072.32 33.4648C1071.27 32.4102 1070.74 31.043 1070.74 29.3633ZM1107.12 75.1836C1107.12 84.9492 1109.16 92.5273 1113.22 97.918C1117.28 103.27 1122.98 105.945 1130.33 105.945C1137.67 105.945 1143.32 103.309 1147.26 98.0352C1151.25 92.7227 1153.24 85.1445 1153.24 75.3008C1153.24 65.6523 1151.21 58.1719 1147.14 52.8594C1143.12 47.5078 1137.48 44.832 1130.21 44.832C1122.95 44.832 1117.28 47.5078 1113.22 52.8594C1109.16 58.1719 1107.12 65.6133 1107.12 75.1836ZM1095.99 75.0664C1095.99 65.6133 1099.18 57.8984 1105.54 51.9219C1111.95 45.9062 1120.21 42.8984 1130.33 42.8984C1140.45 42.8984 1148.65 45.9258 1154.94 51.9805C1161.23 58.0352 1164.37 65.9258 1164.37 75.6523C1164.37 85.457 1161.23 93.3867 1154.94 99.4414C1148.65 105.457 1140.31 108.465 1129.92 108.465C1119.88 108.465 1111.71 105.379 1105.43 99.207C1099.14 93.0352 1095.99 84.9883 1095.99 75.0664Z" fill="black"/>
<path d="M885.16 123.2C885.16 122.347 885.16 121.52 885.16 120.72C885.213 119.92 885.24 119.093 885.24 118.24C885.24 117.973 885.24 117.84 885.24 117.84C885.24 117.787 885.267 117.68 885.32 117.52C884.733 117.307 884.067 117.013 883.32 116.64C882.627 116.267 882.04 115.893 881.56 115.52C880.493 114.72 879.667 113.787 879.08 112.72C878.493 111.6 878.013 110.427 877.64 109.2C877.373 108.133 877.24 107.067 877.24 106C877.24 104.933 877.293 103.867 877.4 102.8C877.507 101.733 877.72 100.72 878.04 99.76C878.36 98.7467 878.733 97.76 879.16 96.8C880.173 94.1867 881.667 91.8667 883.64 89.84C885.773 87.6 888.307 85.9733 891.24 84.96C892.733 84.4267 894.253 84.0533 895.8 83.84C897.347 83.6267 898.893 83.6 900.44 83.76C902.307 83.92 904.093 84.2933 905.8 84.88C907.56 85.4133 909.213 86.2667 910.76 87.44C913.8 89.84 915.64 92.88 916.28 96.56C916.707 99.0667 916.76 101.44 916.44 103.68C916.173 106.08 915.72 108.453 915.08 110.8C914.44 113.147 913.64 115.44 912.68 117.68C911.08 121.36 909 124.72 906.44 127.76C904.52 130.053 902.44 132.107 900.2 133.92C899.4 134.56 898.6 135.173 897.8 135.76C897 136.4 896.147 137.013 895.24 137.6C894.28 138.187 893.293 138.747 892.28 139.28C891.267 139.813 890.2 140.187 889.08 140.4C887.373 140.72 885.747 140.747 884.2 140.48C882.653 140.213 881.16 139.52 879.72 138.4C878.653 137.707 877.853 136.667 877.32 135.28C877.213 135.067 877.133 134.747 877.08 134.32C877.027 133.893 877.133 133.627 877.4 133.52C877.667 133.413 877.907 133.36 878.12 133.36C878.387 133.36 878.627 133.493 878.84 133.76C879.053 133.92 879.24 134.08 879.4 134.24C879.56 134.453 879.72 134.667 879.88 134.88C879.987 134.987 880.013 135.12 879.96 135.28C879.907 135.44 879.8 135.547 879.64 135.6C879.373 135.653 879.24 135.68 879.24 135.68C879.24 135.733 879.293 135.867 879.4 136.08C880.147 137.147 881 137.92 881.96 138.4C882.92 138.933 884.013 139.28 885.24 139.44C886.573 139.6 887.827 139.52 889 139.2C890.173 138.88 891.347 138.4 892.52 137.76C894.707 136.533 896.707 135.147 898.52 133.6C900.333 132 902.067 130.293 903.72 128.48C906.92 124.8 909.4 120.667 911.16 116.08C911.747 114.533 912.253 112.96 912.68 111.36C913.107 109.707 913.507 108.08 913.88 106.48C913.987 105.893 914.04 105.333 914.04 104.8C914.093 104.267 914.147 103.707 914.2 103.12C914.253 102.533 914.307 101.973 914.36 101.44C914.467 100.907 914.493 100.347 914.44 99.76C914.333 98.5333 914.147 97.3067 913.88 96.08C913.667 94.8533 913.267 93.6533 912.68 92.48C911.88 90.9867 910.893 89.7333 909.72 88.72C908.547 87.6533 907.213 86.7733 905.72 86.08C904.173 85.3333 902.573 84.88 900.92 84.72C899.32 84.56 897.72 84.5867 896.12 84.8C893.133 85.12 890.387 86.24 887.88 88.16C885.64 89.8133 883.88 91.7333 882.6 93.92C881.32 96.0533 880.36 98.4533 879.72 101.12C879.507 102.027 879.347 102.933 879.24 103.84C879.133 104.747 879.133 105.653 879.24 106.56C879.4 108.107 879.72 109.6 880.2 111.04C880.733 112.427 881.613 113.653 882.84 114.72C883 114.88 883.213 115.067 883.48 115.28C883.747 115.44 884.013 115.6 884.28 115.76C884.6 115.92 884.867 116.053 885.08 116.16C885.293 116.267 885.4 116.32 885.4 116.32C885.453 115.573 885.48 114.747 885.48 113.84C885.533 112.933 885.613 112.107 885.72 111.36C885.827 110.453 885.933 109.573 886.04 108.72C886.2 107.813 886.333 106.907 886.44 106C886.547 105.307 886.627 104.64 886.68 104C886.787 103.307 886.893 102.613 887 101.92C887 101.653 887.08 101.36 887.24 101.04C887.347 100.773 887.587 100.587 887.96 100.48C888.333 100.373 888.627 100.427 888.84 100.64C888.947 100.747 889 100.88 889 101.04L888.76 102.96C888.707 103.227 888.68 103.52 888.68 103.84C888.733 104.107 888.627 104.373 888.36 104.64C888.2 104.747 888.12 104.933 888.12 105.2C888.12 105.467 888.093 105.733 888.04 106L887.8 109.12C887.693 109.92 887.587 110.747 887.48 111.6C887.427 112.4 887.373 113.227 887.32 114.08C887.267 114.507 887.213 114.987 887.16 115.52C887.16 116.053 887.16 116.507 887.16 116.88C887.267 116.933 887.453 116.96 887.72 116.96C888.147 117.013 888.547 117.067 888.92 117.12C889.293 117.173 889.667 117.147 890.04 117.04C891.267 116.933 892.413 116.667 893.48 116.24C894.547 115.76 895.587 115.227 896.6 114.64C897.24 114.267 897.88 113.813 898.52 113.28C899 112.907 899.427 112.48 899.8 112C899.96 111.733 899.933 111.52 899.72 111.36C899.56 111.2 899.507 111.093 899.56 111.04C899.667 110.987 899.773 110.907 899.88 110.8C900.413 110.64 900.893 110.747 901.32 111.12C901.587 111.44 901.587 111.84 901.32 112.32C901 112.853 900.627 113.307 900.2 113.68C899.773 114 899.347 114.32 898.92 114.64C898.067 115.173 897.213 115.68 896.36 116.16C895.507 116.587 894.627 116.933 893.72 117.2C892.973 117.467 892.227 117.68 891.48 117.84C890.733 117.947 889.96 117.973 889.16 117.92H887.48H887.08C887.027 117.92 887 117.893 887 117.84C886.893 119.387 886.787 121.04 886.68 122.8C886.627 124.507 886.653 126.133 886.76 127.68C886.867 128.853 887.027 129.947 887.24 130.96C887.453 131.867 887.773 132.667 888.2 133.36C888.68 134 889.373 134.507 890.28 134.88C890.333 134.933 890.387 134.96 890.44 134.96C890.547 134.96 890.573 135.013 890.52 135.12C890.52 135.333 890.413 135.44 890.2 135.44C889.933 135.493 889.64 135.467 889.32 135.36C887.667 134.987 886.547 133.973 885.96 132.32C885.533 131.04 885.267 129.653 885.16 128.16C885.107 127.307 885.08 126.48 885.08 125.68C885.133 124.88 885.16 124.053 885.16 123.2ZM946.603 132.72C945.483 132.72 944.31 132.613 943.083 132.4C941.91 132.133 940.63 131.787 939.243 131.36C936.683 130.453 934.896 128.88 933.883 126.64C933.723 126.373 933.59 126.107 933.483 125.84C933.43 125.573 933.323 125.307 933.163 125.04C933.003 125.147 932.79 125.307 932.523 125.52C932.31 125.733 932.07 125.973 931.803 126.24C931.056 126.88 930.176 127.547 929.163 128.24C927.936 129.04 926.656 129.44 925.323 129.44C924.523 129.44 923.723 129.36 922.923 129.2C922.123 128.987 921.403 128.507 920.763 127.76C920.71 127.707 920.63 127.6 920.523 127.44C920.416 127.227 920.31 126.907 920.203 126.48C920.15 126.053 920.15 125.467 920.203 124.72C920.203 123.92 920.283 122.907 920.443 121.68C920.55 120.987 920.71 120.32 920.923 119.68C921.136 118.987 921.376 118.347 921.643 117.76C921.75 117.493 921.936 117.28 922.203 117.12C922.47 116.907 922.763 116.8 923.083 116.8C923.296 116.8 923.563 116.853 923.883 116.96C923.883 117.013 923.883 117.093 923.883 117.2C923.936 117.253 923.963 117.333 923.963 117.44C923.696 118.507 923.456 119.547 923.243 120.56C923.03 121.573 922.816 122.613 922.603 123.68C922.39 124.64 922.336 125.467 922.443 126.16C922.55 126.8 922.976 127.333 923.723 127.76C924.683 128.24 925.616 128.347 926.523 128.08C927.483 127.76 928.363 127.253 929.163 126.56C929.963 125.867 930.683 125.067 931.323 124.16C931.963 123.2 932.47 122.293 932.843 121.44C932.95 121.227 933.056 120.907 933.163 120.48C933.216 120.107 933.35 119.733 933.563 119.36C933.67 119.253 933.856 119.147 934.123 119.04C934.39 118.88 934.656 118.8 934.923 118.8C935.136 118.8 935.296 118.853 935.403 118.96C935.616 119.173 935.696 119.44 935.643 119.76V122.72V123.12C935.75 127.067 937.563 129.653 941.083 130.88C942.683 131.413 944.47 131.68 946.443 131.68C948.203 131.68 949.856 131.44 951.403 130.96C953.11 130.427 954.71 129.867 956.203 129.28C957.75 128.693 959.376 127.947 961.083 127.04L962.283 126.4C963.723 125.653 965.11 124.987 966.443 124.4C967.776 123.76 969.27 123.28 970.923 122.96C971.296 122.907 971.51 122.907 971.563 122.96C971.67 123.013 971.696 123.093 971.643 123.2C971.59 123.307 971.483 123.44 971.323 123.6C971.163 123.707 971.003 123.787 970.843 123.84C968.336 124.747 965.75 125.947 963.083 127.44C961.59 128.293 959.99 129.013 958.283 129.6C956.63 130.187 954.95 130.773 953.243 131.36L952.043 131.76C950.176 132.4 948.363 132.72 946.603 132.72ZM973.496 131.76C973.23 131.76 972.83 131.733 972.296 131.68C971.816 131.627 971.31 131.52 970.776 131.36C970.296 131.147 969.843 130.853 969.416 130.48C968.99 130.107 968.696 129.6 968.536 128.96C968.376 128.213 968.376 127.307 968.536 126.24C968.696 125.173 969.123 124.107 969.816 123.04C972.163 119.307 974.643 116.987 977.256 116.08C978.056 115.76 978.91 115.6 979.816 115.6C981.203 115.6 982.403 116 983.416 116.8C984.43 117.6 985.07 118.693 985.336 120.08C985.496 120.72 985.47 121.333 985.256 121.92C985.096 122.507 984.883 123.093 984.616 123.68L984.296 124.48C984.136 124.8 983.976 125.093 983.816 125.36C983.656 125.573 983.523 125.813 983.416 126.08C983.683 126.24 983.976 126.373 984.296 126.48C984.67 126.533 985.043 126.587 985.416 126.64C986.91 126.907 988.43 127.04 989.976 127.04C992.11 127.04 993.896 126.853 995.336 126.48L997.096 126C998.643 125.573 1000 125.2 1001.18 124.88C1002.4 124.507 1003.82 123.947 1005.42 123.2C1005.9 122.987 1006.27 122.88 1006.54 122.88C1006.7 122.987 1006.7 123.173 1006.54 123.44C1006.43 123.653 1006.14 123.893 1005.66 124.16C1004.11 124.96 1001.15 125.92 996.776 127.04C994.163 127.733 991.71 128.08 989.416 128.08C988.936 128.08 988.323 128.053 987.576 128C986.83 127.893 986.056 127.813 985.256 127.76C984.51 127.653 983.816 127.573 983.176 127.52C982.59 127.413 982.216 127.333 982.056 127.28C981.15 128.187 980.056 129.067 978.776 129.92C977.496 130.773 976.19 131.333 974.856 131.6C974.696 131.707 974.483 131.76 974.216 131.76C974.003 131.76 973.763 131.76 973.496 131.76ZM973.256 123.04C972.936 123.253 972.643 123.52 972.376 123.84C972.163 124.16 972.003 124.453 971.896 124.72C971.736 125.093 971.603 125.44 971.496 125.76C971.443 126.08 971.39 126.347 971.336 126.56L971.256 126.88C971.096 128.373 971.283 129.413 971.816 130C972.19 130.48 972.723 130.72 973.416 130.72C973.95 130.72 974.536 130.56 975.176 130.24C975.923 129.867 976.59 129.44 977.176 128.96C977.763 128.48 978.35 128 978.936 127.52C979.15 127.36 979.336 127.227 979.496 127.12C979.656 126.96 979.79 126.827 979.896 126.72C979.736 126.72 979.496 126.667 979.176 126.56C978.91 126.4 978.696 126.267 978.536 126.16L977.736 125.84C977.096 125.573 976.43 125.253 975.736 124.88C975.096 124.507 974.536 124.027 974.056 123.44L973.496 122.88L973.256 123.04ZM980.056 117.2C979.63 117.2 979.096 117.333 978.456 117.6C977.07 118.293 976.083 119.467 975.496 121.12C975.39 121.28 975.47 121.573 975.736 122C976.056 122.373 976.35 122.747 976.616 123.12C977.736 124.293 979.016 125.093 980.456 125.52L980.776 125.6L980.936 125.36C981.843 124.133 982.456 122.933 982.776 121.76L982.856 121.36C982.91 120.72 982.883 120.187 982.776 119.76C982.67 119.333 982.376 118.827 981.896 118.24C981.31 117.547 980.696 117.2 980.056 117.2ZM1028.32 133.92C1026.93 133.92 1025.68 133.68 1024.56 133.2C1023.76 132.88 1023.01 132.32 1022.32 131.52C1021.63 130.667 1021.04 129.653 1020.56 128.48C1020.13 127.253 1019.84 125.893 1019.68 124.4C1019.52 122.853 1019.57 121.227 1019.84 119.52C1019.89 119.253 1019.95 119.013 1020 118.8C1020.05 118.587 1020.13 118.347 1020.24 118.08C1020.29 117.92 1020.35 117.76 1020.4 117.6C1020.45 117.44 1020.51 117.28 1020.56 117.12C1020.56 117.067 1020.59 116.933 1020.64 116.72C1020.69 116.453 1020.69 116.24 1020.64 116.08C1020.64 115.867 1020.51 115.76 1020.24 115.76C1020.03 115.76 1019.65 115.947 1019.12 116.32L1018.48 117.04C1018.11 117.413 1017.73 117.787 1017.36 118.16C1017.04 118.533 1016.75 118.933 1016.48 119.36C1016.05 120.053 1015.63 120.747 1015.2 121.44C1014.77 122.133 1014.35 122.853 1013.92 123.6L1012.88 125.44C1011.97 126.987 1010.91 127.76 1009.68 127.76C1008.83 127.76 1007.92 127.36 1006.96 126.56C1006.69 126.347 1006.4 126.027 1006.08 125.6C1005.81 125.173 1005.57 124.747 1005.36 124.32C1005.09 123.893 1004.91 123.493 1004.8 123.12C1004.64 122.747 1004.59 122.48 1004.64 122.32C1004.91 121.52 1005.36 121.093 1006 121.04H1006.48C1007.17 121.04 1007.63 121.36 1007.84 122C1007.89 122.053 1007.92 122.187 1007.92 122.4C1007.92 122.613 1007.92 122.8 1007.92 122.96C1007.97 123.547 1008 124.027 1008 124.4C1008.05 124.72 1008.13 124.96 1008.24 125.12L1008.4 125.28C1008.51 125.547 1008.67 125.813 1008.88 126.08C1009.09 126.293 1009.33 126.4 1009.6 126.4C1009.97 126.4 1010.24 126.187 1010.4 125.76C1010.72 125.12 1011.07 124.507 1011.44 123.92C1011.81 123.28 1012.21 122.667 1012.64 122.08L1013.36 120.96C1014.16 119.733 1014.99 118.56 1015.84 117.44C1016.75 116.32 1017.84 115.387 1019.12 114.64L1019.44 114.48C1019.81 114.213 1020.19 114 1020.56 113.84C1020.99 113.733 1021.33 113.68 1021.6 113.68C1022.08 113.68 1022.48 113.84 1022.8 114.16C1023.12 114.533 1023.23 115.12 1023.12 115.92C1023.01 116.347 1022.91 116.747 1022.8 117.12C1022.75 117.493 1022.67 117.893 1022.56 118.32C1022.19 119.28 1021.97 120.24 1021.92 121.2C1021.76 122.107 1021.63 123.093 1021.52 124.16C1021.47 125.173 1021.52 126.187 1021.68 127.2C1021.95 128.853 1022.77 130.24 1024.16 131.36C1025.55 132.48 1027.12 133.04 1028.88 133.04C1029.15 133.04 1029.39 133.04 1029.6 133.04C1029.81 132.987 1030.05 132.933 1030.32 132.88C1031.71 132.613 1033.12 132.213 1034.56 131.68C1036 131.093 1037.41 130.427 1038.8 129.68C1039.65 129.253 1040.48 128.747 1041.28 128.16C1042.13 127.52 1042.96 126.907 1043.76 126.32C1044.56 125.733 1045.36 125.173 1046.16 124.64C1047.01 124.053 1047.81 123.547 1048.56 123.12C1048.61 123.067 1048.72 123.04 1048.88 123.04C1049.09 123.04 1049.2 123.093 1049.2 123.2C1049.25 123.307 1049.2 123.493 1049.04 123.76C1048.88 123.973 1048.53 124.32 1048 124.8C1047.41 125.28 1046.72 125.787 1045.92 126.32C1045.17 126.853 1044.4 127.387 1043.6 127.92C1042.8 128.453 1042 128.96 1041.2 129.44C1040.45 129.867 1039.79 130.24 1039.2 130.56C1037.81 131.307 1036.16 132.053 1034.24 132.8C1032.32 133.547 1030.35 133.92 1028.32 133.92ZM1047.85 151.2C1046.31 151.2 1045.13 150.853 1044.33 150.16C1043.53 149.52 1043 148.453 1042.73 146.96C1042.41 145.36 1042.84 143.92 1044.01 142.64C1044.92 141.68 1045.91 140.88 1046.97 140.24C1048.04 139.653 1049.08 139.173 1050.09 138.8C1051.16 138.427 1052.15 138.133 1053.05 137.92C1054.01 137.707 1054.81 137.547 1055.45 137.44L1055.85 137.36C1056.71 137.147 1057.8 136.96 1059.13 136.8C1060.47 136.64 1061.48 136.533 1062.17 136.48C1062.23 136.267 1062.25 135.76 1062.25 134.96C1062.31 134.16 1062.33 133.6 1062.33 133.28V121.04C1062.33 120.933 1062.28 120.667 1062.17 120.24L1062.09 120L1061.93 119.04L1061.21 120.16L1060.81 120.72L1059.45 122.24C1058.92 122.88 1058.36 123.52 1057.77 124.16C1057.24 124.8 1056.68 125.413 1056.09 126C1054.71 127.227 1053.27 127.84 1051.77 127.84C1051.19 127.84 1050.49 127.707 1049.69 127.44C1048.57 126.96 1048.04 126.267 1048.09 125.36C1048.2 124.773 1048.28 124.213 1048.33 123.68C1048.39 123.147 1048.52 122.64 1048.73 122.16C1049.16 121.36 1049.64 120.507 1050.17 119.6C1050.76 118.693 1051.56 117.893 1052.57 117.2C1054.12 116.133 1055.61 115.6 1057.05 115.6C1057.8 115.6 1058.49 115.707 1059.13 115.92C1059.45 116.027 1059.69 116.08 1059.85 116.08C1060.28 116.08 1060.57 115.947 1060.73 115.68C1060.95 115.36 1061.08 115.12 1061.13 114.96L1061.29 114.32L1061.45 113.68C1061.77 113.147 1062.23 112.88 1062.81 112.88C1063.08 112.88 1063.29 112.907 1063.45 112.96C1064.15 113.173 1064.49 113.68 1064.49 114.48V121.68V124.88V127.04V134.16C1064.49 134.427 1064.49 134.747 1064.49 135.12C1064.49 135.493 1064.47 135.787 1064.41 136C1064.63 136 1064.95 135.92 1065.37 135.76C1065.85 135.653 1066.15 135.547 1066.25 135.44L1067.69 134.88C1069.88 134.027 1072.04 133.12 1074.17 132.16C1076.31 131.147 1078.31 129.84 1080.17 128.24L1080.57 127.92C1081.37 127.173 1082.25 126.4 1083.21 125.6C1084.17 124.747 1084.92 124 1085.45 123.36C1085.56 123.253 1085.69 123.173 1085.85 123.12C1086.07 123.067 1086.2 123.093 1086.25 123.2C1086.31 123.307 1086.28 123.52 1086.17 123.84C1086.07 124.107 1085.77 124.507 1085.29 125.04C1084.49 126 1083.61 126.907 1082.65 127.76C1081.69 128.56 1080.71 129.333 1079.69 130.08C1078.68 130.773 1077.67 131.413 1076.65 132C1075.64 132.533 1074.68 132.987 1073.77 133.36C1072.87 133.733 1071.99 134.08 1071.13 134.4C1070.28 134.72 1069.4 135.04 1068.49 135.36C1068.17 135.467 1067.8 135.573 1067.37 135.68C1066.95 135.84 1066.52 136 1066.09 136.16C1065.67 136.32 1065.29 136.48 1064.97 136.64C1064.65 136.8 1064.44 136.907 1064.33 136.96C1064.23 137.28 1064.07 137.707 1063.85 138.24C1063.69 138.827 1063.56 139.28 1063.45 139.6L1062.81 141.76C1061.43 145.44 1058.95 148 1055.37 149.44C1054.52 149.76 1053.48 150.08 1052.25 150.4C1051.08 150.773 1049.88 151.013 1048.65 151.12C1048.49 151.173 1048.23 151.2 1047.85 151.2ZM1053.37 138.56C1052.52 138.773 1051.56 139.067 1050.49 139.44C1049.48 139.813 1048.52 140.347 1047.61 141.04C1045.75 142.533 1044.73 144.08 1044.57 145.68C1044.52 147.813 1044.97 149.253 1045.93 150C1046.36 150.373 1047.16 150.56 1048.33 150.56C1048.92 150.56 1049.45 150.533 1049.93 150.48C1050.47 150.427 1050.79 150.373 1050.89 150.32C1052.33 149.84 1053.75 149.253 1055.13 148.56C1056.52 147.92 1057.69 146.907 1058.65 145.52C1059.35 144.507 1060.01 143.28 1060.65 141.84C1061.29 140.4 1061.77 139.013 1062.09 137.68V137.44C1060.81 137.547 1059.61 137.68 1058.49 137.84C1057.53 137.947 1056.55 138.053 1055.53 138.16C1054.57 138.32 1053.85 138.453 1053.37 138.56ZM1057.37 116.56C1057.21 116.56 1057 116.587 1056.73 116.64C1056.52 116.693 1056.28 116.773 1056.01 116.88C1055.59 117.147 1055.03 117.547 1054.33 118.08C1053.69 118.56 1053.08 119.173 1052.49 119.92C1051.91 120.667 1051.43 121.547 1051.05 122.56C1050.68 123.573 1050.57 124.72 1050.73 126C1050.84 126.587 1051.29 126.88 1052.09 126.88C1052.63 126.88 1053 126.773 1053.21 126.56C1053.96 125.867 1054.63 125.227 1055.21 124.64C1055.8 124 1056.41 123.253 1057.05 122.4C1057.21 122.24 1057.43 121.947 1057.69 121.52C1057.96 121.093 1058.2 120.64 1058.41 120.16C1058.68 119.68 1058.87 119.2 1058.97 118.72C1059.08 118.187 1059.05 117.733 1058.89 117.36C1058.79 117.2 1058.63 117.04 1058.41 116.88C1058.25 116.72 1057.96 116.613 1057.53 116.56H1057.37ZM1138.54 123.28C1138.54 122.213 1138.51 121.173 1138.46 120.16C1138.46 119.147 1138.48 118.133 1138.54 117.12C1138.59 115.627 1138.62 114.16 1138.62 112.72C1138.67 111.28 1138.75 109.813 1138.86 108.32C1138.91 107.467 1138.94 106.613 1138.94 105.76C1138.99 104.907 1139.07 104.053 1139.18 103.2C1139.34 101.493 1139.5 99.8133 1139.66 98.16C1139.82 96.4533 1139.98 94.7467 1140.14 93.04C1140.19 92.4533 1140.22 91.9467 1140.22 91.52C1140.27 91.04 1140.3 90.72 1140.3 90.56C1140.19 90.6133 1139.92 90.72 1139.5 90.88C1139.07 91.04 1138.56 91.2267 1137.98 91.44C1135.84 92.1867 1133.74 93.0133 1131.66 93.92C1129.63 94.7733 1127.6 95.7333 1125.58 96.8C1125.42 96.9067 1125.23 97.0133 1125.02 97.12C1124.86 97.1733 1124.7 97.2533 1124.54 97.36C1124.32 97.4667 1124.22 97.52 1124.22 97.52C1124.22 97.52 1124.19 97.5467 1124.14 97.6C1123.87 99.4133 1123.5 101.333 1123.02 103.36C1122.54 105.387 1121.98 107.253 1121.34 108.96C1120.64 110.773 1119.82 112.507 1118.86 114.16C1117.95 115.76 1116.8 117.253 1115.42 118.64C1114.51 119.547 1113.55 120.373 1112.54 121.12C1111.52 121.867 1110.35 122.453 1109.02 122.88C1108.32 123.093 1107.66 123.227 1107.02 123.28C1106.32 123.333 1105.6 123.28 1104.86 123.12C1104.11 122.907 1103.52 122.533 1103.1 122C1102.62 121.413 1102.32 120.747 1102.22 120C1102.11 119.093 1102.19 118.24 1102.46 117.44C1102.67 116.587 1102.96 115.76 1103.34 114.96C1103.82 113.84 1104.4 112.773 1105.1 111.76C1105.79 110.747 1106.54 109.787 1107.34 108.88C1108.4 107.707 1109.5 106.587 1110.62 105.52C1111.74 104.4 1112.94 103.387 1114.22 102.48C1116.46 100.88 1118.7 99.36 1120.94 97.92C1121.1 97.8133 1121.26 97.7067 1121.42 97.6C1121.63 97.44 1121.79 97.3067 1121.9 97.2C1122.06 97.0933 1122.19 96.9867 1122.3 96.88C1122.4 95.9733 1122.48 95.12 1122.54 94.32C1122.59 93.6267 1122.62 92.9333 1122.62 92.24C1122.67 91.4933 1122.72 90.88 1122.78 90.4C1122.88 89.4933 1122.91 88.6133 1122.86 87.76C1122.86 86.8533 1122.86 85.9467 1122.86 85.04C1122.91 84.1333 1122.88 83.2533 1122.78 82.4C1122.72 81.5467 1122.56 80.6933 1122.3 79.84C1122.19 79.6267 1122.11 79.4667 1122.06 79.36C1122.06 79.2533 1121.92 79.3333 1121.66 79.6C1121.34 79.9733 1121.04 79.9733 1120.78 79.6C1120.62 79.3333 1120.59 79.04 1120.7 78.72C1120.91 78.1333 1121.34 77.8133 1121.98 77.76C1122.67 77.7067 1123.2 77.92 1123.58 78.4C1123.84 78.8267 1124.06 79.28 1124.22 79.76C1124.38 80.24 1124.51 80.72 1124.62 81.2C1124.88 82.9067 1124.99 84.6133 1124.94 86.32C1124.88 88.0267 1124.86 89.7333 1124.86 91.44C1124.86 91.92 1124.8 92.4 1124.7 92.88C1124.64 93.3067 1124.59 93.76 1124.54 94.24V95.76C1124.96 95.6 1125.39 95.3867 1125.82 95.12C1127.95 94.0533 1130.11 93.0933 1132.3 92.24C1134.48 91.3333 1136.7 90.5067 1138.94 89.76C1141.98 88.7467 1145.1 87.8133 1148.3 86.96C1151.55 86.1067 1154.67 85.3867 1157.66 84.8C1159.36 84.48 1161.04 84.16 1162.7 83.84C1164.4 83.52 1166.11 83.2267 1167.82 82.96C1169.2 82.6933 1170.59 82.5333 1171.98 82.48C1173.42 82.4267 1174.86 82.4267 1176.3 82.48C1176.62 82.5333 1176.94 82.6133 1177.26 82.72C1177.63 82.7733 1177.98 82.88 1178.3 83.04C1178.83 83.2533 1179.07 83.5467 1179.02 83.92C1179.02 84.2933 1178.8 84.6133 1178.38 84.88C1177.95 85.1467 1177.52 85.28 1177.1 85.28C1176.72 85.28 1176.32 85.2533 1175.9 85.2C1175.47 85.0933 1175.23 84.96 1175.18 84.8C1175.12 84.64 1175.34 84.5333 1175.82 84.48H1176.38C1177.02 84.2667 1177.2 84.08 1176.94 83.92C1176.67 83.7067 1176.48 83.5733 1176.38 83.52C1175.47 83.36 1174.54 83.3067 1173.58 83.36C1172.62 83.4133 1171.68 83.4933 1170.78 83.6C1169.87 83.7067 1168.94 83.84 1167.98 84C1167.07 84.16 1166.16 84.32 1165.26 84.48C1163.98 84.7467 1162.67 84.9867 1161.34 85.2C1160.06 85.36 1158.78 85.6 1157.5 85.92C1155.31 86.4533 1153.18 86.9867 1151.1 87.52C1149.02 88.0533 1146.91 88.6133 1144.78 89.2C1144.46 89.3067 1144.03 89.44 1143.5 89.6C1142.96 89.7067 1142.54 89.8133 1142.22 89.92V90.72C1142.11 91.84 1142.03 92.96 1141.98 94.08C1141.98 95.2 1141.92 96.32 1141.82 97.44C1141.71 99.1467 1141.6 100.827 1141.5 102.48C1141.39 104.133 1141.28 105.813 1141.18 107.52C1141.07 108.427 1140.99 109.307 1140.94 110.16C1140.94 111.013 1140.91 111.893 1140.86 112.8C1140.75 114.293 1140.67 115.76 1140.62 117.2C1140.56 118.64 1140.51 120.107 1140.46 121.6C1140.4 122.88 1140.35 124.16 1140.3 125.44C1140.24 126.667 1140.22 127.92 1140.22 129.2C1140.22 129.893 1140.24 130.56 1140.3 131.2C1140.4 131.84 1140.51 132.48 1140.62 133.12C1140.78 134.347 1141.31 135.493 1142.22 136.56C1142.27 136.613 1142.3 136.667 1142.3 136.72C1142.3 136.773 1142.32 136.853 1142.38 136.96C1142.27 136.96 1142.11 137.013 1141.9 137.12C1141.31 137.12 1140.86 136.96 1140.54 136.64C1139.68 135.787 1139.1 134.747 1138.78 133.52C1138.51 132.347 1138.4 131.2 1138.46 130.08C1138.51 128.907 1138.51 127.733 1138.46 126.56V123.28H1138.54ZM1103.98 118.72C1103.98 120.16 1104.38 121.2 1105.18 121.84C1105.92 122.427 1106.91 122.507 1108.14 122.08C1109.2 121.653 1110.16 121.12 1111.02 120.48C1111.87 119.787 1112.67 119.04 1113.42 118.24C1115.28 116.267 1116.78 114.107 1117.9 111.76C1118.7 110.107 1119.36 108.427 1119.9 106.72C1120.43 104.96 1120.88 103.173 1121.26 101.36C1121.31 101.093 1121.34 100.88 1121.34 100.72C1121.39 100.507 1121.44 100.293 1121.5 100.08C1121.6 99.76 1121.66 99.4133 1121.66 99.04C1121.55 99.0933 1121.42 99.1733 1121.26 99.28C1121.1 99.3867 1120.96 99.4667 1120.86 99.52C1120.64 99.6267 1120.46 99.76 1120.3 99.92C1119.07 100.773 1117.84 101.653 1116.62 102.56C1115.39 103.413 1114.22 104.347 1113.1 105.36C1110.22 107.813 1107.84 110.56 1105.98 113.6C1104.91 115.36 1104.24 117.067 1103.98 118.72ZM1169.83 132.48C1167.37 131.68 1165.4 130 1163.91 127.44C1163 125.893 1162.04 125.12 1161.03 125.12C1160.07 125.12 1159.11 125.84 1158.15 127.28C1157.88 127.653 1157.64 128.053 1157.43 128.48C1157.27 128.907 1157.08 129.333 1156.87 129.76L1156.55 130.56L1156.07 131.92L1155.99 132.24C1155.88 132.72 1155.4 132.987 1154.55 133.04C1153.75 133.04 1153.27 132.773 1153.11 132.24L1153.03 131.84C1152.92 131.52 1152.84 131.2 1152.79 130.88C1152.73 130.507 1152.68 130.16 1152.62 129.84C1152.52 126.96 1152.52 124.32 1152.62 121.92C1152.62 121.653 1152.65 121.227 1152.71 120.64C1152.76 120 1152.81 119.307 1152.87 118.56C1152.92 117.813 1152.97 117.067 1153.03 116.32C1153.08 115.573 1153.13 114.907 1153.19 114.32C1153.45 111.6 1153.96 109.2 1154.71 107.12C1155.45 104.987 1156.44 103.067 1157.67 101.36C1159.64 98.6933 1161.91 97.12 1164.47 96.64C1164.73 96.5867 1164.97 96.56 1165.19 96.56C1165.4 96.5067 1165.61 96.48 1165.83 96.48C1167.48 96.48 1169 97.0933 1170.39 98.32C1171.29 99.12 1171.67 100.293 1171.51 101.84C1171.24 103.6 1170.6 105.147 1169.59 106.48C1168.57 107.813 1167.59 109.093 1166.63 110.32C1165.83 111.333 1164.92 112.267 1163.91 113.12C1162.95 113.973 1161.93 114.747 1160.87 115.44C1159.85 116.133 1158.87 116.773 1157.9 117.36C1156.95 117.893 1156.09 118.373 1155.35 118.8C1155.29 119.067 1155.24 119.387 1155.19 119.76C1155.19 120.08 1155.21 120.453 1155.26 120.88C1155.32 121.413 1155.32 121.947 1155.26 122.48C1155.26 122.96 1155.26 123.493 1155.26 124.08V126C1155.26 126.427 1155.32 126.693 1155.43 126.8C1155.59 126.853 1155.72 126.88 1155.83 126.88C1156.04 126.88 1156.28 126.747 1156.55 126.48C1157.45 125.573 1158.44 124.987 1159.51 124.72C1160.25 124.453 1161.05 124.32 1161.91 124.32C1163.67 124.32 1165.08 125.173 1166.15 126.88C1168.92 130.933 1172.55 132.96 1177.03 132.96C1178.89 132.96 1180.68 132.72 1182.39 132.24C1183.83 131.867 1185.24 131.307 1186.63 130.56C1188.07 129.813 1189.43 129.04 1190.71 128.24C1192.04 127.387 1193.24 126.533 1194.31 125.68C1195.43 124.773 1196.39 124 1197.19 123.36C1197.4 123.147 1197.64 122.987 1197.91 122.88C1198.23 122.72 1198.44 122.693 1198.55 122.8C1198.65 122.853 1198.63 123.04 1198.47 123.36C1198.36 123.68 1197.96 124.213 1197.27 124.96C1197 125.227 1196.39 125.733 1195.43 126.48C1194.47 127.227 1193.27 128.053 1191.83 128.96C1190.39 129.867 1188.79 130.747 1187.03 131.6C1185.27 132.4 1183.48 133.013 1181.67 133.44C1179.69 133.92 1177.69 134.027 1175.67 133.76C1173.64 133.493 1171.69 133.067 1169.83 132.48ZM1166.23 97.52C1165.48 97.52 1164.63 97.7333 1163.67 98.16C1162.76 98.5867 1162.01 99.12 1161.43 99.76C1159.83 101.52 1158.52 103.52 1157.51 105.76C1156.55 108 1155.91 110.72 1155.59 113.92C1155.53 114.187 1155.51 114.48 1155.51 114.8C1155.51 115.12 1155.48 115.493 1155.43 115.92C1155.43 116.293 1155.43 116.693 1155.43 117.12C1155.75 116.96 1156.15 116.747 1156.63 116.48C1157.16 116.213 1157.48 116.027 1157.59 115.92C1161.85 113.253 1165.19 109.947 1167.59 106C1168.49 104.507 1169.03 102.96 1169.19 101.36C1169.4 99.5467 1168.73 98.32 1167.19 97.68C1166.87 97.5733 1166.55 97.52 1166.23 97.52ZM1223.71 132.72C1222.59 132.72 1221.42 132.613 1220.19 132.4C1219.02 132.133 1217.74 131.787 1216.35 131.36C1213.79 130.453 1212.01 128.88 1210.99 126.64C1210.83 126.373 1210.7 126.107 1210.59 125.84C1210.54 125.573 1210.43 125.307 1210.27 125.04C1210.11 125.147 1209.9 125.307 1209.63 125.52C1209.42 125.733 1209.18 125.973 1208.91 126.24C1208.17 126.88 1207.29 127.547 1206.27 128.24C1205.05 129.04 1203.77 129.44 1202.43 129.44C1201.63 129.44 1200.83 129.36 1200.03 129.2C1199.23 128.987 1198.51 128.507 1197.87 127.76C1197.82 127.707 1197.74 127.6 1197.63 127.44C1197.53 127.227 1197.42 126.907 1197.31 126.48C1197.26 126.053 1197.26 125.467 1197.31 124.72C1197.31 123.92 1197.39 122.907 1197.55 121.68C1197.66 120.987 1197.82 120.32 1198.03 119.68C1198.25 118.987 1198.49 118.347 1198.75 117.76C1198.86 117.493 1199.05 117.28 1199.31 117.12C1199.58 116.907 1199.87 116.8 1200.19 116.8C1200.41 116.8 1200.67 116.853 1200.99 116.96C1200.99 117.013 1200.99 117.093 1200.99 117.2C1201.05 117.253 1201.07 117.333 1201.07 117.44C1200.81 118.507 1200.57 119.547 1200.35 120.56C1200.14 121.573 1199.93 122.613 1199.71 123.68C1199.5 124.64 1199.45 125.467 1199.55 126.16C1199.66 126.8 1200.09 127.333 1200.83 127.76C1201.79 128.24 1202.73 128.347 1203.63 128.08C1204.59 127.76 1205.47 127.253 1206.27 126.56C1207.07 125.867 1207.79 125.067 1208.43 124.16C1209.07 123.2 1209.58 122.293 1209.95 121.44C1210.06 121.227 1210.17 120.907 1210.27 120.48C1210.33 120.107 1210.46 119.733 1210.67 119.36C1210.78 119.253 1210.97 119.147 1211.23 119.04C1211.5 118.88 1211.77 118.8 1212.03 118.8C1212.25 118.8 1212.41 118.853 1212.51 118.96C1212.73 119.173 1212.81 119.44 1212.75 119.76V122.72V123.12C1212.86 127.067 1214.67 129.653 1218.19 130.88C1219.79 131.413 1221.58 131.68 1223.55 131.68C1225.31 131.68 1226.97 131.44 1228.51 130.96C1230.22 130.427 1231.82 129.867 1233.31 129.28C1234.86 128.693 1236.49 127.947 1238.19 127.04L1239.39 126.4C1240.83 125.653 1242.22 124.987 1243.55 124.4C1244.89 123.76 1246.38 123.28 1248.03 122.96C1248.41 122.907 1248.62 122.907 1248.67 122.96C1248.78 123.013 1248.81 123.093 1248.75 123.2C1248.7 123.307 1248.59 123.44 1248.43 123.6C1248.27 123.707 1248.11 123.787 1247.95 123.84C1245.45 124.747 1242.86 125.947 1240.19 127.44C1238.7 128.293 1237.1 129.013 1235.39 129.6C1233.74 130.187 1232.06 130.773 1230.35 131.36L1229.15 131.76C1227.29 132.4 1225.47 132.72 1223.71 132.72ZM1253.89 160.16C1251.97 160.16 1250.69 159.52 1250.05 158.24C1248.34 155.04 1248.18 151.867 1249.57 148.72C1250.79 145.947 1252.45 143.813 1254.53 142.32C1256.66 140.827 1258.82 139.627 1261.01 138.72C1261.06 138.72 1261.25 138.667 1261.57 138.56C1261.89 138.453 1262.23 138.32 1262.61 138.16C1263.03 138 1263.41 137.84 1263.73 137.68C1264.1 137.52 1264.34 137.387 1264.45 137.28C1264.45 137.013 1264.45 136.773 1264.45 136.56C1264.5 136.347 1264.47 136.027 1264.37 135.6C1264.21 134.693 1264.02 133.52 1263.81 132.08C1263.59 130.587 1263.38 129.12 1263.17 127.68C1262.9 125.92 1262.69 124.56 1262.53 123.6C1262.42 122.587 1262.34 122 1262.29 121.84L1262.05 121.12L1261.25 122.16C1261.14 122.373 1261.01 122.56 1260.85 122.72C1260.69 122.88 1260.55 123.067 1260.45 123.28C1259.43 124.72 1258.37 125.867 1257.25 126.72C1256.18 127.52 1254.95 128.053 1253.57 128.32C1253.3 128.373 1253.06 128.427 1252.85 128.48C1252.63 128.48 1252.39 128.48 1252.13 128.48C1250.47 128.48 1249.01 127.733 1247.73 126.24C1247.62 126.08 1247.46 125.787 1247.25 125.36C1247.09 124.88 1246.93 124.373 1246.77 123.84C1246.55 123.253 1246.39 122.667 1246.29 122.08C1246.13 121.44 1246.02 120.88 1245.97 120.4C1245.91 119.653 1246.15 119.253 1246.69 119.2H1247.17C1247.49 119.2 1247.73 119.253 1247.89 119.36C1248.1 119.467 1248.26 119.76 1248.37 120.24C1248.47 120.453 1248.53 120.667 1248.53 120.88C1248.53 121.093 1248.55 121.333 1248.61 121.6C1248.71 122.773 1248.95 123.787 1249.33 124.64C1249.75 125.44 1250.34 126.213 1251.09 126.96C1251.57 127.493 1252.1 127.76 1252.69 127.76C1253.06 127.76 1253.51 127.627 1254.05 127.36C1255.75 126.56 1257.19 125.387 1258.37 123.84C1258.74 123.307 1259.09 122.827 1259.41 122.4C1259.73 121.92 1260.07 121.387 1260.45 120.8C1260.87 120.053 1261.17 119.253 1261.33 118.4C1261.49 117.547 1261.51 116.693 1261.41 115.84C1261.35 115.52 1261.33 115.147 1261.33 114.72C1261.38 114.293 1261.49 113.893 1261.65 113.52C1261.75 113.307 1261.94 113.12 1262.21 112.96C1262.47 112.747 1262.74 112.64 1263.01 112.64C1263.38 112.64 1263.65 112.747 1263.81 112.96C1263.91 113.067 1263.97 113.28 1263.97 113.6C1263.86 114.667 1263.89 115.733 1264.05 116.8C1264.21 117.813 1264.42 118.8 1264.69 119.76C1264.79 120.347 1264.9 120.933 1265.01 121.52C1265.17 122.053 1265.27 122.613 1265.33 123.2C1265.43 124 1265.54 124.8 1265.65 125.6C1265.75 126.347 1265.86 127.12 1265.97 127.92L1266.37 130.8C1266.37 131.013 1266.39 131.387 1266.45 131.92C1266.55 132.4 1266.66 132.96 1266.77 133.6C1266.87 134.187 1266.95 134.747 1267.01 135.28C1267.11 135.867 1267.19 136.293 1267.25 136.56L1267.33 136.88L1268.77 136.72C1269.19 136.613 1269.59 136.533 1269.97 136.48C1270.34 136.427 1270.71 136.347 1271.09 136.24C1275.41 135.173 1279.62 134.053 1283.73 132.88C1287.89 131.653 1291.97 130.213 1295.97 128.56C1297.41 127.973 1298.69 127.36 1299.81 126.72C1300.98 126.027 1302.05 125.227 1303.01 124.32C1303.38 124 1303.67 123.84 1303.89 123.84C1304.15 123.787 1304.31 123.84 1304.37 124C1304.47 124.107 1304.5 124.267 1304.45 124.48C1304.45 124.64 1304.34 124.8 1304.13 124.96C1303.91 125.12 1303.75 125.253 1303.65 125.36C1303.54 125.413 1303.43 125.493 1303.33 125.6C1303.22 125.707 1303.09 125.813 1302.93 125.92C1302.82 126.027 1302.66 126.16 1302.45 126.32C1300.58 127.6 1298.69 128.667 1296.77 129.52C1294.9 130.32 1293.11 131.013 1291.41 131.6C1288.05 132.773 1284.53 133.84 1280.85 134.8C1277.17 135.813 1273.09 136.8 1268.61 137.76C1268.23 137.867 1267.97 137.92 1267.81 137.92C1267.65 137.973 1267.54 138 1267.49 138C1267.43 138 1267.38 138 1267.33 138C1267.33 138.053 1267.25 138.08 1267.09 138.08C1267.09 139.04 1267.03 140.08 1266.93 141.2C1266.82 142.373 1266.66 143.547 1266.45 144.72C1266.29 145.947 1266.05 147.173 1265.73 148.4C1265.41 149.627 1265.06 150.747 1264.69 151.76C1263.25 155.92 1260.47 158.587 1256.37 159.76C1256.26 159.813 1255.97 159.893 1255.49 160C1255.01 160.107 1254.47 160.16 1253.89 160.16ZM1262.93 139.36C1256.9 141.6 1253.03 144.987 1251.33 149.52C1250.9 150.64 1250.63 151.653 1250.53 152.56C1250.47 153.467 1250.53 154.267 1250.69 154.96C1250.85 155.653 1251.06 156.24 1251.33 156.72C1251.65 157.253 1251.94 157.68 1252.21 158C1252.85 158.64 1253.57 158.96 1254.37 158.96C1254.58 158.96 1254.74 158.933 1254.85 158.88C1256.45 158.453 1257.7 157.893 1258.61 157.2C1259.51 156.507 1260.26 155.52 1260.85 154.24C1261.43 152.96 1261.97 151.653 1262.45 150.32C1262.61 149.787 1262.79 148.88 1263.01 147.6C1263.27 146.373 1263.51 145.093 1263.73 143.76C1263.94 142.213 1264.21 140.533 1264.53 138.72C1264.26 138.827 1264.02 138.933 1263.81 139.04C1263.27 139.253 1262.98 139.36 1262.93 139.36Z" fill="black"/>
</svg>
