<svg width="1164" height="161" viewBox="0 0 1164 161" fill="none" xmlns="http://www.w3.org/2000/svg">
<path d="M145.152 29.7148V28.7773C145.309 28.7773 145.543 28.7773 145.855 28.7773C151.012 29.0898 154.781 29.2461 157.164 29.2461C159.156 29.2461 162.438 29.1289 167.008 28.8945C167.945 28.8164 168.629 28.7773 169.059 28.7773V29.7148C166.637 30.2227 164.879 31.2383 163.785 32.7617C162.73 34.2461 162.203 36.4336 162.203 39.3242V65.6914C162.203 72.2148 162.379 77.5469 162.73 81.6875C163.082 85.7891 163.629 88.9141 164.371 91.0625C165.895 95.6719 168.785 99.2461 173.043 101.785C177.34 104.285 182.652 105.535 188.98 105.535C198.551 105.535 205.68 103.113 210.367 98.2695C215.055 93.4258 217.398 86.0625 217.398 76.1797V63.9336C217.398 50.457 216.676 41.8242 215.23 38.0352C213.785 34.207 211.148 31.4336 207.32 29.7148V28.7773C209.508 28.9336 211.52 29.0508 213.355 29.1289C215.23 29.207 216.91 29.2461 218.395 29.2461C220.738 29.2461 222.945 29.207 225.016 29.1289C227.086 29.0508 229.078 28.9336 230.992 28.7773V29.7148C226.969 31.3945 224.195 34.4414 222.672 38.8555C221.148 43.2695 220.387 51.6289 220.387 63.9336V75.5352C220.387 86.8242 217.672 95.2617 212.242 100.848C206.852 106.395 198.648 109.168 187.633 109.168C181.266 109.168 175.68 108.465 170.875 107.059C166.109 105.691 162.262 103.68 159.332 101.023C156.598 98.5234 154.645 95.3984 153.473 91.6484C152.34 87.8594 151.773 81.9414 151.773 73.8945C151.773 72.2539 151.812 69.1094 151.891 64.4609C151.969 59.7734 152.008 55.9062 152.008 52.8594V39.3242C152.008 36.5898 151.461 34.4805 150.367 32.9961C149.312 31.4727 147.574 30.3789 145.152 29.7148ZM229.234 107.352V106.531C233.57 104.5 241.188 97.0391 252.086 84.1484C253.883 82.0391 255.25 80.418 256.188 79.2852L265.094 68.9727L248.629 46.7656C243.941 40.3984 240.504 36.1016 238.316 33.875C236.168 31.6484 234.215 30.2227 232.457 29.5977V28.7773C233.434 28.8164 234.82 28.875 236.617 28.9531C241.266 29.1484 244.391 29.2461 245.992 29.2461C248.414 29.2461 252.379 29.1094 257.887 28.8359C258.355 28.7969 258.707 28.7773 258.941 28.7773V29.5977C257.184 29.832 255.777 30.3398 254.723 31.1211C253.707 31.8633 253.199 32.7617 253.199 33.8164C253.199 34.7539 253.668 36.082 254.605 37.8008C255.543 39.5195 257.047 41.7461 259.117 44.4805L271.598 61.1797C277.652 54.2656 281.93 48.8359 284.43 44.8906C286.969 40.9062 288.238 37.6445 288.238 35.1055C288.238 33.7383 287.789 32.5664 286.891 31.5898C286.031 30.6133 284.801 29.9492 283.199 29.5977V28.7773C286.832 28.9336 289.723 29.0508 291.871 29.1289C294.02 29.207 296.012 29.2461 297.848 29.2461C299.371 29.2461 301.012 29.207 302.77 29.1289C304.527 29.0508 306.852 28.9336 309.742 28.7773V29.5977C304.195 30.3789 292.242 41.4727 273.883 62.8789L273.355 63.4648L287.77 82.3906C293.043 89.3828 297.691 94.9883 301.715 99.207C305.738 103.387 308.766 105.828 310.797 106.531V107.352C308.648 107.234 306.402 107.137 304.059 107.059C301.715 107.02 299.332 107 296.91 107C294.762 107 292.418 107.02 289.879 107.059C287.379 107.137 284.723 107.234 281.91 107.352V106.531C283.629 106.141 284.879 105.594 285.66 104.891C286.441 104.188 286.832 103.25 286.832 102.078C286.832 101.023 286.383 99.6172 285.484 97.8594C284.625 96.0625 283.395 94.0312 281.793 91.7656L266.91 71.375C260.738 78.7578 256.188 84.793 253.258 89.4805C250.328 94.168 248.863 97.7227 248.863 100.145C248.863 101.863 249.332 103.211 250.27 104.188C251.246 105.164 252.867 105.945 255.133 106.531V107.352C252.047 107.234 249.293 107.137 246.871 107.059C244.488 107.02 242.438 107 240.719 107C238.961 107 237.125 107.02 235.211 107.059C233.336 107.137 231.344 107.234 229.234 107.352ZM309.977 118.133V117.195L372.965 26.9609H378.004V27.8984L315.016 118.133H309.977ZM381.168 29.7148V28.7773C381.324 28.7773 381.559 28.7773 381.871 28.7773C387.027 29.0898 390.797 29.2461 393.18 29.2461C395.172 29.2461 398.453 29.1289 403.023 28.8945C403.961 28.8164 404.645 28.7773 405.074 28.7773V29.7148C402.652 30.2227 400.895 31.2383 399.801 32.7617C398.746 34.2461 398.219 36.4336 398.219 39.3242V65.6914C398.219 72.2148 398.395 77.5469 398.746 81.6875C399.098 85.7891 399.645 88.9141 400.387 91.0625C401.91 95.6719 404.801 99.2461 409.059 101.785C413.355 104.285 418.668 105.535 424.996 105.535C434.566 105.535 441.695 103.113 446.383 98.2695C451.07 93.4258 453.414 86.0625 453.414 76.1797V63.9336C453.414 50.457 452.691 41.8242 451.246 38.0352C449.801 34.207 447.164 31.4336 443.336 29.7148V28.7773C445.523 28.9336 447.535 29.0508 449.371 29.1289C451.246 29.207 452.926 29.2461 454.41 29.2461C456.754 29.2461 458.961 29.207 461.031 29.1289C463.102 29.0508 465.094 28.9336 467.008 28.7773V29.7148C462.984 31.3945 460.211 34.4414 458.688 38.8555C457.164 43.2695 456.402 51.6289 456.402 63.9336V75.5352C456.402 86.8242 453.688 95.2617 448.258 100.848C442.867 106.395 434.664 109.168 423.648 109.168C417.281 109.168 411.695 108.465 406.891 107.059C402.125 105.691 398.277 103.68 395.348 101.023C392.613 98.5234 390.66 95.3984 389.488 91.6484C388.355 87.8594 387.789 81.9414 387.789 73.8945C387.789 72.2539 387.828 69.1094 387.906 64.4609C387.984 59.7734 388.023 55.9062 388.023 52.8594V39.3242C388.023 36.5898 387.477 34.4805 386.383 32.9961C385.328 31.4727 383.59 30.3789 381.168 29.7148ZM469.234 107.352L469.176 106.414C472.535 105.672 474.801 103.797 475.973 100.789C477.145 97.7422 477.73 90.8086 477.73 79.9883V39.3242C477.73 36.5508 477.164 34.4219 476.031 32.9375C474.898 31.4531 473.062 30.3789 470.523 29.7148V28.7773C470.914 28.7773 471.5 28.7969 472.281 28.8359C477.242 29.1094 480.738 29.2461 482.77 29.2461C486.52 29.2461 490.289 29.1094 494.078 28.8359C494.781 28.7969 495.211 28.7773 495.367 28.7773H495.484V29.7148C492.984 30.1836 491.148 31.1992 489.977 32.7617C488.844 34.2852 488.277 36.4727 488.277 39.3242V80.6914C488.277 90.8477 488.863 97.4688 490.035 100.555C491.207 103.602 493.492 105.555 496.891 106.414V107.352C493.805 107.234 491.07 107.137 488.688 107.059C486.305 107.02 484.234 107 482.477 107C480.328 107 478.16 107.02 475.973 107.059C473.785 107.137 471.539 107.234 469.234 107.352ZM559.762 66.9219C562.887 67.2734 565.602 67.5469 567.906 67.7422C570.25 67.8984 572.164 67.9766 573.648 67.9766C583.258 67.9766 590.875 66.2773 596.5 62.8789C602.164 59.4805 604.996 54.9492 604.996 49.2852C604.996 43.3086 602.184 38.9141 596.559 36.1016C590.973 33.2891 582.184 31.8828 570.191 31.8828C568.902 31.8828 567.066 31.9414 564.684 32.0586C562.301 32.1367 560.641 32.1953 559.703 32.2344L559.762 66.9219ZM559.762 70.1445L559.703 80.6914C559.703 90.9648 560.27 97.6055 561.402 100.613C562.535 103.621 564.703 105.555 567.906 106.414L567.848 107.352C565.191 107.234 562.672 107.137 560.289 107.059C557.945 107.02 555.797 107 553.844 107C551.852 107 549.82 107.02 547.75 107.059C545.719 107.137 543.648 107.234 541.539 107.352L541.48 106.414C544.527 105.594 546.598 103.875 547.691 101.258C548.824 98.6406 549.391 92.8398 549.391 83.8555V79.9883V38.8555C549.391 36.2773 548.824 34.2461 547.691 32.7617C546.598 31.2773 544.977 30.3789 542.828 30.0664V29.1289C545.289 29.168 547.809 29.207 550.387 29.2461C553.004 29.2461 556.559 29.2461 561.051 29.2461H573.062C588.961 29.2461 600.348 30.8477 607.223 34.0508C614.137 37.2539 617.594 42.4102 617.594 49.5195C617.594 56.082 613.98 61.2773 606.754 65.1055C599.566 68.8945 589.605 70.7891 576.871 70.7891C574.723 70.75 572.301 70.6914 569.605 70.6133C566.949 70.5352 563.668 70.3789 559.762 70.1445ZM631.305 75.1836C631.305 84.9492 633.336 92.5273 637.398 97.918C641.461 103.27 647.164 105.945 654.508 105.945C661.852 105.945 667.496 103.309 671.441 98.0352C675.426 92.7227 677.418 85.1445 677.418 75.3008C677.418 65.6523 675.387 58.1719 671.324 52.8594C667.301 47.5078 661.656 44.832 654.391 44.832C647.125 44.832 641.461 47.5078 637.398 52.8594C633.336 58.1719 631.305 65.6133 631.305 75.1836ZM620.172 75.0664C620.172 65.6133 623.355 57.8984 629.723 51.9219C636.129 45.9062 644.391 42.8984 654.508 42.8984C664.625 42.8984 672.828 45.9258 679.117 51.9805C685.406 58.0352 688.551 65.9258 688.551 75.6523C688.551 85.457 685.406 93.3867 679.117 99.4414C672.828 105.457 664.488 108.465 654.098 108.465C644.059 108.465 635.895 105.379 629.605 99.207C623.316 93.0352 620.172 84.9883 620.172 75.0664ZM695.348 107.352V106.414C698.277 105.555 700.289 103.836 701.383 101.258C702.477 98.6797 703.023 93.1133 703.023 84.5586V79.5195V63.582C703.023 57.0977 702.555 53.1523 701.617 51.7461C700.719 50.3398 698.961 49.5977 696.344 49.5195L696.285 48.582C698.395 48.1133 700.68 47.5469 703.141 46.8828C705.602 46.2188 708.395 45.3789 711.52 44.3633L711.285 62.5859C713.902 56.5703 717.066 52 720.777 48.875C724.488 45.7109 728.609 44.1289 733.141 44.1289C733.766 44.1289 734.254 44.1484 734.605 44.1875C734.957 44.1875 735.27 44.207 735.543 44.2461L730.973 57.4297H730.387C729.605 56.4141 728.727 55.6719 727.75 55.2031C726.773 54.6953 725.68 54.4414 724.469 54.4414C720.523 54.4414 717.496 56.2969 715.387 60.0078C713.316 63.6797 712.281 69.0312 712.281 76.0625V83.0938C712.281 92.625 712.809 98.6797 713.863 101.258C714.918 103.797 716.949 105.516 719.957 106.414L719.898 107.352C717.789 107.234 715.699 107.137 713.629 107.059C711.598 107.02 709.586 107 707.594 107C705.914 107 704.059 107.02 702.027 107.059C699.996 107.137 697.77 107.234 695.348 107.352ZM738.004 50.8672L738.707 49.0508C742.574 47.918 745.875 45.8867 748.609 42.957C751.383 39.9883 754.117 35.418 756.812 29.2461H757.75C757.594 31.5508 757.457 34.1875 757.34 37.1562C757.223 40.0859 757.145 43.3672 757.105 47H770.055V47.8203L768.824 50.8672H756.93L757.223 78.6992C757.301 89.6367 757.965 96.8047 759.215 100.203C760.504 103.562 762.867 105.633 766.305 106.414V107.234C763.883 107.195 761.07 107.137 757.867 107.059C754.703 107.02 752.848 107 752.301 107C750.621 105.945 749.449 104.52 748.785 102.723C748.16 100.926 747.848 97.3125 747.848 91.8828V85.2617C747.848 85.1836 747.848 84.9492 747.848 84.5586C747.926 83.1523 747.965 81.9219 747.965 80.8672L748.434 50.8672H738.004ZM784.059 50.9844H774.215V50.2227L775.621 47H784.059V45.1836C784.059 37.2148 786.227 30.9648 790.562 26.4336C794.938 21.9023 800.953 19.6367 808.609 19.6367C809.391 19.6367 810.25 19.6758 811.188 19.7539C812.164 19.793 813.18 19.8711 814.234 19.9883L810.426 31.1797H809.723C808.707 28.5625 807.535 26.5703 806.207 25.2031C804.879 23.7969 803.453 23.0938 801.93 23.0938C799 23.0938 796.812 24.207 795.367 26.4336C793.961 28.6211 793.258 31.9609 793.258 36.4531V47H806.09V47.8203L804.801 50.9844H793.258V80.9844C793.258 91.4922 793.785 98.1328 794.84 100.906C795.895 103.68 797.887 105.516 800.816 106.414V107.352C799.254 107.234 797.555 107.137 795.719 107.059C793.922 107.02 791.344 107 787.984 107C785.133 107 782.867 107.02 781.188 107.059C779.508 107.137 777.906 107.234 776.383 107.352L776.324 106.414C779.254 105.477 781.266 103.621 782.359 100.848C783.492 98.0742 784.059 92.3711 784.059 83.7383V77.3516V50.9844ZM823.727 75.1836C823.727 84.9492 825.758 92.5273 829.82 97.918C833.883 103.27 839.586 105.945 846.93 105.945C854.273 105.945 859.918 103.309 863.863 98.0352C867.848 92.7227 869.84 85.1445 869.84 75.3008C869.84 65.6523 867.809 58.1719 863.746 52.8594C859.723 47.5078 854.078 44.832 846.812 44.832C839.547 44.832 833.883 47.5078 829.82 52.8594C825.758 58.1719 823.727 65.6133 823.727 75.1836ZM812.594 75.0664C812.594 65.6133 815.777 57.8984 822.145 51.9219C828.551 45.9062 836.812 42.8984 846.93 42.8984C857.047 42.8984 865.25 45.9258 871.539 51.9805C877.828 58.0352 880.973 65.9258 880.973 75.6523C880.973 85.457 877.828 93.3867 871.539 99.4414C865.25 105.457 856.91 108.465 846.52 108.465C836.48 108.465 828.316 105.379 822.027 99.207C815.738 93.0352 812.594 84.9883 812.594 75.0664ZM887.301 107.352V106.414C890.309 105.477 892.379 103.562 893.512 100.672C894.645 97.7812 895.211 91.4141 895.211 81.5703V77.3516V37.625C895.211 32.1563 894.742 28.6992 893.805 27.2539C892.906 25.8086 891.129 25.0273 888.473 24.9102V23.9727C891.051 23.6602 893.668 23.1523 896.324 22.4492C899.02 21.707 901.891 20.7305 904.938 19.5195C904.742 22.0977 904.605 25.0859 904.527 28.4844C904.449 31.8828 904.41 35.9844 904.41 40.7891V80.9844C904.41 91.2969 904.957 97.8789 906.051 100.73C907.184 103.543 909.293 105.438 912.379 106.414L912.32 107.352C910.289 107.234 908.199 107.137 906.051 107.059C903.902 107.02 901.734 107 899.547 107C896.812 107 894.527 107.02 892.691 107.059C890.855 107.137 889.059 107.234 887.301 107.352ZM916.363 107.352V106.414C919.332 105.516 921.363 103.641 922.457 100.789C923.59 97.8984 924.156 91.9609 924.156 82.9766V73.543V60.8281C924.156 56.1016 923.688 53.0742 922.75 51.7461C921.852 50.3789 920.133 49.6367 917.594 49.5195L917.535 48.582C919.723 48.3086 922.066 47.8398 924.566 47.1758C927.105 46.4727 930.211 45.457 933.883 44.1289C933.727 47.3711 933.609 50.6133 933.531 53.8555C933.453 57.0977 933.414 60.3398 933.414 63.582V71.0234V80.1055C933.414 90.8086 933.961 97.6445 935.055 100.613C936.148 103.582 938.238 105.516 941.324 106.414V107.352C939.684 107.234 937.945 107.137 936.109 107.059C934.273 107.02 931.773 107 928.609 107C926.188 107 924.02 107.02 922.105 107.059C920.23 107.137 918.316 107.234 916.363 107.352ZM922.574 29.3633C922.574 27.7227 923.121 26.3555 924.215 25.2617C925.309 24.168 926.695 23.6211 928.375 23.6211C930.016 23.6211 931.402 24.1875 932.535 25.3203C933.668 26.4141 934.234 27.7617 934.234 29.3633C934.234 30.9648 933.668 32.3125 932.535 33.4062C931.402 34.4609 930.016 34.9883 928.375 34.9883C926.617 34.9883 925.211 34.4805 924.156 33.4648C923.102 32.4102 922.574 31.043 922.574 29.3633ZM958.961 75.1836C958.961 84.9492 960.992 92.5273 965.055 97.918C969.117 103.27 974.82 105.945 982.164 105.945C989.508 105.945 995.152 103.309 999.098 98.0352C1003.08 92.7227 1005.07 85.1445 1005.07 75.3008C1005.07 65.6523 1003.04 58.1719 998.98 52.8594C994.957 47.5078 989.312 44.832 982.047 44.832C974.781 44.832 969.117 47.5078 965.055 52.8594C960.992 58.1719 958.961 65.6133 958.961 75.1836ZM947.828 75.0664C947.828 65.6133 951.012 57.8984 957.379 51.9219C963.785 45.9062 972.047 42.8984 982.164 42.8984C992.281 42.8984 1000.48 45.9258 1006.77 51.9805C1013.06 58.0352 1016.21 65.9258 1016.21 75.6523C1016.21 85.457 1013.06 93.3867 1006.77 99.4414C1000.48 105.457 992.145 108.465 981.754 108.465C971.715 108.465 963.551 105.379 957.262 99.207C950.973 93.0352 947.828 84.9883 947.828 75.0664Z" fill="#221E1F"/>
<path d="M744.16 123.2C744.16 122.347 744.16 121.52 744.16 120.72C744.213 119.92 744.24 119.093 744.24 118.24C744.24 117.973 744.24 117.84 744.24 117.84C744.24 117.787 744.267 117.68 744.32 117.52C743.733 117.307 743.067 117.013 742.32 116.64C741.627 116.267 741.04 115.893 740.56 115.52C739.493 114.72 738.667 113.787 738.08 112.72C737.493 111.6 737.013 110.427 736.64 109.2C736.373 108.133 736.24 107.067 736.24 106C736.24 104.933 736.293 103.867 736.4 102.8C736.507 101.733 736.72 100.72 737.04 99.76C737.36 98.7467 737.733 97.76 738.16 96.8C739.173 94.1867 740.667 91.8667 742.64 89.84C744.773 87.6 747.307 85.9733 750.24 84.96C751.733 84.4267 753.253 84.0533 754.8 83.84C756.347 83.6267 757.893 83.6 759.44 83.76C761.307 83.92 763.093 84.2933 764.8 84.88C766.56 85.4133 768.213 86.2667 769.76 87.44C772.8 89.84 774.64 92.88 775.28 96.56C775.707 99.0667 775.76 101.44 775.44 103.68C775.173 106.08 774.72 108.453 774.08 110.8C773.44 113.147 772.64 115.44 771.68 117.68C770.08 121.36 768 124.72 765.44 127.76C763.52 130.053 761.44 132.107 759.2 133.92C758.4 134.56 757.6 135.173 756.8 135.76C756 136.4 755.147 137.013 754.24 137.6C753.28 138.187 752.293 138.747 751.28 139.28C750.267 139.813 749.2 140.187 748.08 140.4C746.373 140.72 744.747 140.747 743.2 140.48C741.653 140.213 740.16 139.52 738.72 138.4C737.653 137.707 736.853 136.667 736.32 135.28C736.213 135.067 736.133 134.747 736.08 134.32C736.027 133.893 736.133 133.627 736.4 133.52C736.667 133.413 736.907 133.36 737.12 133.36C737.387 133.36 737.627 133.493 737.84 133.76C738.053 133.92 738.24 134.08 738.4 134.24C738.56 134.453 738.72 134.667 738.88 134.88C738.987 134.987 739.013 135.12 738.96 135.28C738.907 135.44 738.8 135.547 738.64 135.6C738.373 135.653 738.24 135.68 738.24 135.68C738.24 135.733 738.293 135.867 738.4 136.08C739.147 137.147 740 137.92 740.96 138.4C741.92 138.933 743.013 139.28 744.24 139.44C745.573 139.6 746.827 139.52 748 139.2C749.173 138.88 750.347 138.4 751.52 137.76C753.707 136.533 755.707 135.147 757.52 133.6C759.333 132 761.067 130.293 762.72 128.48C765.92 124.8 768.4 120.667 770.16 116.08C770.747 114.533 771.253 112.96 771.68 111.36C772.107 109.707 772.507 108.08 772.88 106.48C772.987 105.893 773.04 105.333 773.04 104.8C773.093 104.267 773.147 103.707 773.2 103.12C773.253 102.533 773.307 101.973 773.36 101.44C773.467 100.907 773.493 100.347 773.44 99.76C773.333 98.5333 773.147 97.3067 772.88 96.08C772.667 94.8533 772.267 93.6533 771.68 92.48C770.88 90.9867 769.893 89.7333 768.72 88.72C767.547 87.6533 766.213 86.7733 764.72 86.08C763.173 85.3333 761.573 84.88 759.92 84.72C758.32 84.56 756.72 84.5867 755.12 84.8C752.133 85.12 749.387 86.24 746.88 88.16C744.64 89.8133 742.88 91.7333 741.6 93.92C740.32 96.0533 739.36 98.4533 738.72 101.12C738.507 102.027 738.347 102.933 738.24 103.84C738.133 104.747 738.133 105.653 738.24 106.56C738.4 108.107 738.72 109.6 739.2 111.04C739.733 112.427 740.613 113.653 741.84 114.72C742 114.88 742.213 115.067 742.48 115.28C742.747 115.44 743.013 115.6 743.28 115.76C743.6 115.92 743.867 116.053 744.08 116.16C744.293 116.267 744.4 116.32 744.4 116.32C744.453 115.573 744.48 114.747 744.48 113.84C744.533 112.933 744.613 112.107 744.72 111.36C744.827 110.453 744.933 109.573 745.04 108.72C745.2 107.813 745.333 106.907 745.44 106C745.547 105.307 745.627 104.64 745.68 104C745.787 103.307 745.893 102.613 746 101.92C746 101.653 746.08 101.36 746.24 101.04C746.347 100.773 746.587 100.587 746.96 100.48C747.333 100.373 747.627 100.427 747.84 100.64C747.947 100.747 748 100.88 748 101.04L747.76 102.96C747.707 103.227 747.68 103.52 747.68 103.84C747.733 104.107 747.627 104.373 747.36 104.64C747.2 104.747 747.12 104.933 747.12 105.2C747.12 105.467 747.093 105.733 747.04 106L746.8 109.12C746.693 109.92 746.587 110.747 746.48 111.6C746.427 112.4 746.373 113.227 746.32 114.08C746.267 114.507 746.213 114.987 746.16 115.52C746.16 116.053 746.16 116.507 746.16 116.88C746.267 116.933 746.453 116.96 746.72 116.96C747.147 117.013 747.547 117.067 747.92 117.12C748.293 117.173 748.667 117.147 749.04 117.04C750.267 116.933 751.413 116.667 752.48 116.24C753.547 115.76 754.587 115.227 755.6 114.64C756.24 114.267 756.88 113.813 757.52 113.28C758 112.907 758.427 112.48 758.8 112C758.96 111.733 758.933 111.52 758.72 111.36C758.56 111.2 758.507 111.093 758.56 111.04C758.667 110.987 758.773 110.907 758.88 110.8C759.413 110.64 759.893 110.747 760.32 111.12C760.587 111.44 760.587 111.84 760.32 112.32C760 112.853 759.627 113.307 759.2 113.68C758.773 114 758.347 114.32 757.92 114.64C757.067 115.173 756.213 115.68 755.36 116.16C754.507 116.587 753.627 116.933 752.72 117.2C751.973 117.467 751.227 117.68 750.48 117.84C749.733 117.947 748.96 117.973 748.16 117.92H746.48H746.08C746.027 117.92 746 117.893 746 117.84C745.893 119.387 745.787 121.04 745.68 122.8C745.627 124.507 745.653 126.133 745.76 127.68C745.867 128.853 746.027 129.947 746.24 130.96C746.453 131.867 746.773 132.667 747.2 133.36C747.68 134 748.373 134.507 749.28 134.88C749.333 134.933 749.387 134.96 749.44 134.96C749.547 134.96 749.573 135.013 749.52 135.12C749.52 135.333 749.413 135.44 749.2 135.44C748.933 135.493 748.64 135.467 748.32 135.36C746.667 134.987 745.547 133.973 744.96 132.32C744.533 131.04 744.267 129.653 744.16 128.16C744.107 127.307 744.08 126.48 744.08 125.68C744.133 124.88 744.16 124.053 744.16 123.2ZM805.603 132.72C804.483 132.72 803.31 132.613 802.083 132.4C800.91 132.133 799.63 131.787 798.243 131.36C795.683 130.453 793.896 128.88 792.883 126.64C792.723 126.373 792.59 126.107 792.483 125.84C792.43 125.573 792.323 125.307 792.163 125.04C792.003 125.147 791.79 125.307 791.523 125.52C791.31 125.733 791.07 125.973 790.803 126.24C790.056 126.88 789.176 127.547 788.163 128.24C786.936 129.04 785.656 129.44 784.323 129.44C783.523 129.44 782.723 129.36 781.923 129.2C781.123 128.987 780.403 128.507 779.763 127.76C779.71 127.707 779.63 127.6 779.523 127.44C779.416 127.227 779.31 126.907 779.203 126.48C779.15 126.053 779.15 125.467 779.203 124.72C779.203 123.92 779.283 122.907 779.443 121.68C779.55 120.987 779.71 120.32 779.923 119.68C780.136 118.987 780.376 118.347 780.643 117.76C780.75 117.493 780.936 117.28 781.203 117.12C781.47 116.907 781.763 116.8 782.083 116.8C782.296 116.8 782.563 116.853 782.883 116.96C782.883 117.013 782.883 117.093 782.883 117.2C782.936 117.253 782.963 117.333 782.963 117.44C782.696 118.507 782.456 119.547 782.243 120.56C782.03 121.573 781.816 122.613 781.603 123.68C781.39 124.64 781.336 125.467 781.443 126.16C781.55 126.8 781.976 127.333 782.723 127.76C783.683 128.24 784.616 128.347 785.523 128.08C786.483 127.76 787.363 127.253 788.163 126.56C788.963 125.867 789.683 125.067 790.323 124.16C790.963 123.2 791.47 122.293 791.843 121.44C791.95 121.227 792.056 120.907 792.163 120.48C792.216 120.107 792.35 119.733 792.563 119.36C792.67 119.253 792.856 119.147 793.123 119.04C793.39 118.88 793.656 118.8 793.923 118.8C794.136 118.8 794.296 118.853 794.403 118.96C794.616 119.173 794.696 119.44 794.643 119.76V122.72V123.12C794.75 127.067 796.563 129.653 800.083 130.88C801.683 131.413 803.47 131.68 805.443 131.68C807.203 131.68 808.856 131.44 810.403 130.96C812.11 130.427 813.71 129.867 815.203 129.28C816.75 128.693 818.376 127.947 820.083 127.04L821.283 126.4C822.723 125.653 824.11 124.987 825.443 124.4C826.776 123.76 828.27 123.28 829.923 122.96C830.296 122.907 830.51 122.907 830.563 122.96C830.67 123.013 830.696 123.093 830.643 123.2C830.59 123.307 830.483 123.44 830.323 123.6C830.163 123.707 830.003 123.787 829.843 123.84C827.336 124.747 824.75 125.947 822.083 127.44C820.59 128.293 818.99 129.013 817.283 129.6C815.63 130.187 813.95 130.773 812.243 131.36L811.043 131.76C809.176 132.4 807.363 132.72 805.603 132.72ZM832.496 131.76C832.23 131.76 831.83 131.733 831.296 131.68C830.816 131.627 830.31 131.52 829.776 131.36C829.296 131.147 828.843 130.853 828.416 130.48C827.99 130.107 827.696 129.6 827.536 128.96C827.376 128.213 827.376 127.307 827.536 126.24C827.696 125.173 828.123 124.107 828.816 123.04C831.163 119.307 833.643 116.987 836.256 116.08C837.056 115.76 837.91 115.6 838.816 115.6C840.203 115.6 841.403 116 842.416 116.8C843.43 117.6 844.07 118.693 844.336 120.08C844.496 120.72 844.47 121.333 844.256 121.92C844.096 122.507 843.883 123.093 843.616 123.68L843.296 124.48C843.136 124.8 842.976 125.093 842.816 125.36C842.656 125.573 842.523 125.813 842.416 126.08C842.683 126.24 842.976 126.373 843.296 126.48C843.67 126.533 844.043 126.587 844.416 126.64C845.91 126.907 847.43 127.04 848.976 127.04C851.11 127.04 852.896 126.853 854.336 126.48L856.096 126C857.643 125.573 859.003 125.2 860.176 124.88C861.403 124.507 862.816 123.947 864.416 123.2C864.896 122.987 865.27 122.88 865.536 122.88C865.696 122.987 865.696 123.173 865.536 123.44C865.43 123.653 865.136 123.893 864.656 124.16C863.11 124.96 860.15 125.92 855.776 127.04C853.163 127.733 850.71 128.08 848.416 128.08C847.936 128.08 847.323 128.053 846.576 128C845.83 127.893 845.056 127.813 844.256 127.76C843.51 127.653 842.816 127.573 842.176 127.52C841.59 127.413 841.216 127.333 841.056 127.28C840.15 128.187 839.056 129.067 837.776 129.92C836.496 130.773 835.19 131.333 833.856 131.6C833.696 131.707 833.483 131.76 833.216 131.76C833.003 131.76 832.763 131.76 832.496 131.76ZM832.256 123.04C831.936 123.253 831.643 123.52 831.376 123.84C831.163 124.16 831.003 124.453 830.896 124.72C830.736 125.093 830.603 125.44 830.496 125.76C830.443 126.08 830.39 126.347 830.336 126.56L830.256 126.88C830.096 128.373 830.283 129.413 830.816 130C831.19 130.48 831.723 130.72 832.416 130.72C832.95 130.72 833.536 130.56 834.176 130.24C834.923 129.867 835.59 129.44 836.176 128.96C836.763 128.48 837.35 128 837.936 127.52C838.15 127.36 838.336 127.227 838.496 127.12C838.656 126.96 838.79 126.827 838.896 126.72C838.736 126.72 838.496 126.667 838.176 126.56C837.91 126.4 837.696 126.267 837.536 126.16L836.736 125.84C836.096 125.573 835.43 125.253 834.736 124.88C834.096 124.507 833.536 124.027 833.056 123.44L832.496 122.88L832.256 123.04ZM839.056 117.2C838.63 117.2 838.096 117.333 837.456 117.6C836.07 118.293 835.083 119.467 834.496 121.12C834.39 121.28 834.47 121.573 834.736 122C835.056 122.373 835.35 122.747 835.616 123.12C836.736 124.293 838.016 125.093 839.456 125.52L839.776 125.6L839.936 125.36C840.843 124.133 841.456 122.933 841.776 121.76L841.856 121.36C841.91 120.72 841.883 120.187 841.776 119.76C841.67 119.333 841.376 118.827 840.896 118.24C840.31 117.547 839.696 117.2 839.056 117.2ZM887.319 133.92C885.933 133.92 884.679 133.68 883.559 133.2C882.759 132.88 882.013 132.32 881.319 131.52C880.626 130.667 880.039 129.653 879.559 128.48C879.133 127.253 878.839 125.893 878.679 124.4C878.519 122.853 878.573 121.227 878.839 119.52C878.893 119.253 878.946 119.013 878.999 118.8C879.053 118.587 879.133 118.347 879.239 118.08C879.293 117.92 879.346 117.76 879.399 117.6C879.453 117.44 879.506 117.28 879.559 117.12C879.559 117.067 879.586 116.933 879.639 116.72C879.693 116.453 879.693 116.24 879.639 116.08C879.639 115.867 879.506 115.76 879.239 115.76C879.026 115.76 878.653 115.947 878.119 116.32L877.479 117.04C877.106 117.413 876.733 117.787 876.359 118.16C876.039 118.533 875.746 118.933 875.479 119.36C875.053 120.053 874.626 120.747 874.199 121.44C873.773 122.133 873.346 122.853 872.919 123.6L871.879 125.44C870.973 126.987 869.906 127.76 868.679 127.76C867.826 127.76 866.919 127.36 865.959 126.56C865.693 126.347 865.399 126.027 865.079 125.6C864.813 125.173 864.573 124.747 864.359 124.32C864.093 123.893 863.906 123.493 863.799 123.12C863.639 122.747 863.586 122.48 863.639 122.32C863.906 121.52 864.359 121.093 864.999 121.04H865.479C866.173 121.04 866.626 121.36 866.839 122C866.893 122.053 866.919 122.187 866.919 122.4C866.919 122.613 866.919 122.8 866.919 122.96C866.973 123.547 866.999 124.027 866.999 124.4C867.053 124.72 867.133 124.96 867.239 125.12L867.399 125.28C867.506 125.547 867.666 125.813 867.879 126.08C868.093 126.293 868.333 126.4 868.599 126.4C868.973 126.4 869.239 126.187 869.399 125.76C869.719 125.12 870.066 124.507 870.439 123.92C870.813 123.28 871.213 122.667 871.639 122.08L872.359 120.96C873.159 119.733 873.986 118.56 874.839 117.44C875.746 116.32 876.839 115.387 878.119 114.64L878.439 114.48C878.813 114.213 879.186 114 879.559 113.84C879.986 113.733 880.333 113.68 880.599 113.68C881.079 113.68 881.479 113.84 881.799 114.16C882.119 114.533 882.226 115.12 882.119 115.92C882.013 116.347 881.906 116.747 881.799 117.12C881.746 117.493 881.666 117.893 881.559 118.32C881.186 119.28 880.973 120.24 880.919 121.2C880.759 122.107 880.626 123.093 880.519 124.16C880.466 125.173 880.519 126.187 880.679 127.2C880.946 128.853 881.773 130.24 883.159 131.36C884.546 132.48 886.119 133.04 887.879 133.04C888.146 133.04 888.386 133.04 888.599 133.04C888.813 132.987 889.053 132.933 889.319 132.88C890.706 132.613 892.119 132.213 893.559 131.68C894.999 131.093 896.413 130.427 897.799 129.68C898.653 129.253 899.479 128.747 900.279 128.16C901.133 127.52 901.959 126.907 902.759 126.32C903.559 125.733 904.359 125.173 905.159 124.64C906.013 124.053 906.813 123.547 907.559 123.12C907.613 123.067 907.719 123.04 907.879 123.04C908.093 123.04 908.199 123.093 908.199 123.2C908.253 123.307 908.199 123.493 908.039 123.76C907.879 123.973 907.533 124.32 906.999 124.8C906.413 125.28 905.719 125.787 904.919 126.32C904.173 126.853 903.399 127.387 902.599 127.92C901.799 128.453 900.999 128.96 900.199 129.44C899.453 129.867 898.786 130.24 898.199 130.56C896.813 131.307 895.159 132.053 893.239 132.8C891.319 133.547 889.346 133.92 887.319 133.92ZM906.854 151.2C905.307 151.2 904.134 150.853 903.334 150.16C902.534 149.52 902 148.453 901.734 146.96C901.414 145.36 901.84 143.92 903.014 142.64C903.92 141.68 904.907 140.88 905.974 140.24C907.04 139.653 908.08 139.173 909.094 138.8C910.16 138.427 911.147 138.133 912.054 137.92C913.014 137.707 913.814 137.547 914.454 137.44L914.854 137.36C915.707 137.147 916.8 136.96 918.134 136.8C919.467 136.64 920.48 136.533 921.174 136.48C921.227 136.267 921.254 135.76 921.254 134.96C921.307 134.16 921.334 133.6 921.334 133.28V121.04C921.334 120.933 921.28 120.667 921.174 120.24L921.094 120L920.934 119.04L920.214 120.16L919.814 120.72L918.454 122.24C917.92 122.88 917.36 123.52 916.774 124.16C916.24 124.8 915.68 125.413 915.094 126C913.707 127.227 912.267 127.84 910.774 127.84C910.187 127.84 909.494 127.707 908.694 127.44C907.574 126.96 907.04 126.267 907.094 125.36C907.2 124.773 907.28 124.213 907.334 123.68C907.387 123.147 907.52 122.64 907.734 122.16C908.16 121.36 908.64 120.507 909.174 119.6C909.76 118.693 910.56 117.893 911.574 117.2C913.12 116.133 914.614 115.6 916.054 115.6C916.8 115.6 917.494 115.707 918.134 115.92C918.454 116.027 918.694 116.08 918.854 116.08C919.28 116.08 919.574 115.947 919.734 115.68C919.947 115.36 920.08 115.12 920.134 114.96L920.294 114.32L920.454 113.68C920.774 113.147 921.227 112.88 921.814 112.88C922.08 112.88 922.294 112.907 922.454 112.96C923.147 113.173 923.494 113.68 923.494 114.48V121.68V124.88V127.04V134.16C923.494 134.427 923.494 134.747 923.494 135.12C923.494 135.493 923.467 135.787 923.414 136C923.627 136 923.947 135.92 924.374 135.76C924.854 135.653 925.147 135.547 925.254 135.44L926.694 134.88C928.88 134.027 931.04 133.12 933.174 132.16C935.307 131.147 937.307 129.84 939.174 128.24L939.574 127.92C940.374 127.173 941.254 126.4 942.214 125.6C943.174 124.747 943.92 124 944.454 123.36C944.56 123.253 944.694 123.173 944.854 123.12C945.067 123.067 945.2 123.093 945.254 123.2C945.307 123.307 945.28 123.52 945.174 123.84C945.067 124.107 944.774 124.507 944.294 125.04C943.494 126 942.614 126.907 941.654 127.76C940.694 128.56 939.707 129.333 938.694 130.08C937.68 130.773 936.667 131.413 935.654 132C934.64 132.533 933.68 132.987 932.774 133.36C931.867 133.733 930.987 134.08 930.134 134.4C929.28 134.72 928.4 135.04 927.494 135.36C927.174 135.467 926.8 135.573 926.374 135.68C925.947 135.84 925.52 136 925.094 136.16C924.667 136.32 924.294 136.48 923.974 136.64C923.654 136.8 923.44 136.907 923.334 136.96C923.227 137.28 923.067 137.707 922.854 138.24C922.694 138.827 922.56 139.28 922.454 139.6L921.814 141.76C920.427 145.44 917.947 148 914.374 149.44C913.52 149.76 912.48 150.08 911.254 150.4C910.08 150.773 908.88 151.013 907.654 151.12C907.494 151.173 907.227 151.2 906.854 151.2ZM912.374 138.56C911.52 138.773 910.56 139.067 909.494 139.44C908.48 139.813 907.52 140.347 906.614 141.04C904.747 142.533 903.734 144.08 903.574 145.68C903.52 147.813 903.974 149.253 904.934 150C905.36 150.373 906.16 150.56 907.334 150.56C907.92 150.56 908.454 150.533 908.934 150.48C909.467 150.427 909.787 150.373 909.894 150.32C911.334 149.84 912.747 149.253 914.134 148.56C915.52 147.92 916.694 146.907 917.654 145.52C918.347 144.507 919.014 143.28 919.654 141.84C920.294 140.4 920.774 139.013 921.094 137.68V137.44C919.814 137.547 918.614 137.68 917.494 137.84C916.534 137.947 915.547 138.053 914.534 138.16C913.574 138.32 912.854 138.453 912.374 138.56ZM916.374 116.56C916.214 116.56 916 116.587 915.734 116.64C915.52 116.693 915.28 116.773 915.014 116.88C914.587 117.147 914.027 117.547 913.334 118.08C912.694 118.56 912.08 119.173 911.494 119.92C910.907 120.667 910.427 121.547 910.054 122.56C909.68 123.573 909.574 124.72 909.734 126C909.84 126.587 910.294 126.88 911.094 126.88C911.627 126.88 912 126.773 912.214 126.56C912.96 125.867 913.627 125.227 914.214 124.64C914.8 124 915.414 123.253 916.054 122.4C916.214 122.24 916.427 121.947 916.694 121.52C916.96 121.093 917.2 120.64 917.414 120.16C917.68 119.68 917.867 119.2 917.974 118.72C918.08 118.187 918.054 117.733 917.894 117.36C917.787 117.2 917.627 117.04 917.414 116.88C917.254 116.72 916.96 116.613 916.534 116.56H916.374ZM997.536 123.28C997.536 122.213 997.509 121.173 997.456 120.16C997.456 119.147 997.482 118.133 997.536 117.12C997.589 115.627 997.616 114.16 997.616 112.72C997.669 111.28 997.749 109.813 997.856 108.32C997.909 107.467 997.936 106.613 997.936 105.76C997.989 104.907 998.069 104.053 998.176 103.2C998.336 101.493 998.496 99.8133 998.656 98.16C998.816 96.4533 998.976 94.7467 999.136 93.04C999.189 92.4533 999.216 91.9467 999.216 91.52C999.269 91.04 999.296 90.72 999.296 90.56C999.189 90.6133 998.922 90.72 998.496 90.88C998.069 91.04 997.562 91.2267 996.976 91.44C994.842 92.1867 992.736 93.0133 990.656 93.92C988.629 94.7733 986.602 95.7333 984.576 96.8C984.416 96.9067 984.229 97.0133 984.016 97.12C983.856 97.1733 983.696 97.2533 983.536 97.36C983.322 97.4667 983.216 97.52 983.216 97.52C983.216 97.52 983.189 97.5467 983.136 97.6C982.869 99.4133 982.496 101.333 982.016 103.36C981.536 105.387 980.976 107.253 980.336 108.96C979.642 110.773 978.816 112.507 977.856 114.16C976.949 115.76 975.802 117.253 974.416 118.64C973.509 119.547 972.549 120.373 971.536 121.12C970.522 121.867 969.349 122.453 968.016 122.88C967.322 123.093 966.656 123.227 966.016 123.28C965.322 123.333 964.602 123.28 963.856 123.12C963.109 122.907 962.522 122.533 962.096 122C961.616 121.413 961.322 120.747 961.216 120C961.109 119.093 961.189 118.24 961.456 117.44C961.669 116.587 961.962 115.76 962.336 114.96C962.816 113.84 963.402 112.773 964.096 111.76C964.789 110.747 965.536 109.787 966.336 108.88C967.402 107.707 968.496 106.587 969.616 105.52C970.736 104.4 971.936 103.387 973.216 102.48C975.456 100.88 977.696 99.36 979.936 97.92C980.096 97.8133 980.256 97.7067 980.416 97.6C980.629 97.44 980.789 97.3067 980.896 97.2C981.056 97.0933 981.189 96.9867 981.296 96.88C981.402 95.9733 981.482 95.12 981.536 94.32C981.589 93.6267 981.616 92.9333 981.616 92.24C981.669 91.4933 981.722 90.88 981.776 90.4C981.882 89.4933 981.909 88.6133 981.856 87.76C981.856 86.8533 981.856 85.9467 981.856 85.04C981.909 84.1333 981.882 83.2533 981.776 82.4C981.722 81.5467 981.562 80.6933 981.296 79.84C981.189 79.6267 981.109 79.4667 981.056 79.36C981.056 79.2533 980.922 79.3333 980.656 79.6C980.336 79.9733 980.042 79.9733 979.776 79.6C979.616 79.3333 979.589 79.04 979.696 78.72C979.909 78.1333 980.336 77.8133 980.976 77.76C981.669 77.7067 982.202 77.92 982.576 78.4C982.842 78.8267 983.056 79.28 983.216 79.76C983.376 80.24 983.509 80.72 983.616 81.2C983.882 82.9067 983.989 84.6133 983.936 86.32C983.882 88.0267 983.856 89.7333 983.856 91.44C983.856 91.92 983.802 92.4 983.696 92.88C983.642 93.3067 983.589 93.76 983.536 94.24V95.76C983.962 95.6 984.389 95.3867 984.816 95.12C986.949 94.0533 989.109 93.0933 991.296 92.24C993.482 91.3333 995.696 90.5067 997.936 89.76C1000.98 88.7467 1004.1 87.8133 1007.3 86.96C1010.55 86.1067 1013.67 85.3867 1016.66 84.8C1018.36 84.48 1020.04 84.16 1021.7 83.84C1023.4 83.52 1025.11 83.2267 1026.82 82.96C1028.2 82.6933 1029.59 82.5333 1030.98 82.48C1032.42 82.4267 1033.86 82.4267 1035.3 82.48C1035.62 82.5333 1035.94 82.6133 1036.26 82.72C1036.63 82.7733 1036.98 82.88 1037.3 83.04C1037.83 83.2533 1038.07 83.5467 1038.02 83.92C1038.02 84.2933 1037.8 84.6133 1037.38 84.88C1036.95 85.1467 1036.52 85.28 1036.1 85.28C1035.72 85.28 1035.32 85.2533 1034.9 85.2C1034.47 85.0933 1034.23 84.96 1034.18 84.8C1034.12 84.64 1034.34 84.5333 1034.82 84.48H1035.38C1036.02 84.2667 1036.2 84.08 1035.94 83.92C1035.67 83.7067 1035.48 83.5733 1035.38 83.52C1034.47 83.36 1033.54 83.3067 1032.58 83.36C1031.62 83.4133 1030.68 83.4933 1029.78 83.6C1028.87 83.7067 1027.94 83.84 1026.98 84C1026.07 84.16 1025.16 84.32 1024.26 84.48C1022.98 84.7467 1021.67 84.9867 1020.34 85.2C1019.06 85.36 1017.78 85.6 1016.5 85.92C1014.31 86.4533 1012.18 86.9867 1010.1 87.52C1008.02 88.0533 1005.91 88.6133 1003.78 89.2C1003.46 89.3067 1003.03 89.44 1002.5 89.6C1001.96 89.7067 1001.54 89.8133 1001.22 89.92V90.72C1001.11 91.84 1001.03 92.96 1000.98 94.08C1000.98 95.2 1000.92 96.32 1000.82 97.44C1000.71 99.1467 1000.6 100.827 1000.5 102.48C1000.39 104.133 1000.28 105.813 1000.18 107.52C1000.07 108.427 999.989 109.307 999.936 110.16C999.936 111.013 999.909 111.893 999.856 112.8C999.749 114.293 999.669 115.76 999.616 117.2C999.562 118.64 999.509 120.107 999.456 121.6C999.402 122.88 999.349 124.16 999.296 125.44C999.242 126.667 999.216 127.92 999.216 129.2C999.216 129.893 999.242 130.56 999.296 131.2C999.402 131.84 999.509 132.48 999.616 133.12C999.776 134.347 1000.31 135.493 1001.22 136.56C1001.27 136.613 1001.3 136.667 1001.3 136.72C1001.3 136.773 1001.32 136.853 1001.38 136.96C1001.27 136.96 1001.11 137.013 1000.9 137.12C1000.31 137.12 999.856 136.96 999.536 136.64C998.682 135.787 998.096 134.747 997.776 133.52C997.509 132.347 997.402 131.2 997.456 130.08C997.509 128.907 997.509 127.733 997.456 126.56V123.28H997.536ZM962.976 118.72C962.976 120.16 963.376 121.2 964.176 121.84C964.922 122.427 965.909 122.507 967.136 122.08C968.202 121.653 969.162 121.12 970.016 120.48C970.869 119.787 971.669 119.04 972.416 118.24C974.282 116.267 975.776 114.107 976.896 111.76C977.696 110.107 978.362 108.427 978.896 106.72C979.429 104.96 979.882 103.173 980.256 101.36C980.309 101.093 980.336 100.88 980.336 100.72C980.389 100.507 980.442 100.293 980.496 100.08C980.602 99.76 980.656 99.4133 980.656 99.04C980.549 99.0933 980.416 99.1733 980.256 99.28C980.096 99.3867 979.962 99.4667 979.856 99.52C979.642 99.6267 979.456 99.76 979.296 99.92C978.069 100.773 976.842 101.653 975.616 102.56C974.389 103.413 973.216 104.347 972.096 105.36C969.216 107.813 966.842 110.56 964.976 113.6C963.909 115.36 963.242 117.067 962.976 118.72ZM1028.83 132.48C1026.37 131.68 1024.4 130 1022.91 127.44C1022 125.893 1021.04 125.12 1020.03 125.12C1019.07 125.12 1018.11 125.84 1017.15 127.28C1016.88 127.653 1016.64 128.053 1016.43 128.48C1016.27 128.907 1016.08 129.333 1015.87 129.76L1015.55 130.56L1015.07 131.92L1014.99 132.24C1014.88 132.72 1014.4 132.987 1013.55 133.04C1012.75 133.04 1012.27 132.773 1012.11 132.24L1012.03 131.84C1011.92 131.52 1011.84 131.2 1011.79 130.88C1011.73 130.507 1011.68 130.16 1011.62 129.84C1011.52 126.96 1011.52 124.32 1011.62 121.92C1011.62 121.653 1011.65 121.227 1011.71 120.64C1011.76 120 1011.81 119.307 1011.87 118.56C1011.92 117.813 1011.97 117.067 1012.03 116.32C1012.08 115.573 1012.13 114.907 1012.19 114.32C1012.45 111.6 1012.96 109.2 1013.71 107.12C1014.45 104.987 1015.44 103.067 1016.67 101.36C1018.64 98.6933 1020.91 97.12 1023.47 96.64C1023.73 96.5867 1023.97 96.56 1024.19 96.56C1024.4 96.5067 1024.61 96.48 1024.83 96.48C1026.48 96.48 1028 97.0933 1029.39 98.32C1030.29 99.12 1030.67 100.293 1030.51 101.84C1030.24 103.6 1029.6 105.147 1028.59 106.48C1027.57 107.813 1026.59 109.093 1025.63 110.32C1024.83 111.333 1023.92 112.267 1022.91 113.12C1021.95 113.973 1020.93 114.747 1019.87 115.44C1018.85 116.133 1017.87 116.773 1016.9 117.36C1015.95 117.893 1015.09 118.373 1014.35 118.8C1014.29 119.067 1014.24 119.387 1014.19 119.76C1014.19 120.08 1014.21 120.453 1014.26 120.88C1014.32 121.413 1014.32 121.947 1014.26 122.48C1014.26 122.96 1014.26 123.493 1014.26 124.08V126C1014.26 126.427 1014.32 126.693 1014.43 126.8C1014.59 126.853 1014.72 126.88 1014.83 126.88C1015.04 126.88 1015.28 126.747 1015.55 126.48C1016.45 125.573 1017.44 124.987 1018.51 124.72C1019.25 124.453 1020.05 124.32 1020.91 124.32C1022.67 124.32 1024.08 125.173 1025.15 126.88C1027.92 130.933 1031.55 132.96 1036.03 132.96C1037.89 132.96 1039.68 132.72 1041.39 132.24C1042.83 131.867 1044.24 131.307 1045.63 130.56C1047.07 129.813 1048.43 129.04 1049.71 128.24C1051.04 127.387 1052.24 126.533 1053.31 125.68C1054.43 124.773 1055.39 124 1056.19 123.36C1056.4 123.147 1056.64 122.987 1056.91 122.88C1057.23 122.72 1057.44 122.693 1057.55 122.8C1057.65 122.853 1057.63 123.04 1057.47 123.36C1057.36 123.68 1056.96 124.213 1056.27 124.96C1056 125.227 1055.39 125.733 1054.43 126.48C1053.47 127.227 1052.27 128.053 1050.83 128.96C1049.39 129.867 1047.79 130.747 1046.03 131.6C1044.27 132.4 1042.48 133.013 1040.67 133.44C1038.69 133.92 1036.69 134.027 1034.67 133.76C1032.64 133.493 1030.69 133.067 1028.83 132.48ZM1025.23 97.52C1024.48 97.52 1023.63 97.7333 1022.67 98.16C1021.76 98.5867 1021.01 99.12 1020.43 99.76C1018.83 101.52 1017.52 103.52 1016.51 105.76C1015.55 108 1014.91 110.72 1014.59 113.92C1014.53 114.187 1014.51 114.48 1014.51 114.8C1014.51 115.12 1014.48 115.493 1014.43 115.92C1014.43 116.293 1014.43 116.693 1014.43 117.12C1014.75 116.96 1015.15 116.747 1015.63 116.48C1016.16 116.213 1016.48 116.027 1016.59 115.92C1020.85 113.253 1024.19 109.947 1026.59 106C1027.49 104.507 1028.03 102.96 1028.19 101.36C1028.4 99.5467 1027.73 98.32 1026.19 97.68C1025.87 97.5733 1025.55 97.52 1025.23 97.52ZM1082.71 132.72C1081.59 132.72 1080.42 132.613 1079.19 132.4C1078.02 132.133 1076.74 131.787 1075.35 131.36C1072.79 130.453 1071.01 128.88 1069.99 126.64C1069.83 126.373 1069.7 126.107 1069.59 125.84C1069.54 125.573 1069.43 125.307 1069.27 125.04C1069.11 125.147 1068.9 125.307 1068.63 125.52C1068.42 125.733 1068.18 125.973 1067.91 126.24C1067.17 126.88 1066.29 127.547 1065.27 128.24C1064.05 129.04 1062.77 129.44 1061.43 129.44C1060.63 129.44 1059.83 129.36 1059.03 129.2C1058.23 128.987 1057.51 128.507 1056.87 127.76C1056.82 127.707 1056.74 127.6 1056.63 127.44C1056.53 127.227 1056.42 126.907 1056.31 126.48C1056.26 126.053 1056.26 125.467 1056.31 124.72C1056.31 123.92 1056.39 122.907 1056.55 121.68C1056.66 120.987 1056.82 120.32 1057.03 119.68C1057.25 118.987 1057.49 118.347 1057.75 117.76C1057.86 117.493 1058.05 117.28 1058.31 117.12C1058.58 116.907 1058.87 116.8 1059.19 116.8C1059.41 116.8 1059.67 116.853 1059.99 116.96C1059.99 117.013 1059.99 117.093 1059.99 117.2C1060.05 117.253 1060.07 117.333 1060.07 117.44C1059.81 118.507 1059.57 119.547 1059.35 120.56C1059.14 121.573 1058.93 122.613 1058.71 123.68C1058.5 124.64 1058.45 125.467 1058.55 126.16C1058.66 126.8 1059.09 127.333 1059.83 127.76C1060.79 128.24 1061.73 128.347 1062.63 128.08C1063.59 127.76 1064.47 127.253 1065.27 126.56C1066.07 125.867 1066.79 125.067 1067.43 124.16C1068.07 123.2 1068.58 122.293 1068.95 121.44C1069.06 121.227 1069.17 120.907 1069.27 120.48C1069.33 120.107 1069.46 119.733 1069.67 119.36C1069.78 119.253 1069.97 119.147 1070.23 119.04C1070.5 118.88 1070.77 118.8 1071.03 118.8C1071.25 118.8 1071.41 118.853 1071.51 118.96C1071.73 119.173 1071.81 119.44 1071.75 119.76V122.72V123.12C1071.86 127.067 1073.67 129.653 1077.19 130.88C1078.79 131.413 1080.58 131.68 1082.55 131.68C1084.31 131.68 1085.97 131.44 1087.51 130.96C1089.22 130.427 1090.82 129.867 1092.31 129.28C1093.86 128.693 1095.49 127.947 1097.19 127.04L1098.39 126.4C1099.83 125.653 1101.22 124.987 1102.55 124.4C1103.89 123.76 1105.38 123.28 1107.03 122.96C1107.41 122.907 1107.62 122.907 1107.67 122.96C1107.78 123.013 1107.81 123.093 1107.75 123.2C1107.7 123.307 1107.59 123.44 1107.43 123.6C1107.27 123.707 1107.11 123.787 1106.95 123.84C1104.45 124.747 1101.86 125.947 1099.19 127.44C1097.7 128.293 1096.1 129.013 1094.39 129.6C1092.74 130.187 1091.06 130.773 1089.35 131.36L1088.15 131.76C1086.29 132.4 1084.47 132.72 1082.71 132.72ZM1112.89 160.16C1110.97 160.16 1109.69 159.52 1109.05 158.24C1107.34 155.04 1107.18 151.867 1108.57 148.72C1109.79 145.947 1111.45 143.813 1113.53 142.32C1115.66 140.827 1117.82 139.627 1120.01 138.72C1120.06 138.72 1120.25 138.667 1120.57 138.56C1120.89 138.453 1121.23 138.32 1121.61 138.16C1122.03 138 1122.41 137.84 1122.73 137.68C1123.1 137.52 1123.34 137.387 1123.45 137.28C1123.45 137.013 1123.45 136.773 1123.45 136.56C1123.5 136.347 1123.47 136.027 1123.37 135.6C1123.21 134.693 1123.02 133.52 1122.81 132.08C1122.59 130.587 1122.38 129.12 1122.17 127.68C1121.9 125.92 1121.69 124.56 1121.53 123.6C1121.42 122.587 1121.34 122 1121.29 121.84L1121.05 121.12L1120.25 122.16C1120.14 122.373 1120.01 122.56 1119.85 122.72C1119.69 122.88 1119.55 123.067 1119.45 123.28C1118.43 124.72 1117.37 125.867 1116.25 126.72C1115.18 127.52 1113.95 128.053 1112.57 128.32C1112.3 128.373 1112.06 128.427 1111.85 128.48C1111.63 128.48 1111.39 128.48 1111.13 128.48C1109.47 128.48 1108.01 127.733 1106.73 126.24C1106.62 126.08 1106.46 125.787 1106.25 125.36C1106.09 124.88 1105.93 124.373 1105.77 123.84C1105.55 123.253 1105.39 122.667 1105.29 122.08C1105.13 121.44 1105.02 120.88 1104.97 120.4C1104.91 119.653 1105.15 119.253 1105.69 119.2H1106.17C1106.49 119.2 1106.73 119.253 1106.89 119.36C1107.1 119.467 1107.26 119.76 1107.37 120.24C1107.47 120.453 1107.53 120.667 1107.53 120.88C1107.53 121.093 1107.55 121.333 1107.61 121.6C1107.71 122.773 1107.95 123.787 1108.33 124.64C1108.75 125.44 1109.34 126.213 1110.09 126.96C1110.57 127.493 1111.1 127.76 1111.69 127.76C1112.06 127.76 1112.51 127.627 1113.05 127.36C1114.75 126.56 1116.19 125.387 1117.37 123.84C1117.74 123.307 1118.09 122.827 1118.41 122.4C1118.73 121.92 1119.07 121.387 1119.45 120.8C1119.87 120.053 1120.17 119.253 1120.33 118.4C1120.49 117.547 1120.51 116.693 1120.41 115.84C1120.35 115.52 1120.33 115.147 1120.33 114.72C1120.38 114.293 1120.49 113.893 1120.65 113.52C1120.75 113.307 1120.94 113.12 1121.21 112.96C1121.47 112.747 1121.74 112.64 1122.01 112.64C1122.38 112.64 1122.65 112.747 1122.81 112.96C1122.91 113.067 1122.97 113.28 1122.97 113.6C1122.86 114.667 1122.89 115.733 1123.05 116.8C1123.21 117.813 1123.42 118.8 1123.69 119.76C1123.79 120.347 1123.9 120.933 1124.01 121.52C1124.17 122.053 1124.27 122.613 1124.33 123.2C1124.43 124 1124.54 124.8 1124.65 125.6C1124.75 126.347 1124.86 127.12 1124.97 127.92L1125.37 130.8C1125.37 131.013 1125.39 131.387 1125.45 131.92C1125.55 132.4 1125.66 132.96 1125.77 133.6C1125.87 134.187 1125.95 134.747 1126.01 135.28C1126.11 135.867 1126.19 136.293 1126.25 136.56L1126.33 136.88L1127.77 136.72C1128.19 136.613 1128.59 136.533 1128.97 136.48C1129.34 136.427 1129.71 136.347 1130.09 136.24C1134.41 135.173 1138.62 134.053 1142.73 132.88C1146.89 131.653 1150.97 130.213 1154.97 128.56C1156.41 127.973 1157.69 127.36 1158.81 126.72C1159.98 126.027 1161.05 125.227 1162.01 124.32C1162.38 124 1162.67 123.84 1162.89 123.84C1163.15 123.787 1163.31 123.84 1163.37 124C1163.47 124.107 1163.5 124.267 1163.45 124.48C1163.45 124.64 1163.34 124.8 1163.13 124.96C1162.91 125.12 1162.75 125.253 1162.65 125.36C1162.54 125.413 1162.43 125.493 1162.33 125.6C1162.22 125.707 1162.09 125.813 1161.93 125.92C1161.82 126.027 1161.66 126.16 1161.45 126.32C1159.58 127.6 1157.69 128.667 1155.77 129.52C1153.9 130.32 1152.11 131.013 1150.41 131.6C1147.05 132.773 1143.53 133.84 1139.85 134.8C1136.17 135.813 1132.09 136.8 1127.61 137.76C1127.23 137.867 1126.97 137.92 1126.81 137.92C1126.65 137.973 1126.54 138 1126.49 138C1126.43 138 1126.38 138 1126.33 138C1126.33 138.053 1126.25 138.08 1126.09 138.08C1126.09 139.04 1126.03 140.08 1125.93 141.2C1125.82 142.373 1125.66 143.547 1125.45 144.72C1125.29 145.947 1125.05 147.173 1124.73 148.4C1124.41 149.627 1124.06 150.747 1123.69 151.76C1122.25 155.92 1119.47 158.587 1115.37 159.76C1115.26 159.813 1114.97 159.893 1114.49 160C1114.01 160.107 1113.47 160.16 1112.89 160.16ZM1121.93 139.36C1115.9 141.6 1112.03 144.987 1110.33 149.52C1109.9 150.64 1109.63 151.653 1109.53 152.56C1109.47 153.467 1109.53 154.267 1109.69 154.96C1109.85 155.653 1110.06 156.24 1110.33 156.72C1110.65 157.253 1110.94 157.68 1111.21 158C1111.85 158.64 1112.57 158.96 1113.37 158.96C1113.58 158.96 1113.74 158.933 1113.85 158.88C1115.45 158.453 1116.7 157.893 1117.61 157.2C1118.51 156.507 1119.26 155.52 1119.85 154.24C1120.43 152.96 1120.97 151.653 1121.45 150.32C1121.61 149.787 1121.79 148.88 1122.01 147.6C1122.27 146.373 1122.51 145.093 1122.73 143.76C1122.94 142.213 1123.21 140.533 1123.53 138.72C1123.26 138.827 1123.02 138.933 1122.81 139.04C1122.27 139.253 1121.98 139.36 1121.93 139.36Z" fill="black"/>
</svg>
