<svg width="197" height="146" viewBox="0 0 197 146" fill="none" xmlns="http://www.w3.org/2000/svg">
<path d="M177.557 41.6391C181.263 50.9117 177.067 63.2596 165.286 76.1416C153.663 88.8511 135.321 101.259 112.977 110.187C90.6329 119.115 68.7912 122.764 51.6102 121.564C34.1961 120.348 22.6462 114.291 18.9411 105.019C15.236 95.7464 19.4321 83.3985 31.2127 70.5165C42.8357 57.8069 61.1776 45.3993 83.5216 36.4711C105.866 27.5429 127.707 23.894 144.888 25.0941C162.302 26.3105 173.852 32.3666 177.557 41.6391Z" stroke="white" stroke-width="6"/>
<path d="M84.604 77.932V80H74.748L79.83 73.84C80.336 73.224 81.106 72.256 81.59 71.552C82.008 70.936 82.36 70.298 82.36 69.44C82.36 68.208 81.546 67.064 79.918 67.064C78.268 67.064 77.41 68.34 77.322 69.726H75.166C75.232 68.296 75.826 67.152 76.398 66.514C76.926 65.92 77.982 65.084 79.83 65.084C82.954 65.084 84.56 67.218 84.56 69.506C84.56 70.716 84.098 71.706 83.504 72.586C82.976 73.378 82.294 74.192 81.414 75.226L79.126 77.932H84.604ZM92.7519 80.242C91.4319 80.242 90.3539 79.714 89.4299 78.658C87.8899 76.898 87.5599 74.588 87.5599 72.674C87.5599 70.782 87.8899 68.428 89.4299 66.668C90.3539 65.612 91.4539 65.084 92.7519 65.084C94.0499 65.084 95.1499 65.612 96.0739 66.668C97.6139 68.428 97.9439 70.782 97.9439 72.674C97.9439 74.588 97.6139 76.898 96.0739 78.658C95.1499 79.714 94.0719 80.242 92.7519 80.242ZM92.7519 67.064C92.1799 67.064 91.4099 67.306 90.7719 68.274C89.9579 69.484 89.7599 71.376 89.7599 72.652C89.7599 73.95 89.9579 75.82 90.7719 77.052C91.4099 78.02 92.1799 78.262 92.7519 78.262C93.3239 78.262 94.0939 78.02 94.7319 77.052C95.5459 75.82 95.7439 73.95 95.7439 72.652C95.7439 71.376 95.5459 69.484 94.7319 68.274C94.0939 67.306 93.3239 67.064 92.7519 67.064ZM109.612 77.932V80H99.7558L104.838 73.84C105.344 73.224 106.114 72.256 106.598 71.552C107.016 70.936 107.368 70.298 107.368 69.44C107.368 68.208 106.554 67.064 104.926 67.064C103.276 67.064 102.418 68.34 102.33 69.726H100.174C100.24 68.296 100.834 67.152 101.406 66.514C101.934 65.92 102.99 65.084 104.838 65.084C107.962 65.084 109.568 67.218 109.568 69.506C109.568 70.716 109.106 71.706 108.512 72.586C107.984 73.378 107.302 74.192 106.422 75.226L104.134 77.932H109.612ZM119.842 64.248V75.16H121.426V77.228H119.842V80H117.686V77.228H110.426L119.842 64.248ZM114.342 75.204H117.686V70.474L114.342 75.204Z" fill="white"/>
</svg>
