<svg width="1920" height="358" viewBox="0 0 1920 358" fill="none" xmlns="http://www.w3.org/2000/svg">
<path d="M46.8648 88.93C46.2914 90.9367 45.1448 91.94 43.4248 91.94C39.9848 91.94 38.6948 90.65 39.5548 88.07C39.5548 87.21 39.6981 86.35 39.9848 85.49C40.2714 84.63 40.5581 83.77 40.8448 82.91C44.2848 72.59 45.4314 62.4133 44.2848 52.38C42.8514 36.04 35.1114 23.8567 21.0648 15.83C17.9114 13.8233 14.0414 13.5367 9.45477 14.97C3.14811 16.69 -2.72856 19.1267 -8.17522 22.28C-13.6219 25.1467 -18.9252 28.4433 -24.0852 32.17C-41.5719 43.9233 -57.3386 57.2533 -71.3852 72.16C-81.1319 82.1933 -90.1619 92.6567 -98.4752 103.55C-106.502 114.443 -113.669 126.053 -119.975 138.38C-121.409 141.533 -122.842 144.83 -124.275 148.27C-125.422 151.423 -126.425 154.72 -127.285 158.16C-127.859 159.88 -128.145 161.743 -128.145 163.75C-128.145 165.757 -127.859 167.62 -127.285 169.34C-126.425 172.78 -124.849 175.36 -122.555 177.08C-120.262 178.8 -117.539 179.66 -114.385 179.66C-108.939 179.66 -103.635 179.23 -98.4752 178.37C-93.3152 177.51 -88.1552 176.363 -82.9952 174.93C-74.6819 173.21 -66.6552 171.347 -58.9152 169.34C-50.8886 167.047 -42.7186 165.183 -34.4052 163.75C-18.3519 160.597 -2.72857 159.88 12.4648 161.6C21.0648 162.46 29.0914 164.61 36.5448 168.05C44.2848 171.203 51.0214 176.22 56.7548 183.1C58.4748 185.393 60.4814 188.403 62.7748 192.13C65.0681 195.57 66.9314 198.437 68.3648 200.73C68.9381 200.443 69.3681 200.3 69.6548 200.3C69.9414 200.3 70.8014 200.013 72.2348 199.44C77.6814 197.433 83.2714 195.713 89.0048 194.28C91.8714 193.707 94.5948 193.42 97.1748 193.42C100.041 193.42 102.908 193.42 105.775 193.42C106.348 193.42 107.065 193.707 107.925 194.28C108.785 194.567 109.215 194.997 109.215 195.57C109.215 197.29 108.641 198.723 107.495 199.87C106.921 200.443 105.631 201.303 103.625 202.45C97.3181 205.603 90.2948 207.467 82.5548 208.04C81.4081 208.04 79.4014 208.183 76.5348 208.47C73.9548 208.757 71.9481 209.043 70.5148 209.33C70.8014 209.903 70.8014 210.333 70.5148 210.62C70.5148 210.62 70.6581 211.767 70.9448 214.06C71.8048 223.52 70.9448 232.55 68.3648 241.15C65.7848 250.037 62.0581 258.637 57.1848 266.95C43.9981 289.597 27.3714 309.807 7.30477 327.58C-9.3219 342.487 -28.2419 352.233 -49.4552 356.82C-53.1819 357.393 -56.9086 357.68 -60.6352 357.68C-64.3619 357.68 -68.2319 356.963 -72.2452 355.53C-77.6919 353.81 -81.8486 350.657 -84.7152 346.07C-87.2952 341.77 -88.0119 336.323 -86.8652 329.73C-86.0052 324.857 -84.4286 320.413 -82.1352 316.4C-79.8419 312.673 -77.4052 308.947 -74.8252 305.22C-68.2319 296.047 -61.2086 287.59 -53.7552 279.85C-46.0152 272.397 -37.8452 265.23 -29.2452 258.35C-22.0786 252.617 -14.9119 247.17 -7.74523 242.01C-0.291896 236.85 7.30477 231.977 15.0448 227.39C20.4914 224.237 25.7948 221.37 30.9548 218.79C36.4014 216.21 41.8481 213.487 47.2948 210.62C47.8681 210.047 49.3014 209.33 51.5948 208.47C54.1748 207.323 55.8948 206.463 56.7548 205.89C56.1814 205.317 55.8948 204.887 55.8948 204.6C55.8948 204.313 55.4648 203.167 54.6048 201.16C50.3048 190.553 43.1381 182.24 33.1048 176.22C18.7714 167.907 2.86143 165.04 -14.6252 167.62C-18.9252 168.48 -23.2252 169.197 -27.5252 169.77C-31.8252 170.343 -36.1252 171.06 -40.4252 171.92C-47.8786 173.353 -55.1886 174.93 -62.3552 176.65C-69.2352 178.37 -76.2586 180.09 -83.4252 181.81C-87.7252 182.67 -92.0252 183.53 -96.3252 184.39C-100.339 184.963 -104.495 185.537 -108.795 186.11C-112.522 186.683 -116.105 186.683 -119.545 186.11C-122.985 185.25 -126.282 184.103 -129.435 182.67C-133.449 181.237 -136.602 178.37 -138.895 174.07C-140.902 169.77 -141.189 164.467 -139.755 158.16C-138.322 151.853 -136.315 145.833 -133.735 140.1C-130.869 134.367 -127.859 128.777 -124.705 123.33C-118.972 113.87 -112.665 104.84 -105.785 96.24C-98.9052 87.64 -91.5952 79.3267 -83.8552 71.3C-75.2552 62.4133 -66.3686 53.9567 -57.1952 45.93C-48.0219 37.9033 -38.1319 30.5933 -27.5252 24C-22.9386 21.1333 -18.3519 18.5533 -13.7652 16.26C-9.17856 13.9667 -4.30523 11.96 0.854777 10.24C11.4614 7.08665 20.7781 7.37332 28.8048 11.1C37.1181 14.8267 43.8548 20.99 49.0148 29.59C50.4481 32.17 51.7381 35.8967 52.8848 40.77C54.0314 45.3567 54.6048 50.5167 54.6048 56.25C54.8914 61.6967 54.4614 67.43 53.3148 73.45C52.1681 79.1833 50.0181 84.3433 46.8648 88.93ZM-58.4852 350.8C-56.7652 350.227 -55.0452 349.797 -53.3252 349.51C-51.6052 349.51 -49.8852 349.223 -48.1652 348.65C-36.4119 345.21 -26.0919 339.907 -17.2052 332.74C-8.31856 325.86 0.138107 318.263 8.16477 309.95C11.6048 306.797 14.7581 303.357 17.6248 299.63C20.4914 296.19 23.5014 292.607 26.6548 288.88C31.5281 283.147 35.9714 277.127 39.9848 270.82C43.9981 264.8 47.5814 258.493 50.7348 251.9C55.8948 241.293 58.4748 230.257 58.4748 218.79V214.92C49.0148 220.08 38.9814 225.67 28.3748 231.69C18.0548 237.71 8.45144 244.017 -0.435232 250.61C-9.03523 256.917 -17.3486 263.223 -25.3752 269.53C-33.4019 276.123 -41.1419 283.29 -48.5952 291.03C-52.6086 295.617 -56.4786 300.203 -60.2052 304.79C-63.9319 309.377 -67.0852 314.537 -69.6652 320.27C-72.2452 325.717 -73.3919 331.163 -73.1052 336.61C-72.5319 345.497 -67.6586 350.227 -58.4852 350.8ZM275.914 232.12C269.894 232.12 263.587 231.547 256.994 230.4C250.687 228.967 243.807 227.103 236.354 224.81C222.594 219.937 212.99 211.48 207.544 199.44C206.684 198.007 205.967 196.573 205.394 195.14C205.107 193.707 204.534 192.273 203.674 190.84C202.814 191.413 201.667 192.273 200.234 193.42C199.087 194.567 197.797 195.857 196.364 197.29C192.35 200.73 187.62 204.313 182.174 208.04C175.58 212.34 168.7 214.49 161.534 214.49C157.234 214.49 152.934 214.06 148.634 213.2C144.334 212.053 140.464 209.473 137.024 205.46C136.737 205.173 136.307 204.6 135.734 203.74C135.16 202.593 134.587 200.873 134.014 198.58C133.727 196.287 133.727 193.133 134.014 189.12C134.014 184.82 134.444 179.373 135.304 172.78C135.877 169.053 136.737 165.47 137.884 162.03C139.03 158.303 140.32 154.863 141.754 151.71C142.327 150.277 143.33 149.13 144.764 148.27C146.197 147.123 147.774 146.55 149.494 146.55C150.64 146.55 152.074 146.837 153.794 147.41C153.794 147.697 153.794 148.127 153.794 148.7C154.08 148.987 154.224 149.417 154.224 149.99C152.79 155.723 151.5 161.313 150.354 166.76C149.207 172.207 148.06 177.797 146.914 183.53C145.767 188.69 145.48 193.133 146.054 196.86C146.627 200.3 148.92 203.167 152.934 205.46C158.094 208.04 163.11 208.613 167.984 207.18C173.144 205.46 177.874 202.737 182.174 199.01C186.474 195.283 190.344 190.983 193.784 186.11C197.224 180.95 199.947 176.077 201.954 171.49C202.527 170.343 203.1 168.623 203.674 166.33C203.96 164.323 204.677 162.317 205.824 160.31C206.397 159.737 207.4 159.163 208.834 158.59C210.267 157.73 211.7 157.3 213.134 157.3C214.28 157.3 215.14 157.587 215.714 158.16C216.86 159.307 217.29 160.74 217.004 162.46V178.37V180.52C217.577 201.733 227.324 215.637 246.244 222.23C254.844 225.097 264.447 226.53 275.054 226.53C284.514 226.53 293.4 225.24 301.714 222.66C310.887 219.793 319.487 216.783 327.514 213.63C335.827 210.477 344.57 206.463 353.744 201.59L360.194 198.15C367.934 194.137 375.387 190.553 382.554 187.4C389.72 183.96 397.747 181.38 406.634 179.66C408.64 179.373 409.787 179.373 410.074 179.66C410.647 179.947 410.79 180.377 410.504 180.95C410.217 181.523 409.644 182.24 408.784 183.1C407.924 183.673 407.064 184.103 406.204 184.39C392.73 189.263 378.827 195.713 364.494 203.74C356.467 208.327 347.867 212.197 338.694 215.35C329.807 218.503 320.777 221.657 311.604 224.81L305.154 226.96C295.12 230.4 285.374 232.12 275.914 232.12ZM523.234 238.57C515.781 238.57 509.044 237.28 503.024 234.7C498.724 232.98 494.711 229.97 490.984 225.67C487.258 221.083 484.104 215.637 481.524 209.33C479.231 202.737 477.654 195.427 476.794 187.4C475.934 179.087 476.221 170.343 477.654 161.17C477.941 159.737 478.228 158.447 478.514 157.3C478.801 156.153 479.231 154.863 479.804 153.43C480.091 152.57 480.378 151.71 480.664 150.85C480.951 149.99 481.238 149.13 481.524 148.27C481.524 147.983 481.668 147.267 481.954 146.12C482.241 144.687 482.241 143.54 481.954 142.68C481.954 141.533 481.238 140.96 479.804 140.96C478.658 140.96 476.651 141.963 473.784 143.97L470.344 147.84C468.338 149.847 466.331 151.853 464.324 153.86C462.604 155.867 461.028 158.017 459.594 160.31C457.301 164.037 455.008 167.763 452.714 171.49C450.421 175.217 448.128 179.087 445.834 183.1L440.244 192.99C435.371 201.303 429.638 205.46 423.044 205.46C418.458 205.46 413.584 203.31 408.424 199.01C406.991 197.863 405.414 196.143 403.694 193.85C402.261 191.557 400.971 189.263 399.824 186.97C398.391 184.677 397.388 182.527 396.814 180.52C395.954 178.513 395.668 177.08 395.954 176.22C397.388 171.92 399.824 169.627 403.264 169.34H405.844C409.571 169.34 412.008 171.06 413.154 174.5C413.441 174.787 413.584 175.503 413.584 176.65C413.584 177.797 413.584 178.8 413.584 179.66C413.871 182.813 414.014 185.393 414.014 187.4C414.301 189.12 414.731 190.41 415.304 191.27L416.164 192.13C416.738 193.563 417.598 194.997 418.744 196.43C419.891 197.577 421.181 198.15 422.614 198.15C424.621 198.15 426.054 197.003 426.914 194.71C428.634 191.27 430.498 187.973 432.504 184.82C434.511 181.38 436.661 178.083 438.954 174.93L442.824 168.91C447.124 162.317 451.568 156.01 456.154 149.99C461.028 143.97 466.904 138.953 473.784 134.94L475.504 134.08C477.511 132.647 479.518 131.5 481.524 130.64C483.818 130.067 485.681 129.78 487.114 129.78C489.694 129.78 491.844 130.64 493.564 132.36C495.284 134.367 495.858 137.52 495.284 141.82C494.711 144.113 494.138 146.263 493.564 148.27C493.278 150.277 492.848 152.427 492.274 154.72C490.268 159.88 489.121 165.04 488.834 170.2C487.974 175.073 487.258 180.377 486.684 186.11C486.398 191.557 486.684 197.003 487.544 202.45C488.978 211.337 493.421 218.79 500.874 224.81C508.328 230.83 516.784 233.84 526.244 233.84C527.678 233.84 528.968 233.84 530.114 233.84C531.261 233.553 532.551 233.267 533.984 232.98C541.438 231.547 549.034 229.397 556.774 226.53C564.514 223.377 572.111 219.793 579.564 215.78C584.151 213.487 588.594 210.763 592.894 207.61C597.481 204.17 601.924 200.873 606.224 197.72C610.524 194.567 614.824 191.557 619.124 188.69C623.711 185.537 628.011 182.813 632.024 180.52C632.311 180.233 632.884 180.09 633.744 180.09C634.891 180.09 635.464 180.377 635.464 180.95C635.751 181.523 635.464 182.527 634.604 183.96C633.744 185.107 631.881 186.97 629.014 189.55C625.861 192.13 622.134 194.853 617.834 197.72C613.821 200.587 609.664 203.453 605.364 206.32C601.064 209.187 596.764 211.91 592.464 214.49C588.451 216.783 584.868 218.79 581.714 220.51C574.261 224.523 565.374 228.537 555.054 232.55C544.734 236.563 534.128 238.57 523.234 238.57ZM666.071 339.19C658.618 339.19 653.315 335.893 650.161 329.3C647.868 324.14 645.575 318.407 643.281 312.1C641.275 306.08 639.125 299.057 636.831 291.03C629.378 261.79 625.795 234.413 626.081 208.9C626.081 207.18 626.655 203.453 627.801 197.72C628.948 191.7 630.381 184.82 632.101 177.08C633.821 169.34 635.685 161.17 637.691 152.57C639.985 143.97 642.135 136.087 644.141 128.92L645.001 125.91C647.581 117.31 650.018 109.14 652.311 101.4C654.891 93.66 657.901 86.0633 661.341 78.61C665.355 70.01 668.795 63.4167 671.661 58.83C674.815 53.9567 678.828 48.7967 683.701 43.35C689.721 36.47 697.318 33.03 706.491 33.03C707.638 33.03 708.785 33.03 709.931 33.03C711.078 33.03 712.225 33.1733 713.371 33.46C719.105 34.32 723.835 37.0433 727.561 41.63C731.001 46.2167 732.005 51.8067 730.571 58.4C726.271 83.6267 714.231 106.847 694.451 128.06C689.291 133.507 683.558 139.097 677.251 144.83C671.231 150.277 664.208 154.863 656.181 158.59C651.595 160.883 648.441 163.75 646.721 167.19C645.288 170.63 644.141 174.357 643.281 178.37C642.421 182.097 641.848 185.393 641.561 188.26C641.561 191.127 641.418 193.993 641.131 196.86C641.131 198.293 640.988 199.87 640.701 201.59C640.701 203.023 640.558 204.457 640.271 205.89C639.985 208.757 640.558 211.05 641.991 212.77C643.425 214.203 644.858 215.493 646.291 216.64C649.445 218.36 652.311 220.223 654.891 222.23C657.471 223.95 660.195 225.957 663.061 228.25C665.641 229.97 668.078 230.83 670.371 230.83C708.498 227.963 742.181 214.633 771.421 190.84C772.855 189.693 774.145 188.547 775.291 187.4C776.438 186.253 777.728 185.107 779.161 183.96C780.021 182.527 781.168 181.38 782.601 180.52C784.608 179.373 786.041 178.943 786.901 179.23C788.048 179.23 788.621 179.803 788.621 180.95C788.908 181.81 788.765 182.813 788.191 183.96C787.618 185.107 786.901 186.11 786.041 186.97C771.421 200.157 756.658 210.477 741.751 217.93C726.845 225.383 710.505 230.257 692.731 232.55C691.871 232.55 690.438 232.837 688.431 233.41C686.425 233.697 684.991 233.983 684.131 234.27C683.558 234.557 682.985 234.7 682.411 234.7C681.838 234.7 681.265 234.843 680.691 235.13C679.831 235.417 678.398 235.56 676.391 235.56C674.385 235.56 673.238 235.99 672.951 236.85C672.378 237.997 672.378 239 672.951 239.86C673.525 241.007 674.098 241.867 674.671 242.44C675.818 243.873 676.965 245.45 678.111 247.17C679.258 248.89 680.405 250.61 681.551 252.33L683.271 254.91C688.145 262.363 691.155 270.39 692.301 278.99C693.735 287.877 693.305 298.34 691.011 310.38C690.151 313.82 689.148 317.403 688.001 321.13C686.855 324.857 684.848 328.297 681.981 331.45C677.968 336.61 672.665 339.19 666.071 339.19ZM639.411 227.82C639.411 230.4 639.555 233.123 639.841 235.99C640.128 238.57 640.415 240.577 640.701 242.01L641.561 248.46C642.708 254.48 643.711 260.5 644.571 266.52C645.431 272.827 646.578 278.99 648.011 285.01C649.445 291.603 651.165 297.91 653.171 303.93C655.178 309.95 657.185 315.827 659.191 321.56C660.911 326.72 663.348 329.3 666.501 329.3C668.795 329.3 670.658 328.297 672.091 326.29C673.811 324.283 674.958 322.707 675.531 321.56C680.691 311.527 682.555 299.917 681.121 286.73C679.975 273.543 675.531 259.497 667.791 244.59C666.931 242.583 665.068 240.72 662.201 239C659.621 237.28 656.755 235.703 653.601 234.27C650.735 232.837 647.868 231.547 645.001 230.4C642.421 229.253 640.558 228.393 639.411 227.82ZM706.921 35.18C704.341 35.18 702.048 35.8967 700.041 37.33C698.321 38.7633 696.745 40.1967 695.311 41.63C686.711 50.23 678.971 61.6967 672.091 76.03C668.938 82.6233 666.358 89.36 664.351 96.24C662.345 102.833 660.625 109.427 659.191 116.02C657.758 120.893 656.468 125.767 655.321 130.64C654.175 135.227 652.741 139.957 651.021 144.83C650.448 145.69 650.018 146.837 649.731 148.27C649.731 149.417 649.588 150.707 649.301 152.14C649.015 153.573 648.728 155.007 648.441 156.44C650.161 155.58 651.738 154.72 653.171 153.86C654.605 153.287 655.751 152.713 656.611 152.14C657.758 151.28 658.618 150.707 659.191 150.42C671.518 141.82 682.268 132.073 691.441 121.18C700.615 110 708.355 97.96 714.661 85.06C718.675 76.1733 721.541 66.8567 723.261 57.11C724.121 53.3833 723.548 49.37 721.541 45.07C720.108 42.7767 718.388 40.77 716.381 39.05C714.375 37.33 712.368 36.1833 710.361 35.61C709.788 35.3233 708.641 35.18 706.921 35.18ZM837.843 239C827.81 239 818.493 236.707 809.893 232.12C801.58 227.533 795.416 220.797 791.403 211.91C787.39 202.45 784.81 191.843 783.663 180.09C782.803 168.05 782.803 156.297 783.663 144.83C784.523 133.077 785.813 122.04 787.533 111.72C789.253 101.4 790.686 92.9433 791.833 86.35L792.263 84.63C794.27 73.45 796.563 62.4133 799.143 51.52C801.723 40.34 806.166 30.02 812.473 20.56C814.193 18.2667 815.913 15.83 817.633 13.25C819.64 10.67 821.79 8.51999 824.083 6.79999C828.956 2.78666 833.83 0.779991 838.703 0.779991C842.43 0.779991 845.87 1.78332 849.023 3.78998C857.623 7.80331 861.636 14.97 861.063 25.29C861.063 35.61 859.916 46.2167 857.623 57.11C849.023 99.8233 832.54 134.94 808.173 162.46C807.026 163.607 805.45 165.613 803.443 168.48C801.723 171.06 800.576 172.637 800.003 173.21C798.283 174.93 796.993 177.08 796.133 179.66C795.273 181.953 795.13 184.677 795.703 187.83L796.133 189.98C796.993 193.993 797.853 198.007 798.713 202.02C799.573 206.033 801.58 209.903 804.733 213.63C815.053 225.097 827.38 230.83 841.713 230.83C843.433 230.83 845.153 230.83 846.873 230.83C848.593 230.543 850.456 230.257 852.463 229.97C855.33 229.397 858.913 228.25 863.213 226.53C867.8 224.81 872.96 222.23 878.693 218.79C884.426 215.35 891.02 210.907 898.473 205.46C905.926 200.013 914.383 193.133 923.843 184.82C927.856 181.38 929.863 180.663 929.863 182.67C930.15 184.39 928.716 186.827 925.563 189.98C924.416 190.553 923.27 191.413 922.123 192.56C921.263 193.42 920.116 194.567 918.683 196C914.956 199.44 910.656 203.453 905.783 208.04C900.91 212.34 895.606 216.64 889.873 220.94C884.426 224.953 878.406 228.537 871.813 231.69C865.506 234.843 858.77 236.85 851.603 237.71C847.303 238.57 842.716 239 837.843 239ZM839.993 6.79999C837.986 6.79999 835.12 8.37665 831.393 11.53C827.093 15.5433 823.796 20.13 821.503 25.29C819.496 30.45 817.633 35.61 815.913 40.77C811.9 53.3833 808.89 65.8533 806.883 78.18C804.876 90.5067 803.013 102.69 801.293 114.73L800.003 123.33C799.43 127.917 798.856 132.503 798.283 137.09C797.996 141.39 797.566 145.977 796.993 150.85C796.993 151.423 796.706 153.143 796.133 156.01C795.846 158.59 795.846 161.457 796.133 164.61C796.42 164.323 798.713 160.74 803.013 153.86C807.6 146.693 812.473 138.237 817.633 128.49C823.08 118.743 828.383 108.567 833.543 97.96C838.703 87.0667 842.143 77.6067 843.863 69.58C844.723 65.28 845.583 60.98 846.443 56.68C847.303 52.38 848.163 47.9367 849.023 43.35C849.023 40.4833 849.166 37.76 849.453 35.18C849.74 32.8867 849.883 30.88 849.883 29.16C850.17 27.44 850.313 26.2933 850.313 25.72C850.026 21.7066 849.166 17.98 847.733 14.54C847.16 12.82 846.3 11.1 845.153 9.37998C844.006 7.65999 842.286 6.79999 839.993 6.79999ZM944.947 226.96C943.513 226.96 941.363 226.817 938.497 226.53C935.917 226.243 933.193 225.67 930.327 224.81C927.747 223.663 925.31 222.087 923.017 220.08C920.723 218.073 919.147 215.35 918.287 211.91C917.427 207.897 917.427 203.023 918.287 197.29C919.147 191.557 921.44 185.823 925.167 180.09C937.78 160.023 951.11 147.553 965.157 142.68C969.457 140.96 974.043 140.1 978.917 140.1C986.37 140.1 992.82 142.25 998.267 146.55C1003.71 150.85 1007.15 156.727 1008.59 164.18C1009.45 167.62 1009.3 170.917 1008.16 174.07C1007.3 177.223 1006.15 180.377 1004.72 183.53L1003 187.83C1002.14 189.55 1001.28 191.127 1000.42 192.56C999.557 193.707 998.84 194.997 998.267 196.43C999.7 197.29 1001.28 198.007 1003 198.58C1005 198.867 1007.01 199.153 1009.02 199.44C1017.04 200.873 1025.21 201.59 1033.53 201.59C1044.99 201.59 1054.6 200.587 1062.34 198.58L1071.8 196C1080.11 193.707 1087.42 191.7 1093.73 189.98C1100.32 187.973 1107.92 184.963 1116.52 180.95C1119.1 179.803 1121.1 179.23 1122.54 179.23C1123.4 179.803 1123.4 180.807 1122.54 182.24C1121.96 183.387 1120.39 184.677 1117.81 186.11C1109.49 190.41 1093.58 195.57 1070.08 201.59C1056.03 205.317 1042.84 207.18 1030.52 207.18C1027.94 207.18 1024.64 207.037 1020.63 206.75C1016.61 206.177 1012.46 205.747 1008.16 205.46C1004.14 204.887 1000.42 204.457 996.977 204.17C993.823 203.597 991.817 203.167 990.957 202.88C986.083 207.753 980.207 212.483 973.327 217.07C966.447 221.657 959.423 224.667 952.257 226.1C951.397 226.673 950.25 226.96 948.817 226.96C947.67 226.96 946.38 226.96 944.947 226.96ZM943.657 180.09C941.937 181.237 940.36 182.67 938.927 184.39C937.78 186.11 936.92 187.687 936.347 189.12C935.487 191.127 934.77 192.99 934.197 194.71C933.91 196.43 933.623 197.863 933.337 199.01L932.907 200.73C932.047 208.757 933.05 214.347 935.917 217.5C937.923 220.08 940.79 221.37 944.517 221.37C947.383 221.37 950.537 220.51 953.977 218.79C957.99 216.783 961.573 214.49 964.727 211.91C967.88 209.33 971.033 206.75 974.187 204.17C975.333 203.31 976.337 202.593 977.197 202.02C978.057 201.16 978.773 200.443 979.347 199.87C978.487 199.87 977.197 199.583 975.477 199.01C974.043 198.15 972.897 197.433 972.037 196.86L967.737 195.14C964.297 193.707 960.713 191.987 956.987 189.98C953.547 187.973 950.537 185.393 947.957 182.24L944.947 179.23L943.657 180.09ZM980.207 148.7C977.913 148.7 975.047 149.417 971.607 150.85C964.153 154.577 958.85 160.883 955.697 169.77C955.123 170.63 955.553 172.207 956.987 174.5C958.707 176.507 960.283 178.513 961.717 180.52C967.737 186.827 974.617 191.127 982.357 193.42L984.077 193.85L984.937 192.56C989.81 185.967 993.107 179.517 994.827 173.21L995.257 171.06C995.543 167.62 995.4 164.753 994.827 162.46C994.253 160.167 992.677 157.443 990.097 154.29C986.943 150.563 983.647 148.7 980.207 148.7ZM1230.16 269.96C1222.13 269.96 1215.54 266.95 1210.38 260.93C1205.22 254.623 1200.49 246.023 1196.19 235.13C1190.74 221.37 1188.45 208.183 1189.31 195.57C1189.31 194.997 1189.17 192.847 1188.88 189.12C1188.88 185.393 1188.88 182.813 1188.88 181.38C1188.59 182.24 1188.02 183.243 1187.16 184.39C1186.01 186.397 1184.01 189.407 1181.14 193.42C1177.99 197.72 1174.69 201.303 1171.25 204.17C1168.1 207.037 1164.51 208.9 1160.5 209.76C1157.35 210.62 1154.34 211.05 1151.47 211.05C1140.86 211.05 1131.69 205.89 1123.95 195.57C1123.38 194.71 1121.8 191.127 1119.22 184.82C1116.93 178.513 1115.78 168.193 1115.78 153.86C1115.78 150.133 1117.21 147.697 1120.08 146.55C1120.65 146.55 1121.08 146.55 1121.37 146.55C1121.94 146.263 1122.52 146.12 1123.09 146.12C1126.53 146.12 1128.54 148.27 1129.11 152.57C1129.11 156.87 1128.68 161.17 1127.82 165.47V167.62C1127.25 171.06 1127.53 174.643 1128.68 178.37C1129.83 182.097 1131.26 185.823 1132.98 189.55C1134.99 192.99 1137.28 196.143 1139.86 199.01C1142.73 201.877 1145.59 204.027 1148.46 205.46C1149.03 205.747 1150.18 205.89 1151.9 205.89C1153.05 205.89 1154.77 205.603 1157.06 205.03C1161.36 202.737 1164.66 199.87 1166.95 196.43C1169.53 192.703 1171.82 188.977 1173.83 185.25C1177.27 178.657 1179.99 172.063 1182 165.47C1184.29 158.59 1185.87 151.137 1186.73 143.11C1187.02 139.957 1187.45 138.237 1188.02 137.95C1188.59 137.377 1190.17 136.947 1192.75 136.66C1195.9 136.66 1197.91 137.09 1198.77 137.95C1199.63 138.81 1200.06 140.673 1200.06 143.54C1200.35 147.84 1200.49 152.14 1200.49 156.44C1200.49 160.74 1200.49 165.04 1200.49 169.34C1200.49 174.213 1200.49 179.087 1200.49 183.96C1200.78 188.833 1200.92 193.707 1200.92 198.58C1201.21 207.18 1202.64 215.923 1205.22 224.81C1207.8 233.697 1211.67 243.157 1216.83 253.19C1217.98 256.057 1220.27 258.923 1223.71 261.79C1226.58 264.657 1228.87 266.09 1230.59 266.09C1232.88 266.09 1235.32 264.513 1237.9 261.36C1240.48 258.207 1243.06 254.193 1245.64 249.32C1248.51 244.447 1251.09 239.43 1253.38 234.27C1255.96 228.823 1258.11 223.663 1259.83 218.79C1261.55 213.63 1262.7 209.33 1263.27 205.89C1261.84 205.03 1260.12 204.027 1258.11 202.88C1256.39 201.447 1254.38 199.87 1252.09 198.15C1248.94 195.857 1246.07 193.563 1243.49 191.27C1240.91 188.69 1238.47 185.68 1236.18 182.24C1232.74 176.507 1231.16 169.627 1231.45 161.6C1232.02 150.133 1237.33 144.4 1247.36 144.4C1251.95 144.4 1256.53 145.977 1261.12 149.13C1267.14 153.43 1270.58 158.733 1271.44 165.04L1271.87 166.76C1272.44 171.347 1272.87 177.223 1273.16 184.39C1273.45 191.27 1273.59 196.86 1273.59 201.16C1274.74 201.733 1275.88 202.163 1277.03 202.45C1278.18 202.737 1280.33 203.31 1283.48 204.17C1288.64 205.89 1293.8 207.18 1298.96 208.04C1304.41 208.613 1309.57 208.9 1314.44 208.9C1315.3 208.9 1317.59 208.757 1321.32 208.47C1325.33 207.897 1329.49 207.323 1333.79 206.75C1338.09 205.89 1342.1 205.173 1345.83 204.6C1349.84 204.027 1352.42 203.453 1353.57 202.88C1359.59 200.587 1364.89 198.437 1369.48 196.43C1374.35 194.137 1379.37 190.983 1384.53 186.97C1389.12 183.53 1392.27 182.24 1393.99 183.1C1395.71 183.673 1395.85 184.533 1394.42 185.68L1389.69 189.55C1386.54 192.13 1383.81 194.137 1381.52 195.57C1379.51 197.003 1376.65 198.723 1372.92 200.73C1355.15 209.33 1336.08 213.63 1315.73 213.63C1304.84 213.63 1294.09 212.34 1283.48 209.76L1277.89 208.9L1272.73 208.04L1271.87 212.34C1271.87 212.913 1271.3 214.92 1270.15 218.36C1269 221.8 1267.43 225.957 1265.42 230.83C1263.7 235.417 1261.69 240.147 1259.4 245.02C1257.11 250.18 1254.81 254.48 1252.52 257.92C1247.07 265.947 1239.62 269.96 1230.16 269.96ZM1248.22 151.71C1247.07 151.997 1246.07 152.713 1245.21 153.86C1244.64 154.72 1244.21 155.58 1243.92 156.44C1243.06 159.593 1242.92 163.32 1243.49 167.62C1244.06 171.92 1245.21 176.22 1246.93 180.52C1248.65 184.533 1250.8 188.26 1253.38 191.7C1256.25 194.853 1259.54 197.003 1263.27 198.15C1263.27 197.863 1263.27 197.003 1263.27 195.57C1263.27 194.137 1263.27 192.703 1263.27 191.27C1263.27 189.55 1263.13 188.117 1262.84 186.97C1262.84 185.537 1262.84 184.677 1262.84 184.39C1262.84 184.103 1262.7 182.67 1262.41 180.09C1262.41 177.51 1261.98 174.643 1261.12 171.49C1260.55 168.05 1259.69 164.753 1258.54 161.6C1257.39 158.16 1255.82 155.58 1253.81 153.86C1253.24 153.287 1252.52 152.857 1251.66 152.57C1250.8 151.997 1249.94 151.71 1249.08 151.71H1248.65H1248.22ZM1454.54 233.41C1451.67 233.41 1448.81 233.41 1445.94 233.41C1443.07 233.123 1440.21 232.837 1437.34 232.55H1435.19C1428.88 231.977 1423.44 230.83 1418.85 229.11C1414.26 227.39 1409.25 224.953 1403.8 221.8C1401.51 220.367 1399.36 218.36 1397.35 215.78C1395.34 213.2 1393.62 210.477 1392.19 207.61C1390.76 204.457 1389.61 201.303 1388.75 198.15C1388.18 194.71 1388.18 191.557 1388.75 188.69C1389.61 183.53 1390.33 179.23 1390.9 175.79C1391.76 172.35 1392.48 169.627 1393.05 167.62C1393.91 165.327 1394.63 163.607 1395.2 162.46C1396.06 161.027 1396.78 159.737 1397.35 158.59C1406.81 144.257 1419.14 137.09 1434.33 137.09C1441.5 137.09 1447.95 138.81 1453.68 142.25C1456.83 143.97 1458.84 146.407 1459.7 149.56C1460.56 152.427 1460.99 155.007 1460.99 157.3C1461.28 166.187 1458.41 173.353 1452.39 178.8C1442.64 188.547 1431.46 193.42 1418.85 193.42C1416.84 193.42 1414.84 193.277 1412.83 192.99C1411.11 192.703 1409.1 192.273 1406.81 191.7C1406.24 191.7 1405.66 191.557 1405.09 191.27C1404.52 190.697 1404.23 190.697 1404.23 191.27C1403.66 197.577 1405.09 203.74 1408.53 209.76C1411.97 215.78 1416.27 219.65 1421.43 221.37C1432.9 225.383 1445.51 227.39 1459.27 227.39C1468.73 227.39 1478.19 226.387 1487.65 224.38C1497.4 222.373 1506.43 219.507 1514.74 215.78C1519.33 213.773 1524.63 210.907 1530.65 207.18C1536.67 203.453 1542.55 199.87 1548.28 196.43C1554.01 192.703 1559.03 189.407 1563.33 186.54C1567.92 183.387 1570.93 181.523 1572.36 180.95C1573.79 180.09 1574.8 180.233 1575.37 181.38C1576.23 182.527 1575.8 183.96 1574.08 185.68C1570.93 188.26 1565.77 192.273 1558.6 197.72C1551.72 202.88 1543.12 208.183 1532.8 213.63C1522.48 218.79 1510.73 223.377 1497.54 227.39C1484.35 231.403 1470.02 233.41 1454.54 233.41ZM1429.6 143.97C1427.31 143.97 1425.01 144.543 1422.72 145.69C1420.43 146.837 1418.56 148.127 1417.13 149.56C1413.12 154.147 1410.54 158.017 1409.39 161.17C1408.24 164.323 1406.95 168.623 1405.52 174.07V175.36C1404.95 177.367 1404.52 179.23 1404.23 180.95C1403.94 182.383 1403.66 184.103 1403.37 186.11C1405.66 187.543 1407.96 188.547 1410.25 189.12C1412.54 189.693 1414.69 189.98 1416.7 189.98C1417.27 189.98 1418.71 189.693 1421 189.12C1433.9 185.68 1442.5 177.653 1446.8 165.04C1448.52 160.167 1447.95 155.58 1445.08 151.28C1441.93 146.98 1437.34 144.543 1431.32 143.97H1429.6ZM1654.85 266.52C1650.83 264.513 1647.39 261.217 1644.53 256.63C1641.95 252.043 1640.51 247.6 1640.23 243.3C1640.23 240.72 1640.23 238.427 1640.23 236.42C1640.23 234.127 1640.37 231.117 1640.66 227.39V219.22C1640.37 216.927 1640.08 214.777 1639.8 212.77C1639.51 210.763 1638.94 209.043 1638.08 207.61C1635.21 203.597 1631.63 200.73 1627.33 199.01C1623.31 197.003 1620.3 195.713 1618.3 195.14C1616.86 194.853 1613.42 194.28 1607.98 193.42C1602.53 192.273 1596.65 191.127 1590.35 189.98C1584.33 188.547 1578.45 187.257 1572.72 186.11C1566.98 184.677 1563.26 183.53 1561.54 182.67C1547.2 175.79 1542.33 162.603 1546.92 143.11C1549.21 133.937 1551.93 126.197 1555.09 119.89C1556.52 116.737 1559.1 114.3 1562.83 112.58C1566.27 110.573 1569.85 109.857 1573.58 110.43C1577.3 110.717 1580.17 112.437 1582.18 115.59C1584.18 118.743 1585.47 122.757 1586.05 127.63C1586.62 135.083 1586.48 142.393 1585.62 149.56C1584.76 156.727 1583.61 163.75 1582.18 170.63L1580.89 177.08C1582.03 177.653 1584.76 178.513 1589.06 179.66C1593.36 180.52 1598.09 181.667 1603.25 183.1C1608.41 184.247 1613.28 185.537 1617.87 186.97C1622.74 188.117 1626.47 188.977 1629.05 189.55C1637.36 191.27 1643.95 195.57 1648.83 202.45C1653.7 209.33 1656.28 217.07 1656.57 225.67V242.87C1656.57 244.303 1656.42 244.877 1656.14 244.59C1656.14 244.59 1656.14 244.303 1656.14 243.73C1656.14 243.157 1656.14 242.583 1656.14 242.01C1656.42 241.723 1656.57 242.01 1656.57 242.87C1657.14 248.603 1658.29 253.62 1660.01 257.92C1661.73 262.507 1665.17 265.373 1670.33 266.52C1683.8 269.1 1696.99 268.957 1709.89 266.09C1723.07 263.223 1735.54 258.78 1747.3 252.76C1759.34 247.027 1770.52 240.29 1780.84 232.55C1791.16 224.81 1800.19 217.357 1807.93 210.19C1815.95 203.023 1822.4 196.86 1827.28 191.7C1832.15 186.253 1835.16 183.1 1836.31 182.24C1839.46 179.947 1840.75 179.947 1840.18 182.24C1839.89 184.533 1838.46 186.97 1835.88 189.55C1833.3 191.27 1830.29 194.137 1826.85 198.15C1823.41 202.163 1820.4 205.317 1817.82 207.61C1814.38 210.477 1809.5 214.633 1803.2 220.08C1796.89 225.527 1789.58 231.26 1781.27 237.28C1773.24 243.3 1764.21 249.033 1754.18 254.48C1744.14 260.213 1733.68 264.8 1722.79 268.24C1711.89 271.68 1700.57 273.4 1688.82 273.4C1677.35 273.687 1666.03 271.393 1654.85 266.52ZM1571 113.87C1568.42 113.87 1566.27 115.017 1564.55 117.31C1562.54 119.603 1560.96 122.47 1559.82 125.91C1558.67 129.35 1557.81 132.933 1557.24 136.66C1556.38 140.1 1555.8 142.967 1555.52 145.26C1554.94 150.707 1554.66 154.72 1554.66 157.3C1554.37 159.593 1554.94 162.46 1556.38 165.9C1557.52 168.193 1559.96 170.343 1563.69 172.35C1567.13 174.357 1571 175.647 1575.3 176.22C1575.58 175.073 1575.87 173.353 1576.16 171.06C1576.73 168.767 1577.16 166.473 1577.45 164.18C1578.02 161.6 1578.45 159.307 1578.74 157.3C1579.02 155.007 1579.17 153.143 1579.17 151.71L1580.46 143.11C1581.03 139.957 1581.32 136.803 1581.32 133.65C1581.32 131.07 1581.17 128.347 1580.89 125.48C1580.6 122.613 1580.03 120.32 1579.17 118.6C1578.31 117.167 1577.3 116.02 1576.16 115.16C1575.01 114.3 1573.29 113.87 1571 113.87ZM1824.83 291.46C1821.1 291.173 1817.09 289.597 1812.79 286.73C1808.2 284.15 1805.48 280.997 1804.62 277.27C1804.04 275.263 1804.33 272.827 1805.48 269.96C1806.34 267.38 1807.63 264.8 1809.35 262.22C1811.07 259.927 1812.79 257.92 1814.51 256.2C1816.23 254.48 1817.8 253.333 1819.24 252.76C1822.96 251.327 1827.41 250.18 1832.57 249.32C1837.44 248.46 1842.6 247.6 1848.05 246.74C1850.63 246.453 1853.64 246.023 1857.08 245.45C1860.8 244.877 1864.39 244.303 1867.83 243.73C1871.55 243.157 1874.99 242.583 1878.15 242.01C1881.3 241.437 1883.74 240.863 1885.46 240.29C1885.17 237.997 1884.02 235.417 1882.02 232.55C1880.3 229.397 1878 226.387 1875.14 223.52C1872.27 220.367 1869.26 217.5 1866.11 214.92C1863.24 212.34 1860.52 210.19 1857.94 208.47L1855.36 206.75C1853.64 205.89 1851.49 204.6 1848.91 202.88C1846.33 201.16 1843.89 199.153 1841.6 196.86C1839.3 194.567 1837.44 191.987 1836.01 189.12C1834.57 186.253 1833.86 183.1 1833.86 179.66C1834.43 169.34 1836.87 162.03 1841.17 157.73C1845.47 153.43 1850.91 151.28 1857.51 151.28C1862.67 151.28 1867.25 152.283 1871.27 154.29C1876.71 156.583 1880.15 159.163 1881.59 162.03C1883.02 164.897 1883.59 168.623 1883.31 173.21C1883.02 175.503 1882.59 176.937 1882.02 177.51C1881.44 177.797 1880.58 177.94 1879.44 177.94H1877.29C1873.85 177.94 1871.98 176.937 1871.7 174.93C1871.12 172.637 1870.41 170.487 1869.55 168.48C1868.97 166.187 1868.11 163.893 1866.97 161.6C1864.96 158.733 1862.95 157.3 1860.95 157.3C1858.94 157.3 1856.93 158.303 1854.93 160.31C1848.62 165.757 1845.75 171.633 1846.33 177.94C1846.61 184.247 1850.34 189.98 1857.51 195.14C1863.81 199.44 1870.26 204.457 1876.86 210.19C1883.45 215.637 1888.9 222.373 1893.2 230.4L1897.07 238.57C1897.35 239.143 1898.79 239.143 1901.37 238.57C1903.95 237.71 1905.52 237.28 1906.1 237.28C1915.56 234.987 1927.6 231.547 1942.22 226.96C1956.84 222.373 1971.89 217.213 1987.37 211.48C2002.85 205.747 2017.61 199.727 2031.66 193.42C2045.99 186.827 2057.31 180.377 2065.63 174.07L2067.78 174.5C2068.64 175.933 2068.35 177.653 2066.92 179.66C2063.76 183.1 2057.46 187.257 2048 192.13C2038.54 197.003 2028.22 201.877 2017.04 206.75C2005.86 211.337 1994.82 215.493 1983.93 219.22C1973.32 222.947 1965.15 225.527 1959.42 226.96C1955.4 228.107 1951.39 229.253 1947.38 230.4C1943.65 231.547 1939.78 232.693 1935.77 233.84C1930.89 235.56 1924.87 237.28 1917.71 239C1910.54 241.007 1904.23 242.583 1898.79 243.73C1898.21 245.163 1897.78 246.167 1897.5 246.74C1897.5 247.313 1897.21 248.317 1896.64 249.75C1893.2 256.917 1888.61 263.223 1882.88 268.67C1877.43 274.117 1871.41 278.56 1864.82 282C1858.51 285.44 1851.77 288.02 1844.61 289.74C1837.73 291.46 1831.13 292.033 1824.83 291.46ZM1833.86 255.77C1832.71 256.343 1831.13 256.917 1829.13 257.49C1827.12 258.35 1825.26 259.497 1823.54 260.93C1821.53 262.65 1819.95 264.657 1818.81 266.95C1817.66 269.53 1817.23 272.683 1817.52 276.41C1817.8 279.563 1819.09 282 1821.39 283.72C1823.68 285.44 1826.4 286.3 1829.56 286.3C1833 286.3 1837.01 285.297 1841.6 283.29C1846.47 281.57 1851.34 279.277 1856.22 276.41C1861.38 273.83 1865.96 270.963 1869.98 267.81C1874.28 264.657 1877.57 261.933 1879.87 259.64C1880.73 258.78 1882.02 256.773 1883.74 253.62C1885.74 250.467 1886.89 247.457 1887.18 244.59C1878.29 245.737 1868.97 247.313 1859.23 249.32C1849.77 251.327 1841.31 253.477 1833.86 255.77Z" fill="black" fill-opacity="0.08"/>
</svg>
