<svg width="1455" height="324" viewBox="0 0 1455 324" fill="none" xmlns="http://www.w3.org/2000/svg">
<path d="M238.9 25.95H250V115.5H277.6V126H238.9V25.95ZM344.56 25.95V36.45H303.76V66.15H343.36V76.65H303.76V115.5H344.56V126H292.66V25.95H344.56ZM413.923 36.45H389.623V126H378.523V36.45H354.223V25.95H413.923V36.45ZM424.69 57L436.84 22.35L446.89 25.95L431.74 59.85L424.69 57ZM517.157 39.9L508.307 45.75C506.957 43.05 504.707 40.05 502.457 38.25C500.507 36.75 496.907 34.8 491.207 34.8C481.307 34.8 474.407 40.95 474.407 50.25C474.407 54.15 475.457 56.4 478.157 58.95C481.157 61.95 484.907 63.6 488.657 65.25L498.257 69.45C504.107 72 509.507 74.7 513.707 78.9C518.807 84 520.907 89.85 520.907 97.05C520.907 115.5 507.257 127.8 489.257 127.8C482.657 127.8 474.407 126.45 467.507 119.7C462.557 114.9 459.557 108 458.207 102L469.007 99C469.757 104.25 472.157 108.75 475.007 111.75C479.357 116.1 484.307 117.3 489.407 117.3C503.057 117.3 509.507 107.55 509.507 97.5C509.507 93 508.157 89.1 504.557 85.8C501.707 83.1 497.807 81.3 492.557 78.9L483.557 74.7C479.657 72.9 474.707 70.8 470.207 66.45C465.857 62.25 463.307 57.6 463.307 50.1C463.307 34.65 475.157 24.3 491.357 24.3C497.507 24.3 502.457 25.5 507.407 28.8C511.457 31.5 514.907 35.55 517.157 39.9Z" fill="#221E1F"/>
<path d="M616 87.4258L594.027 124.926L577.621 112.621L606.771 80.541L564.73 71.166L570.736 51.9766L610.287 69.7012L607.357 25.9023H624.643L621.713 69.7012L661.264 51.9766L667.27 71.166L625.229 80.541L654.379 112.621L637.973 124.926L616 87.4258Z" fill="#221E1F"/>
<path d="M792.4 34.2V48C789.25 44.85 784.45 41.1 779.35 38.7C774.1 36.3 767.95 34.8 762.1 34.8C739 34.8 721.9 53.4 721.9 76.5C721.9 103.65 743.95 117.3 762.25 117.3C769 117.3 775.6 115.35 780.85 112.65C786.55 109.8 790.6 106.05 792.4 104.25V118.05C781.3 126 769.75 127.8 762.25 127.8C732.55 127.8 710.5 105.3 710.5 76.35C710.5 46.5 732.85 24.3 762.85 24.3C768.85 24.3 780.4 25.05 792.4 34.2ZM812.873 25.95H828.923C835.673 25.95 845.723 26.4 853.223 31.5C859.073 35.4 864.173 43.05 864.173 53.7C864.173 69 854.123 80.25 838.973 81.3L870.773 126H857.273L826.823 82.2H823.973V126H812.873V25.95ZM823.973 36.45V72.3H831.023C844.823 72.3 853.073 65.7 853.073 54C853.073 48.45 851.423 42.9 845.123 39.3C840.623 36.75 835.523 36.45 830.723 36.45H823.973ZM940.066 25.95V36.45H899.266V66.15H938.866V76.65H899.266V115.5H940.066V126H888.166V25.95H940.066ZM1027.43 126L1015.73 97.8H973.129L961.129 126H948.829L994.879 21.15L1039.73 126H1027.43ZM977.479 87.3H1011.38L994.579 47.25L977.479 87.3ZM1096 36.45H1071.7V126H1060.6V36.45H1036.3V25.95H1096V36.45ZM1162.87 25.95V36.45H1122.07V66.15H1161.67V76.65H1122.07V115.5H1162.87V126H1110.97V25.95H1162.87Z" fill="#221E1F"/>
<path d="M1009.9 199.95H1027.9C1033.45 199.95 1043.5 200.4 1050.85 206.25C1054 208.65 1059.85 214.8 1059.85 226.95C1059.85 231.9 1058.8 240.6 1049.95 246.6C1063.9 250.05 1069 262.2 1069 271.8C1069 281.4 1064.2 289.2 1058.8 293.4C1050.85 299.7 1041.7 300 1034.8 300H1009.9V199.95ZM1021 210.45V243.9H1029.4C1035.25 243.9 1049.05 242.7 1049.05 227.25C1049.05 210.75 1032.85 210.45 1029.7 210.45H1021ZM1021 253.8V289.5H1033.75C1040.2 289.5 1046.5 289.05 1051.3 285.3C1055.2 282.45 1057.9 277.5 1057.9 271.5C1057.9 263.55 1053.25 258.9 1049.35 256.8C1045.6 254.7 1040.35 253.8 1032.4 253.8H1021ZM1089.44 199.95H1105.49C1112.24 199.95 1122.29 200.4 1129.79 205.5C1135.64 209.4 1140.74 217.05 1140.74 227.7C1140.74 243 1130.69 254.25 1115.54 255.3L1147.34 300H1133.84L1103.39 256.2H1100.54V300H1089.44V199.95ZM1100.54 210.45V246.3H1107.59C1121.39 246.3 1129.64 239.7 1129.64 228C1129.64 222.45 1127.99 216.9 1121.69 213.3C1117.19 210.75 1112.09 210.45 1107.29 210.45H1100.54ZM1231.63 300L1219.93 271.8H1177.33L1165.33 300H1153.03L1199.08 195.15L1243.93 300H1231.63ZM1181.68 261.3H1215.58L1198.78 221.25L1181.68 261.3ZM1269.14 300H1258.04V195.75L1336.04 277.5V199.95H1347.14V304.5L1269.14 222.75V300ZM1372.89 300V199.95H1393.29C1403.34 199.95 1417.59 201 1430.19 211.65C1439.34 219.3 1447.29 232.05 1447.29 250.05C1447.29 271.05 1436.94 282.3 1429.74 288.45C1420.59 296.25 1410.99 300 1393.14 300H1372.89ZM1383.99 210.45V289.5H1393.74C1401.69 289.5 1412.64 288.6 1422.39 280.5C1429.89 274.2 1435.89 264.3 1435.89 250.05C1435.89 226.05 1419.09 210.45 1393.74 210.45H1383.99Z" fill="#221E1F"/>
<path d="M724.093 218.825C727.687 227.818 723.663 239.96 711.917 252.804C700.355 265.447 682.081 277.816 659.791 286.723C637.502 295.629 615.736 299.259 598.645 298.065C581.282 296.852 569.999 290.827 566.405 281.833C562.812 272.84 566.836 260.698 578.582 247.854C590.144 235.211 608.417 222.842 630.707 213.935C652.997 205.029 674.763 201.399 691.854 202.593C709.216 203.806 720.5 209.831 724.093 218.825Z" stroke="black" stroke-width="7"/>
<path d="M630.568 255.744V258H619.816L625.36 251.28C625.912 250.608 626.752 249.552 627.28 248.784C627.736 248.112 628.12 247.416 628.12 246.48C628.12 245.136 627.232 243.888 625.456 243.888C623.656 243.888 622.72 245.28 622.624 246.792H620.272C620.344 245.232 620.992 243.984 621.616 243.288C622.192 242.64 623.344 241.728 625.36 241.728C628.768 241.728 630.52 244.056 630.52 246.552C630.52 247.872 630.016 248.952 629.368 249.912C628.792 250.776 628.048 251.664 627.088 252.792L624.592 255.744H630.568ZM639.457 258.264C638.017 258.264 636.841 257.688 635.833 256.536C634.153 254.616 633.793 252.096 633.793 250.008C633.793 247.944 634.153 245.376 635.833 243.456C636.841 242.304 638.041 241.728 639.457 241.728C640.873 241.728 642.073 242.304 643.081 243.456C644.761 245.376 645.121 247.944 645.121 250.008C645.121 252.096 644.761 254.616 643.081 256.536C642.073 257.688 640.897 258.264 639.457 258.264ZM639.457 243.888C638.833 243.888 637.993 244.152 637.297 245.208C636.409 246.528 636.193 248.592 636.193 249.984C636.193 251.4 636.409 253.44 637.297 254.784C637.993 255.84 638.833 256.104 639.457 256.104C640.081 256.104 640.921 255.84 641.617 254.784C642.505 253.44 642.721 251.4 642.721 249.984C642.721 248.592 642.505 246.528 641.617 245.208C640.921 244.152 640.081 243.888 639.457 243.888ZM657.849 255.744V258H647.097L652.641 251.28C653.193 250.608 654.033 249.552 654.561 248.784C655.017 248.112 655.401 247.416 655.401 246.48C655.401 245.136 654.513 243.888 652.737 243.888C650.937 243.888 650.001 245.28 649.905 246.792H647.553C647.625 245.232 648.273 243.984 648.897 243.288C649.473 242.64 650.625 241.728 652.641 241.728C656.049 241.728 657.801 244.056 657.801 246.552C657.801 247.872 657.297 248.952 656.649 249.912C656.073 250.776 655.329 251.664 654.369 252.792L651.873 255.744H657.849ZM669.01 240.816V252.72H670.738V254.976H669.01V258H666.658V254.976H658.738L669.01 240.816ZM663.01 252.768H666.658V247.608L663.01 252.768Z" fill="#221E1F"/>
<path d="M3.2959 293.262L9.44824 271.509L10.4736 271.655C11.792 279.858 15.8447 286.572 22.6318 291.797C29.4189 296.973 37.5244 299.561 46.9482 299.561C55.7373 299.561 62.9883 297.29 68.7012 292.749C74.4141 288.159 77.2705 282.471 77.2705 275.684C77.2705 271.973 76.3916 268.848 74.6338 266.309C72.9248 263.721 70.2881 261.597 66.7236 259.937C63.7451 258.569 58.7158 257.446 51.6357 256.567C44.6045 255.64 39.502 254.81 36.3281 254.077C27.0508 252.124 20.1172 249.072 15.5273 244.922C10.9863 240.723 8.71582 235.376 8.71582 228.882C8.71582 220.728 12.6953 213.892 20.6543 208.374C28.6133 202.856 38.8184 200.098 51.2695 200.098C57.9102 200.098 64.1602 200.732 70.0195 202.002C75.8789 203.271 81.8848 205.298 88.0371 208.081L82.4707 225.879L81.1523 225.732C79.9316 218.701 76.6846 213.232 71.4111 209.326C66.1377 205.371 59.375 203.394 51.123 203.394C43.0176 203.394 36.2793 205.42 30.9082 209.473C25.5859 213.525 22.9248 218.555 22.9248 224.561C22.9248 227.686 23.7305 230.469 25.3418 232.91C27.002 235.352 29.3457 237.256 32.373 238.623C36.5234 240.576 43.9453 242.31 54.6387 243.823C59.1797 244.458 62.6709 244.995 65.1123 245.435C74.2432 246.997 81.0059 249.756 85.4004 253.711C89.8438 257.666 92.0654 262.891 92.0654 269.385C92.0654 279.004 87.8662 287.012 79.4678 293.408C71.0693 299.805 60.2783 303.003 47.0947 303.003C38.6475 303.003 30.6396 302.148 23.0713 300.439C15.5518 298.779 8.95996 296.387 3.2959 293.262ZM99.7559 224.121L106.494 202.808H194.238L201.123 224.121L199.658 224.414C194.922 218.506 189.746 213.989 184.131 210.864C178.564 207.69 172.949 206.104 167.285 206.104C163.086 206.104 160.278 206.982 158.862 208.74C157.446 210.498 156.738 214.966 156.738 222.144V228.442V261.475C156.738 276.66 157.471 286.401 158.936 290.698C160.4 294.946 163.232 297.705 167.432 298.975V300.586C164.844 300.391 162.231 300.244 159.595 300.146C156.958 300.049 153.564 300 149.414 300C145.068 300 141.772 300.049 139.526 300.146C137.329 300.244 135.229 300.391 133.228 300.586V298.975C137.378 297.852 140.186 295.19 141.65 290.991C143.115 286.792 143.848 276.953 143.848 261.475V221.704C143.848 214.771 143.188 210.449 141.87 208.74C140.601 206.982 138.062 206.104 134.253 206.104C128.296 206.104 122.485 207.69 116.821 210.864C111.157 213.989 105.908 218.555 101.074 224.561L99.7559 224.121ZM219.434 251.733C220.654 251.831 221.997 251.904 223.462 251.953C224.927 252.002 227.124 252.026 230.054 252.026H242.944C245.874 252.026 248.12 252.002 249.683 251.953C251.294 251.904 252.783 251.831 254.15 251.733L236.792 215.552L219.434 251.733ZM183.838 300.439V299.561C187.256 297.412 191.04 293.457 195.19 287.695C199.341 281.885 203.54 274.683 207.788 266.089L240.381 199.951H241.406L276.05 266.675C282.544 279.272 287.28 287.598 290.259 291.65C293.237 295.654 296.118 298.291 298.901 299.561L298.828 300.439C296.289 300.293 293.921 300.171 291.724 300.073C289.575 300.024 287.598 300 285.791 300C283.35 300 280.322 300.024 276.709 300.073C273.145 300.171 269.043 300.293 264.404 300.439V299.561C266.846 298.682 268.579 297.681 269.604 296.558C270.63 295.435 271.143 293.921 271.143 292.017C271.143 290.356 270.557 287.988 269.385 284.912C268.262 281.787 265.894 276.416 262.28 268.799L256.128 255.762C254.81 255.664 253.442 255.591 252.026 255.542C250.659 255.493 248.975 255.469 246.973 255.469H226.392C223.95 255.469 222.07 255.493 220.752 255.542C219.482 255.591 218.286 255.664 217.163 255.762L211.89 267.334C209.497 272.559 207.715 276.929 206.543 280.444C205.371 283.911 204.785 286.621 204.785 288.574C204.785 291.357 205.493 293.628 206.909 295.386C208.374 297.095 210.718 298.486 213.94 299.561V300.439C212.329 300.293 210.571 300.171 208.667 300.073C206.763 300.024 203.882 300 200.024 300C196.411 300 193.384 300.024 190.942 300.073C188.55 300.171 186.182 300.293 183.838 300.439ZM298.975 300V298.828C303.809 297.607 307.178 294.116 309.082 288.354C311.035 282.544 312.012 271.68 312.012 255.762V222.583C312.012 215.942 311.279 211.499 309.814 209.253C308.35 207.007 305.737 205.2 301.978 203.833V202.661C303.784 202.661 305.908 202.71 308.35 202.808C310.791 202.905 312.378 202.954 313.11 202.954C313.94 202.954 315.845 202.905 318.823 202.808C320.972 202.759 322.705 202.71 324.023 202.661C337.891 218.823 350.146 232.642 360.791 244.116C371.484 255.542 381.982 266.113 392.285 275.83V242.725C392.285 228.32 391.382 218.726 389.575 213.94C387.769 209.155 384.473 205.64 379.688 203.394V202.368C380.273 202.368 381.152 202.417 382.324 202.515C387.598 202.808 391.26 202.954 393.311 202.954C396.631 202.954 401.733 202.759 408.618 202.368H409.131V203.394C404.15 205.347 400.708 208.96 398.804 214.233C396.948 219.507 396.021 230.151 396.021 246.167V302.856H394.702C380.884 285.571 359.302 261.035 329.956 229.248C323.657 222.412 318.945 217.285 315.82 213.867V251.367C315.82 270.85 316.748 283.276 318.604 288.647C320.508 294.019 323.828 297.412 328.564 298.828V300H319.556H309.668H298.975ZM435.059 206.543V266.235C435.059 272.144 435.156 277.026 435.352 280.884C435.596 284.741 435.913 287.402 436.304 288.867C437.036 292.041 438.77 294.238 441.504 295.459C444.238 296.68 449.561 297.29 457.471 297.29C471.973 297.29 483.13 293.262 490.942 285.205C498.804 277.148 502.734 265.674 502.734 250.781C502.734 235.156 498.779 223.779 490.869 216.65C482.959 209.521 470.264 205.957 452.783 205.957C449.512 205.957 446.411 206.006 443.481 206.104C440.552 206.201 437.744 206.348 435.059 206.543ZM412.207 300.439L412.134 299.268C416.04 298.242 418.677 296.045 420.044 292.676C421.46 289.307 422.168 281.104 422.168 268.066V266.235V216.284C422.168 212.231 421.533 209.277 420.264 207.422C419.043 205.518 416.943 204.321 413.965 203.833V202.661H434.033C436.621 202.661 440.405 202.637 445.386 202.588C450.366 202.539 454.028 202.515 456.372 202.515C467.017 202.515 475.61 203.296 482.153 204.858C488.696 206.372 494.507 208.887 499.585 212.402C505.737 216.602 510.4 221.826 513.574 228.076C516.748 234.326 518.335 241.406 518.335 249.316C518.335 256.836 516.992 263.843 514.307 270.337C511.621 276.831 507.764 282.422 502.734 287.109C497.607 291.895 491.602 295.361 484.717 297.51C477.881 299.658 469.238 300.732 458.789 300.732C456.152 300.732 451.855 300.61 445.898 300.366C439.941 300.122 435.327 300 432.056 300C427.368 300 423.56 300.024 420.63 300.073C417.7 300.171 414.893 300.293 412.207 300.439Z" fill="black"/>
<path d="M748.882 203.394V202.222C749.077 202.222 749.37 202.222 749.761 202.222C756.206 202.612 760.918 202.808 763.896 202.808C766.387 202.808 770.488 202.661 776.201 202.368C777.373 202.271 778.228 202.222 778.765 202.222V203.394C775.737 204.028 773.54 205.298 772.173 207.202C770.854 209.058 770.195 211.792 770.195 215.405V248.364C770.195 256.519 770.415 263.184 770.854 268.359C771.294 273.486 771.978 277.393 772.905 280.078C774.81 285.84 778.423 290.308 783.745 293.481C789.116 296.606 795.757 298.169 803.667 298.169C815.63 298.169 824.541 295.142 830.4 289.087C836.26 283.032 839.189 273.828 839.189 261.475V246.167C839.189 229.321 838.286 218.53 836.479 213.794C834.673 209.009 831.377 205.542 826.592 203.394V202.222C829.326 202.417 831.841 202.563 834.136 202.661C836.479 202.759 838.579 202.808 840.435 202.808C843.364 202.808 846.123 202.759 848.711 202.661C851.299 202.563 853.789 202.417 856.182 202.222V203.394C851.152 205.493 847.686 209.302 845.781 214.819C843.877 220.337 842.925 230.786 842.925 246.167V260.669C842.925 274.78 839.531 285.327 832.744 292.31C826.006 299.243 815.752 302.71 801.982 302.71C794.023 302.71 787.041 301.831 781.035 300.073C775.078 298.364 770.269 295.85 766.606 292.529C763.188 289.404 760.747 285.498 759.282 280.811C757.866 276.074 757.158 268.677 757.158 258.618C757.158 256.567 757.207 252.637 757.305 246.826C757.402 240.967 757.451 236.133 757.451 232.324V215.405C757.451 211.987 756.768 209.351 755.4 207.495C754.082 205.591 751.909 204.224 748.882 203.394ZM855.449 224.121L862.188 202.808H949.932L956.816 224.121L955.352 224.414C950.615 218.506 945.439 213.989 939.824 210.864C934.258 207.69 928.643 206.104 922.979 206.104C918.779 206.104 915.972 206.982 914.556 208.74C913.14 210.498 912.432 214.966 912.432 222.144V228.442V261.475C912.432 276.66 913.164 286.401 914.629 290.698C916.094 294.946 918.926 297.705 923.125 298.975V300.586C920.537 300.391 917.925 300.244 915.288 300.146C912.651 300.049 909.258 300 905.107 300C900.762 300 897.466 300.049 895.22 300.146C893.022 300.244 890.923 300.391 888.921 300.586V298.975C893.071 297.852 895.879 295.19 897.344 290.991C898.809 286.792 899.541 276.953 899.541 261.475V221.704C899.541 214.771 898.882 210.449 897.563 208.74C896.294 206.982 893.755 206.104 889.946 206.104C883.989 206.104 878.179 207.69 872.515 210.864C866.851 213.989 861.602 218.555 856.768 224.561L855.449 224.121Z" fill="black"/>
</svg>
