<svg width="354" height="418" viewBox="0 0 354 418" fill="none" xmlns="http://www.w3.org/2000/svg">
<path d="M182.417 342.114C182.417 342.114 182.417 342.154 182.417 342.194H182.578C182.578 342.154 182.578 342.154 182.578 342.114H182.417ZM182.417 353.523C180.569 353.563 178.681 353.603 176.792 353.603H182.578C182.578 353.563 182.578 353.563 182.578 353.523H182.417ZM171.207 353.523C171.207 353.563 171.207 353.603 171.207 353.603H176.792C174.904 353.603 173.055 353.563 171.207 353.523ZM353.545 182.587C353.585 182.587 353.585 182.587 353.625 182.587V176.802C353.625 178.73 353.585 180.659 353.545 182.587Z" fill="#CFB79F"/>
<path d="M353.626 176.802V182.587C353.586 182.587 353.586 182.587 353.546 182.587C353.586 180.659 353.626 178.73 353.626 176.802Z" fill="#CFB79F"/>
<path d="M173.096 0.0409119C174.301 3.9915e-05 175.547 0 176.792 0C177.596 0 178.399 3.9915e-05 179.203 0.0409119" fill="#CFB79F"/>
<path d="M353.625 176.801C353.625 174.913 353.585 173.025 353.544 171.177C350.692 80.3062 278.97 6.54863 188.927 0.442334C185.712 0.201296 182.458 0.0803852 179.203 0.0402122C178.399 3.92323e-05 177.596 0 176.792 0C175.547 0 174.301 3.92323e-05 173.096 0.0402122C169.881 0.120558 166.707 0.241018 163.533 0.482056C74.0921 7.15077 2.93322 80.7079 0.0804386 171.177C0.0402585 173.025 0 174.913 0 176.801C0 178.73 0.0402585 180.658 0.0804386 182.586C0.0402585 182.586 0.0401801 182.586 0 182.586V412.295C0 415.469 2.53124 418 5.66528 418C8.83951 418 11.371 415.469 11.371 412.295V353.603H171.047C171.047 353.562 171.047 353.562 171.047 353.522H171.207C173.055 353.562 174.904 353.603 176.792 353.603C178.681 353.603 180.569 353.562 182.417 353.522H182.578C182.578 353.562 182.578 353.562 182.578 353.603H342.254V412.295C342.254 415.469 344.785 418 347.959 418C351.093 418 353.625 415.469 353.625 412.295V182.586C353.585 182.586 353.585 182.586 353.544 182.586C353.585 180.658 353.625 178.73 353.625 176.801ZM176.19 13.6589C201.101 42.6236 216.169 80.266 216.169 121.403C216.169 162.5 201.061 200.182 176.19 229.147C151.238 200.182 136.13 162.5 136.13 121.403C136.13 80.3061 151.238 42.6236 176.19 13.6589ZM11.371 342.194V239.19C17.84 256.304 26.8803 272.172 38.0504 286.313C41.305 290.41 44.7605 294.388 48.3365 298.164C66.5782 317.447 89.0791 332.632 114.352 342.194H11.371ZM171.207 342.194H171.047C171.047 342.153 171.047 342.153 171.047 342.113C129.782 340.667 92.2936 324.076 64.047 297.682C60.3103 294.227 56.7341 290.571 53.359 286.755C28.4474 258.834 12.8575 222.478 11.4512 182.586C67.0203 184.515 115.718 213.961 144.287 257.71C146.376 260.883 148.345 264.138 150.193 267.472C162.649 289.728 170.082 315.117 171.047 342.113H171.207C171.207 342.113 171.207 342.153 171.207 342.194ZM176.833 303.386C172.895 288.281 167.029 273.98 159.475 260.723C157.586 257.388 155.577 254.094 153.488 250.921C122.831 204.4 70.7972 173.106 11.4512 171.177C14.2638 87.2561 79.9182 19.0023 162.769 12.0122C138.983 42.1419 124.759 80.1053 124.759 121.403C124.759 165.834 141.233 206.489 168.395 237.583C170.886 240.435 173.457 243.208 176.149 245.899C178.801 243.208 181.413 240.435 183.944 237.543C211.066 206.449 227.54 165.834 227.54 121.403C227.54 80.0651 213.276 42.0213 189.449 11.8915C272.983 18.2389 339.321 86.8142 342.173 171.177C282.506 173.106 230.272 204.722 199.695 251.644C197.606 254.817 195.637 258.112 193.748 261.446C186.395 274.502 180.65 288.563 176.833 303.386ZM182.578 342.194H182.417C182.417 342.153 182.417 342.113 182.417 342.113H182.578C183.502 315.398 190.815 290.25 203.03 268.155C204.878 264.82 206.847 261.526 208.936 258.353C237.424 214.243 286.323 184.515 342.173 182.586C340.767 222.518 325.177 258.875 300.266 286.795C296.85 290.611 293.234 294.307 289.497 297.762C261.251 324.075 223.803 340.667 182.578 342.113C182.578 342.153 182.578 342.153 182.578 342.194ZM342.254 342.194H239.232C264.505 332.673 287.046 317.447 305.288 298.164C308.904 294.348 312.36 290.331 315.614 286.193C326.784 272.092 335.825 256.223 342.254 239.11V342.194V342.194Z" fill="#CFB79F"/>
<path d="M176.03 115.701C159.797 115.701 146.578 128.918 146.578 145.148C146.578 161.378 159.797 174.596 176.03 174.596C192.263 174.596 205.482 161.378 205.482 145.148C205.482 128.918 192.263 115.701 176.03 115.701ZM176.03 163.226C166.066 163.226 157.949 155.111 157.949 145.148C157.949 135.185 166.066 127.11 176.03 127.11C185.995 127.11 194.071 135.185 194.071 145.148C194.071 155.111 185.995 163.226 176.03 163.226Z" fill="#CFB79F"/>
</svg>
