<svg width="213" height="61" viewBox="0 0 213 61" fill="none" xmlns="http://www.w3.org/2000/svg">
<path d="M17.9384 3.092C16.2437 3.092 15.3144 3.61133 15.1504 4.65C15.041 5.68867 15.2597 6.91866 15.8064 8.34L31.8784 48.438L48.1144 8.422C48.3877 7.71133 48.6064 7.05533 48.7704 6.454C48.9344 5.798 48.9617 5.224 48.8524 4.732C48.7977 4.24 48.579 3.85733 48.1964 3.584C47.8684 3.256 47.3217 3.092 46.5564 3.092V2.6H54.7564V3.092C54.2644 3.092 53.7724 3.31067 53.2804 3.748C52.7884 4.13066 52.3237 4.62266 51.8864 5.224C51.5037 5.82533 51.1484 6.454 50.8204 7.11C50.4924 7.71133 50.2464 8.258 50.0824 8.75L29.0084 60.492H27.0404L5.63837 8.34C5.14637 7.192 4.70903 6.29 4.32637 5.634C3.99837 4.92333 3.64303 4.404 3.26037 4.076C2.8777 3.69333 2.49503 3.44733 2.11237 3.338C1.67503 3.174 1.18303 3.092 0.636367 3.092V2.6H17.9384V3.092ZM88.3796 45.896C87.8876 48.0827 87.0676 50.078 85.9196 51.882C84.7716 53.686 83.3776 55.2167 81.7376 56.474C80.0976 57.7313 78.2389 58.7153 76.1616 59.426C74.1389 60.1367 71.9522 60.492 69.6016 60.492C66.6496 60.492 63.9436 59.9453 61.4836 58.852C59.0236 57.7587 56.8916 56.2553 55.0876 54.342C53.3382 52.374 51.9716 50.0507 50.9876 47.372C50.0036 44.6933 49.5116 41.7687 49.5116 38.598C49.5116 35.4273 50.0036 32.5027 50.9876 29.824C51.9716 27.1453 53.3382 24.8493 55.0876 22.936C56.8369 20.968 58.8869 19.4373 61.2376 18.344C63.6429 17.2507 66.2669 16.704 69.1096 16.704C71.4602 16.704 73.6742 17.0867 75.7516 17.852C77.8836 18.6173 79.7969 19.7107 81.4916 21.132C83.1862 22.4987 84.6076 24.1933 85.7556 26.216C86.9582 28.184 87.8056 30.3707 88.2976 32.776H60.0076C59.8982 33.6507 59.7889 34.5253 59.6796 35.4C59.6249 36.2747 59.5976 37.1767 59.5976 38.106C59.5976 44.1193 60.8822 48.8207 63.4516 52.21C66.0209 55.5447 69.5469 57.212 74.0296 57.212C77.4736 57.212 80.3982 56.228 82.8036 54.26C85.2636 52.2373 86.9582 49.422 87.8876 45.814L88.3796 45.896ZM69.8476 18.262C68.8089 18.262 67.7702 18.59 66.7316 19.246C65.7476 19.8473 64.8456 20.722 64.0256 21.87C63.2056 22.9633 62.4676 24.3027 61.8116 25.888C61.1556 27.4187 60.6362 29.1133 60.2536 30.972H78.5396C77.8289 26.9813 76.7082 23.8653 75.1776 21.624C73.7016 19.3827 71.9249 18.262 69.8476 18.262ZM79.4416 7.684L63.1236 13.588L62.5496 12.85L74.2756 0.139998L79.4416 7.684ZM94.9601 22.116C94.9601 20.476 94.7687 19.328 94.3861 18.672C94.0581 18.016 93.4021 17.688 92.4181 17.688V17.196H103.98V32.53C104.527 30.562 105.265 28.6487 106.194 26.79C107.123 24.8767 108.244 23.182 109.556 21.706C110.923 20.23 112.508 19.0273 114.312 18.098C116.116 17.1687 118.139 16.704 120.38 16.704V26.708C118.357 25.7787 116.499 25.314 114.804 25.314C112.344 25.314 110.212 26.1887 108.408 27.938C106.659 29.6327 105.401 32.202 104.636 35.646V55.08C104.636 56.72 104.8 57.868 105.128 58.524C105.511 59.18 106.194 59.508 107.178 59.508V60H92.4181V59.508C93.4021 59.508 94.0581 59.18 94.3861 58.524C94.7687 57.868 94.9601 56.72 94.9601 55.08V22.116ZM124.082 7.11C124.082 5.47 124.628 4.158 125.722 3.174C126.87 2.13533 128.346 1.616 130.15 1.616C131.899 1.616 133.32 2.13533 134.414 3.174C135.507 4.158 136.054 5.47 136.054 7.11C136.054 8.75 135.507 10.0893 134.414 11.128C133.32 12.112 131.872 12.604 130.068 12.604C128.264 12.604 126.815 12.112 125.722 11.128C124.628 10.0893 124.082 8.75 124.082 7.11ZM125.23 22.116C125.23 20.476 125.038 19.328 124.656 18.672C124.328 18.016 123.672 17.688 122.688 17.688V17.196H134.906V55.08C134.906 56.72 135.07 57.868 135.398 58.524C135.78 59.18 136.464 59.508 137.448 59.508V60H122.688V59.508C123.672 59.508 124.328 59.18 124.656 58.524C125.038 57.868 125.23 56.72 125.23 55.08V22.116ZM142.723 17.196H146.823V10.882L156.499 9.242V17.196H171.259V19H156.499V48.93C156.499 54.4513 158.33 57.212 161.993 57.212C163.414 57.212 165.109 56.7747 167.077 55.9C169.045 54.9707 170.931 53.44 172.735 51.308L173.145 51.554C170.794 54.342 168.17 56.5287 165.273 58.114C162.375 59.6993 159.56 60.492 156.827 60.492C153.711 60.492 151.251 59.4533 149.447 57.376C147.697 55.244 146.823 52.292 146.823 48.52V19H142.723V17.196ZM212.581 45.896C212.089 48.0827 211.269 50.078 210.121 51.882C208.973 53.686 207.579 55.2167 205.939 56.474C204.299 57.7313 202.44 58.7153 200.363 59.426C198.34 60.1367 196.153 60.492 193.803 60.492C190.851 60.492 188.145 59.9453 185.685 58.852C183.225 57.7587 181.093 56.2553 179.289 54.342C177.539 52.374 176.173 50.0507 175.189 47.372C174.205 44.6933 173.713 41.7687 173.713 38.598C173.713 35.4273 174.205 32.5027 175.189 29.824C176.173 27.1453 177.539 24.8493 179.289 22.936C181.038 20.968 183.088 19.4373 185.439 18.344C187.844 17.2507 190.468 16.704 193.311 16.704C195.661 16.704 197.875 17.0867 199.953 17.852C202.085 18.6173 203.998 19.7107 205.693 21.132C207.387 22.4987 208.809 24.1933 209.957 26.216C211.159 28.184 212.007 30.3707 212.499 32.776H184.209C184.099 33.6507 183.99 34.5253 183.881 35.4C183.826 36.2747 183.799 37.1767 183.799 38.106C183.799 44.1193 185.083 48.8207 187.653 52.21C190.222 55.5447 193.748 57.212 198.231 57.212C201.675 57.212 204.599 56.228 207.005 54.26C209.465 52.2373 211.159 49.422 212.089 45.814L212.581 45.896ZM194.049 18.262C193.01 18.262 191.971 18.59 190.933 19.246C189.949 19.8473 189.047 20.722 188.227 21.87C187.407 22.9633 186.669 24.3027 186.013 25.888C185.357 27.4187 184.837 29.1133 184.455 30.972H202.741C202.03 26.9813 200.909 23.8653 199.379 21.624C197.903 19.3827 196.126 18.262 194.049 18.262ZM203.643 7.684L187.325 13.588L186.751 12.85L198.477 0.139998L203.643 7.684Z" fill="white"/>
</svg>
