<svg width="141" height="97" viewBox="0 0 141 97" fill="none" xmlns="http://www.w3.org/2000/svg">
<path d="M53.2151 2.0331C54.1452 21.3702 54.903 40.7157 55.7987 60.0528C56.0054 64.56 56.3929 69.101 56.1776 73.6166C55.9881 77.5415 55.1269 81.8967 52.6467 84.9184C48.4872 89.9743 40.2715 91.1475 34.0365 90.2612C25.8897 89.1049 18.8367 83.3654 13.7471 77.1616C7.84794 69.9704 4.79074 61.091 4.38598 51.9247C4.19652 47.5694 4.50655 43.2141 5.74665 39.0192C6.83175 35.356 8.5455 31.8026 10.6726 28.6121C15.5211 21.3533 23.6248 16.7533 31.8578 14.0608C36.7751 12.4486 41.8561 11.3936 46.9543 10.5158C51.7339 9.6886 56.6685 9.89117 61.4911 10.3132C70.0254 11.0644 78.5684 13.1745 86.2674 16.8799C93.5702 20.3995 99.9946 25.3794 105.093 31.6169C110.148 37.7953 113.722 45.9151 114.23 53.8575C114.514 58.2972 113.903 62.7369 112.241 66.8896C110.63 70.9157 107.831 74.4354 104.662 77.398C97.8158 83.8127 88.9026 87.8726 79.8343 90.2697C70.5335 92.7258 60.3113 93.7387 50.778 91.9915C46.2826 91.1644 41.8905 89.7633 37.8516 87.6531C33.9935 85.6359 30.256 83.0615 27.7499 79.4828C25.4419 76.191 24.1502 72.1987 25.1664 68.2316C26.0964 64.6276 28.6455 61.7072 31.9008 59.884C36.0776 57.5545 41.0983 56.9299 45.8003 56.5332C51.1569 56.0858 56.5221 55.782 61.8872 55.5287C82.237 54.5581 102.613 54.9295 122.919 56.5922C128.173 57.0227 133.409 57.5291 138.653 58.0946C139.807 58.2212 140.806 57.0396 140.806 55.9845C140.806 54.7438 139.816 54.001 138.653 53.8744C117.02 51.5448 95.2926 50.3632 73.5304 50.8865C68.0103 51.0215 62.4901 51.2494 56.9699 51.5617C51.3722 51.8825 45.7056 52.1019 40.1596 52.9544C35.2336 53.7056 30.3507 55.2418 26.5184 58.4745C23.0995 61.3611 20.9466 65.4632 20.5504 69.8691C19.6634 79.6938 27.9996 87.4084 36.1551 91.5442C45.2492 96.1527 55.4886 97.5285 65.6076 96.8279C76.269 96.0936 86.9391 93.4011 96.3604 88.3875C104.921 83.838 112.757 77.0519 116.383 68.0037C119.983 59.0315 118.855 49.0634 115.169 40.319C111.707 32.1065 105.928 25.0756 98.7976 19.6061C91.9253 14.3393 83.8905 10.6846 75.4767 8.47317C70.8349 7.2493 66.0812 6.48122 61.293 6.06764C58.7698 5.84819 56.2379 5.7469 53.706 5.73846C52.44 5.73846 51.1569 5.73846 49.8909 5.81442C48.4528 5.89883 47.0146 6.21957 45.5936 6.46434C35.5006 8.21995 25.2008 10.7943 16.7268 16.7026C9.24306 21.9273 3.97262 29.5068 1.48379 38.1752C0.174794 42.7499 -0.169679 47.561 0.0714526 52.2876C0.321196 57.3181 1.22544 62.3486 3.02531 67.0753C6.47866 76.1319 12.8945 84.1503 21.093 89.5354C24.5808 91.8227 28.4216 93.6205 32.5898 94.2789C36.6373 94.9204 40.7796 94.8275 44.7755 93.916C48.4872 93.0635 52.1903 91.4091 54.903 88.7166C58.1842 85.4586 59.6395 80.9514 60.2079 76.5117C60.8108 71.8188 60.4146 67.0668 60.1907 62.3655C59.9582 57.4194 59.7343 52.4817 59.519 47.5356C59.0626 37.1623 58.6234 26.789 58.1583 16.4072C57.943 11.613 57.7277 6.81884 57.4952 2.02466C57.3919 -0.667849 53.0859 -0.684732 53.2151 2.0331Z" fill="black"/>
</svg>
