<svg width="345" height="97" viewBox="0 0 345 97" fill="none" xmlns="http://www.w3.org/2000/svg">
<path d="M66.0098 95.2198C67.3898 95.2198 68.4248 94.9897 69.1148 94.5297C69.8048 94.0697 70.2648 93.4947 70.4948 92.5747C70.7248 91.7697 70.7248 90.8498 70.4948 89.8148C70.2648 88.7798 69.9198 87.6298 69.4598 86.4798L59.2248 61.1798H21.1599L10.925 86.3648C10.465 87.5148 10.12 88.6648 9.88997 89.6998C9.65997 90.7347 9.54497 91.6548 9.65997 92.4598C9.77497 93.2648 10.12 93.9548 10.695 94.4148C11.27 94.8748 12.19 95.2198 13.455 95.2198V96.0247H0V95.2198C1.83999 95.2198 3.33499 94.1848 4.59999 92.2298C5.86498 90.2748 6.89998 88.0898 7.81998 85.7898L42.7799 0H45.0799L80.4998 86.3648C81.7648 89.4698 82.9148 91.6548 84.0648 93.0347C85.0998 94.4147 86.7098 95.1047 88.7798 95.1047V95.9097H66.1248V95.2198H66.0098ZM58.3048 58.1898L40.4799 13.915L22.4249 58.1898H58.3048Z" fill="black"/>
<path d="M132.71 2.64499C127.88 2.64499 123.395 3.67999 119.37 5.86499C115.345 8.04998 112.01 11.04 109.135 15.065C106.26 19.0899 104.075 23.8049 102.58 29.4399C101.085 35.0749 100.28 41.3999 100.28 48.2999C100.28 55.1998 101.085 61.6398 102.695 67.2748C104.305 72.9098 106.49 77.7398 109.365 81.7648C112.24 85.7898 115.69 88.7797 119.715 90.9647C123.74 93.1497 128.34 94.1847 133.285 94.1847C137.195 94.1847 140.99 93.4947 144.67 92.2297C148.35 90.9647 151.57 88.8947 154.33 86.3647V57.7298C154.33 54.7398 153.525 52.6698 151.915 51.5199C150.305 50.3699 147.085 49.5649 142.37 49.2199V48.2999H165.255V85.0998C161.23 88.5497 156.4 91.3097 151.11 93.4947C145.705 95.6797 139.955 96.7147 133.63 96.7147C127.19 96.7147 121.21 95.5647 115.805 93.1497C110.4 90.7347 105.57 87.3997 101.66 83.1448C97.75 78.8898 94.645 73.7148 92.46 67.8498C90.275 61.9848 89.125 55.5448 89.125 48.5299C89.125 41.5149 90.275 35.0749 92.46 29.2099C94.645 23.2299 97.75 18.17 101.545 13.8C105.34 9.54498 109.94 6.09498 115.23 3.67999C120.52 1.265 126.27 0 132.595 0C137.885 0 142.83 0.804998 147.66 2.41499C152.375 4.02499 156.745 6.20998 160.77 8.85497V18.0549H159.965C157.09 13.11 153.295 9.31498 148.58 6.66999C143.635 4.02499 138.46 2.64499 132.71 2.64499Z" fill="black"/>
<path d="M180.896 9.77502C180.896 8.05002 180.781 6.67003 180.666 5.63503C180.551 4.60003 180.321 3.79503 179.976 3.22004C179.631 2.64504 179.171 2.30004 178.481 2.07004C177.791 1.84004 176.986 1.84004 176.066 1.84004V0.920044H196.766V1.72504C194.811 1.72504 193.431 2.30003 192.856 3.33503C192.166 4.37003 191.936 6.67003 191.936 10.235V58.8799C191.936 69.8048 194.466 78.1998 199.526 83.8348C204.586 89.5848 211.371 92.3448 220.111 92.3448C224.596 92.3448 228.621 91.5398 232.416 90.0448C236.211 88.5498 239.431 86.2498 242.191 83.1448C244.951 80.1548 247.136 76.3598 248.631 71.8748C250.126 67.3899 250.931 62.2149 250.931 56.3499V9.66002C250.931 6.44003 250.586 4.25503 250.011 3.22004C249.321 2.18504 248.056 1.72504 246.101 1.72504V0.920044H258.981V1.72504C257.026 1.72504 255.646 2.18504 255.071 3.22004C254.381 4.25503 254.151 6.44003 254.151 9.77502V56.8099C254.151 63.3649 253.231 69.1148 251.391 74.0598C249.551 79.0048 247.021 83.2598 243.801 86.5948C240.581 90.0448 236.786 92.5748 232.301 94.2998C227.816 96.0248 222.986 96.8298 217.581 96.8298C212.061 96.8298 207.001 95.9098 202.516 94.0698C198.031 92.2298 194.236 89.5848 191.016 86.1348C187.796 82.6848 185.381 78.5448 183.656 73.5998C181.931 68.6548 181.011 63.1349 181.011 57.0399V9.77502H180.896Z" fill="black"/>
<path d="M311.879 96.0248C307.739 96.0248 304.519 95.3348 302.334 93.7248C300.149 92.2298 297.964 89.9298 296.009 86.7098L261.854 36.4549V87.1698C261.854 90.0448 262.084 92.1148 262.659 93.3798C263.234 94.6448 264.614 95.2198 266.684 95.2198V96.0248H245.984V95.2198C248.284 95.2198 249.664 94.6448 250.124 93.3798C250.584 92.1148 250.814 90.0448 250.814 87.1698V9.77502C250.814 6.90003 250.584 4.83003 250.124 3.56503C249.664 2.30003 248.284 1.72504 245.984 1.72504V0.920044H278.414C283.359 0.920044 287.729 1.38004 291.639 2.30004C295.549 3.22004 298.884 4.60003 301.644 6.32503C304.404 8.05002 306.474 10.235 308.084 12.65C309.694 15.18 310.499 17.94 310.499 21.045C310.499 23.805 309.809 26.45 308.544 28.75C307.279 31.05 305.554 33.1199 303.369 34.8449C301.184 36.5699 298.539 37.9499 295.434 38.8699C292.329 39.7899 288.994 40.2499 285.429 40.2499C281.864 40.2499 278.299 39.7899 274.504 38.9849C270.594 38.1799 267.374 36.9149 264.614 35.4199L265.649 37.0299C267.374 39.4449 269.099 41.1699 270.709 42.2049C272.319 43.2399 273.929 44.1599 275.539 44.9649C277.149 45.7699 278.759 46.8049 280.254 47.8399C281.864 48.9899 283.474 50.8299 285.199 53.4749L306.589 84.4098C307.509 85.7898 308.429 87.0548 309.464 88.4348C310.499 89.6998 311.649 90.8498 312.799 91.8848C313.949 92.9198 315.099 93.7248 316.249 94.2998C317.399 94.8748 318.434 95.2198 319.584 95.2198V96.0248H311.879V96.0248ZM261.854 30.705C262.889 31.5099 264.269 32.315 265.764 33.0049C267.259 33.6949 268.984 34.3849 270.594 34.8449C272.204 35.3049 274.159 35.7649 275.999 35.9949C277.839 36.2249 279.679 36.4549 281.404 36.4549C283.819 36.4549 286.119 36.1099 288.304 35.5349C290.489 34.9599 292.444 34.0399 294.054 32.7749C295.779 31.51 297.044 29.9 297.964 27.83C298.884 25.875 299.344 23.46 299.344 20.585C299.344 14.835 297.389 10.695 293.479 7.93502C289.569 5.17503 283.934 3.91003 276.574 3.91003H261.739V30.705H261.854Z" fill="black"/>
<path d="M329.244 9.77502C329.244 6.90003 329.014 4.83003 328.554 3.56503C328.094 2.30003 326.599 1.72504 324.299 1.72504V0.920044H344.999V1.72504C342.814 1.72504 341.434 2.30003 340.974 3.56503C340.399 4.83003 340.169 6.90003 340.169 9.77502V87.2848C340.169 90.1598 340.399 92.2298 340.974 93.4948C341.549 94.7598 342.929 95.3348 344.999 95.3348V96.1398H324.299V95.3348C326.599 95.3348 327.979 94.7598 328.439 93.4948C328.899 92.2298 329.129 90.1598 329.129 87.2848V9.77502H329.244Z" fill="black"/>
</svg>
