<svg width="318" height="90" viewBox="0 0 318 90" fill="none" xmlns="http://www.w3.org/2000/svg">
<path d="M60.8439 87.7679C62.1159 87.7679 63.0699 87.5559 63.7059 87.1319C64.3419 86.7079 64.7659 86.1779 64.9779 85.3299C65.1899 84.5879 65.1899 83.7399 64.9779 82.7859C64.7659 81.8319 64.4479 80.7719 64.0239 79.7119L54.5899 56.3919H19.504L10.07 79.6059C9.64599 80.6659 9.32799 81.7259 9.11599 82.6799C8.90399 83.6339 8.79799 84.4819 8.90399 85.2239C9.00999 85.9659 9.32799 86.6019 9.85799 87.0259C10.388 87.4499 11.236 87.7679 12.402 87.7679V88.5099H0V87.7679C1.696 87.7679 3.074 86.8139 4.24 85.0119C5.40599 83.2099 6.35999 81.1959 7.20799 79.0759L39.432 0H41.5519L74.1999 79.6059C75.3659 82.4679 76.4259 84.4819 77.4859 85.7539C78.4399 87.0259 79.9239 87.6619 81.8319 87.6619V88.4039H60.9499V87.7679H60.8439ZM53.7419 53.6359L37.312 12.826L20.67 53.6359H53.7419Z" fill="white"/>
<path d="M122.322 2.438C117.87 2.438 113.736 3.392 110.026 5.40599C106.316 7.41999 103.242 10.176 100.592 13.886C97.9424 17.596 95.9284 21.942 94.5504 27.136C93.1724 32.33 92.4304 38.1599 92.4304 44.5199C92.4304 50.8799 93.1724 56.8159 94.6564 62.0099C96.1404 67.2039 98.1544 71.6559 100.804 75.3659C103.454 79.0759 106.634 81.8319 110.344 83.8459C114.054 85.8599 118.294 86.8139 122.852 86.8139C126.456 86.8139 129.954 86.1779 133.346 85.0119C136.738 83.8459 139.706 81.9379 142.25 79.6059V53.2119C142.25 50.4559 141.508 48.5479 140.024 47.4879C138.54 46.4279 135.572 45.6859 131.226 45.3679V44.5199H152.32V78.4399C148.61 81.6199 144.158 84.1639 139.282 86.1779C134.3 88.1919 129 89.1459 123.17 89.1459C117.234 89.1459 111.722 88.0859 106.74 85.8599C101.758 83.6339 97.3064 80.5599 93.7024 76.6379C90.0984 72.7159 87.2364 67.9459 85.2224 62.5399C83.2084 57.1339 82.1484 51.1979 82.1484 44.7319C82.1484 38.2659 83.2084 32.33 85.2224 26.924C87.2364 21.412 90.0984 16.748 93.5964 12.72C97.0944 8.79799 101.334 5.61799 106.21 3.392C111.086 1.166 116.386 0 122.216 0C127.092 0 131.65 0.741999 136.102 2.226C140.448 3.70999 144.476 5.72399 148.186 8.16199V16.642H147.444C144.794 12.084 141.296 8.58599 136.95 6.148C132.392 3.71 127.622 2.438 122.322 2.438Z" fill="white"/>
<path d="M166.739 9.01001C166.739 7.42001 166.633 6.14801 166.527 5.19402C166.421 4.24002 166.209 3.49802 165.891 2.96802C165.573 2.43802 165.149 2.12002 164.513 1.90802C163.877 1.69602 163.135 1.69602 162.287 1.69602V0.848022H181.367V1.59002C179.565 1.59002 178.293 2.12002 177.763 3.07401C177.127 4.02801 176.915 6.14801 176.915 9.43401V54.272C176.915 64.3419 179.247 72.0799 183.911 77.2739C188.575 82.5739 194.829 85.1179 202.885 85.1179C207.019 85.1179 210.729 84.3759 214.227 82.9979C217.725 81.6199 220.693 79.4999 223.237 76.6379C225.781 73.8819 227.795 70.3839 229.173 66.2499C230.551 62.1159 231.293 57.3459 231.293 51.94V8.90401C231.293 5.93601 230.975 3.92202 230.445 2.96802C229.809 2.01402 228.643 1.59002 226.841 1.59002V0.848022H238.713V1.59002C236.911 1.59002 235.639 2.01402 235.109 2.96802C234.473 3.92202 234.261 5.93602 234.261 9.01001V52.364C234.261 58.4059 233.413 63.7059 231.717 68.2639C230.021 72.8219 227.689 76.7439 224.721 79.8179C221.753 82.9979 218.255 85.3299 214.121 86.9199C209.987 88.5099 205.535 89.2519 200.553 89.2519C195.465 89.2519 190.801 88.4039 186.667 86.7079C182.533 85.0119 179.035 82.5739 176.067 79.3939C173.099 76.2139 170.873 72.3979 169.283 67.8399C167.693 63.2819 166.845 58.1939 166.845 52.576V9.01001H166.739Z" fill="white"/>
<path d="M287.472 88.5099C283.656 88.5099 280.688 87.8739 278.674 86.3899C276.66 85.0119 274.646 82.8919 272.844 79.9239L241.362 33.602V80.3479C241.362 82.9979 241.574 84.9059 242.104 86.0719C242.634 87.2379 243.906 87.7679 245.814 87.7679V88.5099H226.734V87.7679C228.854 87.7679 230.126 87.2379 230.55 86.0719C230.974 84.9059 231.186 82.9979 231.186 80.3479V9.01001C231.186 6.36001 230.974 4.45201 230.55 3.28601C230.126 2.12002 228.854 1.59002 226.734 1.59002V0.848022H256.626C261.184 0.848022 265.212 1.27202 268.816 2.12002C272.42 2.96802 275.494 4.24002 278.038 5.83001C280.582 7.42001 282.49 9.43401 283.974 11.66C285.458 13.992 286.2 16.536 286.2 19.398C286.2 21.942 285.564 24.38 284.398 26.5C283.232 28.62 281.642 30.528 279.628 32.118C277.614 33.708 275.176 34.98 272.314 35.828C269.452 36.676 266.378 37.1 263.092 37.1C259.806 37.1 256.52 36.676 253.022 35.934C249.418 35.192 246.45 34.026 243.906 32.648L244.86 34.132C246.45 36.358 248.04 37.948 249.524 38.902C251.008 39.856 252.492 40.704 253.976 41.446C255.46 42.188 256.944 43.142 258.322 44.096C259.806 45.156 261.29 46.8519 262.88 49.2899L282.596 77.8039C283.444 79.0759 284.292 80.2419 285.246 81.5139C286.2 82.6799 287.26 83.7399 288.32 84.6939C289.38 85.6479 290.44 86.3899 291.5 86.9199C292.56 87.4499 293.514 87.7679 294.574 87.7679V88.5099H287.472V88.5099ZM241.362 28.302C242.316 29.044 243.588 29.786 244.966 30.422C246.344 31.058 247.934 31.694 249.418 32.118C250.902 32.542 252.704 32.966 254.4 33.178C256.096 33.39 257.792 33.602 259.382 33.602C261.608 33.602 263.728 33.284 265.742 32.754C267.756 32.224 269.558 31.376 271.042 30.21C272.632 29.044 273.798 27.56 274.646 25.652C275.494 23.85 275.918 21.624 275.918 18.974C275.918 13.674 274.116 9.85801 270.512 7.31401C266.908 4.77001 261.714 3.60402 254.93 3.60402H241.256V28.302H241.362Z" fill="white"/>
<path d="M303.478 9.01001C303.478 6.36002 303.266 4.45201 302.842 3.28601C302.418 2.12002 301.04 1.59002 298.92 1.59002V0.848022H318V1.59002C315.986 1.59002 314.714 2.12002 314.29 3.28601C313.76 4.45201 313.548 6.36002 313.548 9.01001V80.4539C313.548 83.1039 313.76 85.0119 314.29 86.1779C314.82 87.3439 316.092 87.8739 318 87.8739V88.6159H298.92V87.8739C301.04 87.8739 302.312 87.3439 302.736 86.1779C303.16 85.0119 303.372 83.1039 303.372 80.4539V9.01001H303.478Z" fill="white"/>
</svg>
